if (_typeface_js && _typeface_js.loadFace) _typeface_js.loadFace({"glyphs":{"Ž":{"x_min":-321.34375,"x_max":1073,"ha":917,"o":"m 1073 968 q 999 758 1073 873 q 760 511 916 626 q 830 446 810 487 q 847 369 847 412 q 735 73 847 251 q 533 -181 645 -68 q 610 -229 588 -206 q 612 -256 626 -244 q 575 -252 594 -273 q 502 -212 556 -231 q 40 -495 299 -412 q -133 -519 -36 -519 q -321 -412 -329 -519 q -91 -206 -312 -291 q 249 -134 91 -134 q 480 -163 375 -134 q 632 47 565 -70 q 714 293 714 193 q 640 433 714 381 q 269 310 423 310 q 201 333 212 310 q 192 364 192 348 q 366 507 192 446 q 592 542 464 542 q 719 526 666 542 q 942 750 855 625 q 1030 965 1030 875 q 817 1098 1030 1098 q 638 1074 730 1098 q 337 929 461 1028 q 220 746 220 835 q 231 700 220 722 q 357 642 261 642 q 507 669 423 642 q 638 733 583 695 q 681 745 674 758 q 659 709 691 729 q 509 639 597 668 q 330 606 411 606 q 166 678 213 606 q 139 769 139 719 q 252 974 139 874 q 528 1115 365 1075 q 770 1149 658 1149 q 964 1115 887 1149 q 1073 968 1073 1069 m 599 454 q 484 474 551 474 q 391 464 437 474 q 283 423 327 451 q 248 371 240 394 q 287 356 254 356 q 599 454 402 356 m 455 -193 q 251 -167 359 -167 q 60 -189 155 -167 q -148 -275 -62 -218 q -243 -385 -234 -333 q -204 -452 -250 -428 q -93 -473 -164 -473 q 37 -455 -27 -473 q 455 -193 260 -394 m 984 1322 q 892 1258 977 1312 q 801 1205 806 1205 q 758 1271 794 1209 q 722 1336 722 1334 q 727 1341 724 1341 l 767 1341 l 774 1338 q 828 1249 812 1279 q 976 1347 877 1282 q 983 1336 980 1347 q 984 1322 985 1326 "},"Á":{"x_min":40.96875,"x_max":2023,"ha":1650,"o":"m 1852 1046 q 1570 591 1718 851 q 1628 554 1607 572 q 1639 522 1649 537 q 1614 519 1628 506 q 1552 559 1593 537 q 1457 380 1496 459 q 1362 89 1362 184 q 1435 9 1362 9 q 1547 63 1502 9 q 1566 75 1559 77 q 1562 48 1579 72 q 1504 2 1545 24 q 1412 -24 1456 -24 q 1357 -12 1382 -24 q 1272 120 1272 30 q 1319 306 1272 192 q 1485 591 1355 392 q 1295 654 1388 631 q 1049 380 1172 518 q 775 126 897 216 q 449 -26 614 8 q 353 -36 404 -36 q 146 18 228 -36 q 41 218 43 84 q 277 541 38 396 q 779 710 495 675 q 984 724 884 724 q 1272 694 1134 724 q 1678 1064 1610 1019 q 1807 1117 1756 1117 q 1863 1076 1863 1117 q 1852 1046 1863 1061 m 1822 1086 q 1807 1089 1817 1089 q 1721 1058 1777 1089 q 1322 683 1629 1005 q 1504 622 1418 659 q 1711 911 1593 755 q 1822 1054 1799 1026 q 1822 1086 1842 1076 m 1242 666 q 985 692 1118 692 q 702 665 849 692 q 287 509 471 622 q 79 241 79 382 q 80 212 79 227 q 295 68 105 68 q 466 94 377 68 q 773 245 624 140 q 1038 471 882 320 l 1242 666 m 2022 1303 q 1999 1269 2020 1280 q 1870 1209 1954 1250 q 1820 1183 1853 1198 q 1817 1181 1818 1183 q 1814 1181 1817 1181 q 1809 1190 1807 1181 q 1813 1195 1809 1191 q 1964 1326 1870 1248 q 1992 1335 1975 1335 q 2022 1303 2024 1335 "},"е":{"x_min":18.0625,"x_max":636.109375,"ha":526,"o":"m 630 266 q 623 230 644 255 q 479 105 612 211 q 163 -18 304 -18 q 75 4 111 -18 q 18 115 18 40 q 150 375 18 239 q 329 510 230 457 q 494 563 427 563 q 556 525 556 563 q 493 417 556 487 q 373 311 436 355 q 147 210 266 235 q 133 133 133 167 q 168 55 133 80 q 240 35 198 35 q 458 125 331 35 q 595 251 568 215 q 630 266 619 276 m 500 531 q 391 490 462 531 q 252 380 316 445 q 162 245 198 325 q 352 337 256 270 q 468 436 413 380 q 523 516 523 491 q 500 531 523 531 "},"Î":{"x_min":18,"x_max":1379,"ha":1192,"o":"m 1333 1113 q 1379 982 1379 1078 q 1262 599 1379 819 q 928 189 1133 355 q 593 -2 772 61 q 617 -69 601 -27 q 601 -92 623 -92 q 581 -78 586 -92 q 559 -14 574 -57 q 295 -53 438 -53 q 33 52 84 -53 q 18 120 18 83 q 90 289 18 219 q 169 328 131 328 q 211 289 211 328 q 199 256 211 271 q 170 242 187 242 q 161 242 165 242 q 83 213 116 255 q 56 122 56 175 q 76 54 56 82 q 201 8 112 8 q 529 92 326 8 q 515 264 512 171 q 712 830 527 582 q 966 1060 817 971 q 1223 1144 1106 1144 q 1333 1113 1290 1144 m 1300 1092 q 1218 1115 1268 1115 q 975 1027 1114 1115 q 733 806 836 939 q 612 576 661 709 q 553 273 559 428 q 564 108 547 189 q 961 366 791 210 q 1233 701 1123 516 q 1339 998 1339 881 q 1300 1092 1339 1065 m 1379 1218 q 1373 1213 1376 1213 l 1333 1213 l 1326 1216 q 1273 1305 1300 1256 q 1127 1206 1225 1272 q 1118 1213 1123 1206 q 1116 1223 1113 1219 q 1293 1346 1122 1234 q 1300 1349 1296 1349 q 1306 1344 1302 1349 q 1376 1225 1317 1329 q 1379 1218 1379 1219 "},"e":{"x_min":-25,"x_max":731.203125,"ha":567,"o":"m 473 499 q 441 489 463 499 q 393 463 419 479 q 342 431 366 448 q 304 399 318 413 q 258 357 284 380 q 212 291 231 334 q 284 323 256 304 q 348 368 312 343 q 380 395 359 376 q 422 433 401 413 q 459 467 443 452 q 476 486 475 483 q 481 497 483 494 q 473 499 480 501 m 712 345 q 730 305 734 327 q 709 262 726 283 q 490 73 637 176 q 154 -57 308 -57 q 47 -30 91 -57 q -25 109 -25 16 q 116 394 -25 248 q 205 472 158 437 q 304 536 252 508 q 486 593 411 593 q 556 576 530 593 q 581 522 581 559 q 563 462 581 495 q 509 390 544 429 q 447 330 479 358 q 384 279 416 302 q 275 213 327 238 q 163 176 223 188 q 157 122 156 151 q 187 73 158 94 q 233 66 204 62 q 297 83 262 70 q 368 118 331 97 q 434 159 405 138 q 542 240 494 202 q 630 326 590 279 q 671 354 650 345 q 712 345 693 362 "},"»":{"x_min":314.53125,"x_max":609.4375,"ha":646,"o":"m 608 458 q 603 445 612 451 l 463 350 q 455 347 458 345 q 453 353 452 348 l 463 402 l 467 409 l 569 477 l 498 601 l 517 614 l 608 458 m 469 458 q 465 445 473 451 l 324 350 q 316 347 319 345 q 315 353 313 348 l 324 402 l 329 409 l 430 477 l 359 601 l 378 613 l 469 458 "},"ў":{"x_min":-272.21875,"x_max":773.703125,"ha":635,"o":"m 769 302 q 556 111 727 241 q 297 -26 448 27 q 111 -295 194 -187 q -68 -462 27 -404 q -209 -511 -148 -511 q -272 -452 -272 -511 q -232 -339 -272 -405 q -123 -211 -193 -273 q 231 -15 6 -97 q 305 136 254 32 q 254 87 272 102 q 152 23 208 48 q 51 -1 90 -6 q -23 86 -23 8 q -20 114 -23 100 q 109 326 -8 182 q 295 541 277 532 q 322 548 306 548 q 340 539 340 550 q 288 451 340 526 q 190 307 206 334 q 83 89 91 154 q 106 47 76 47 q 131 52 116 47 q 401 301 248 94 q 608 539 538 487 q 626 544 613 543 q 648 544 640 547 q 652 536 656 543 q 327 22 633 508 q 543 139 469 82 q 743 322 673 239 q 766 322 751 330 q 769 302 779 315 m 211 -56 q -76 -220 34 -125 q -168 -328 -130 -269 q -205 -426 -205 -387 q -170 -466 -205 -466 q -63 -419 -130 -466 q 71 -284 9 -365 q 211 -56 133 -204 m 709 774 q 643 674 694 725 q 505 611 579 612 q 391 666 429 608 q 369 764 363 710 q 390 796 372 796 q 401 788 397 796 q 405 767 405 780 q 436 699 404 731 q 518 669 469 667 q 618 703 569 670 q 677 774 662 735 q 702 799 688 800 q 709 774 715 798 "},"ò":{"x_min":-8,"x_max":780.890625,"ha":644,"o":"m 775 298 q 573 142 664 165 q 501 131 535 131 q 418 152 453 131 q 251 26 339 74 q 94 -21 162 -21 q -8 79 -8 -21 q 65 269 -8 161 q 271 474 147 389 q 488 560 395 560 q 591 460 591 560 q 517 270 591 378 q 448 184 486 225 q 508 166 479 166 q 569 177 535 166 q 746 315 650 201 q 765 325 755 325 q 780 311 780 325 q 775 298 780 304 m 493 311 q 545 458 545 398 q 488 522 545 522 q 333 451 425 522 q 174 280 242 380 q 102 100 102 173 q 160 37 102 37 q 385 173 253 37 q 347 241 347 203 q 375 297 347 274 q 450 322 408 322 q 493 311 478 322 m 551 643 q 544 634 551 634 q 380 734 423 705 q 364 770 362 745 q 396 804 365 804 q 425 794 411 804 q 511 684 473 724 q 535 663 523 673 q 551 643 553 647 "},"^":{"x_min":26.328125,"x_max":746,"ha":739,"o":"m 746 542 l 611 542 q 602 751 606 647 q 593 961 598 855 q 400 751 497 855 q 206 542 304 647 l 26 542 q 315 855 172 698 q 605 1168 459 1011 l 715 1168 q 729 855 722 1011 q 746 542 737 698 "},"«":{"x_min":42.609375,"x_max":336.125,"ha":429,"o":"m 335 612 l 326 563 l 322 557 l 222 489 l 291 365 l 271 353 l 183 508 q 187 520 179 515 l 325 616 q 334 619 331 620 q 335 612 337 619 m 196 612 l 187 563 l 183 558 l 82 488 l 152 365 l 132 353 l 44 508 q 48 520 39 515 l 187 616 q 195 619 192 620 q 196 612 198 619 "},"∙":{"x_min":287.859375,"x_max":387.359375,"ha":407,"o":"m 386 444 q 364 402 382 419 q 327 385 347 385 q 295 402 307 385 q 289 444 284 419 q 310 486 293 469 q 347 504 327 504 q 379 486 368 504 q 386 444 390 469 "},"к":{"x_min":-112.59375,"x_max":805.5625,"ha":642,"o":"m 720 221 q 575 89 697 184 q 347 -4 454 -4 q 291 14 313 -4 q 269 67 269 34 q 286 115 269 96 q 334 188 334 163 q 329 206 334 198 q 290 223 318 220 q 211 196 243 201 q 179 204 191 194 q 169 228 168 215 q 219 253 173 249 q 259 255 233 255 q 411 338 338 283 q 548 498 548 445 q 523 517 548 517 q 356 441 466 517 q 213 320 306 408 q 76 177 115 228 q -61 -3 11 87 q -93 1 -73 -5 q -112 16 -113 8 q 83 298 -109 38 q 345 670 150 388 q 612 1037 509 905 q 759 1140 693 1140 q 805 1091 805 1140 q 741 930 805 1034 q 616 767 684 837 q 369 585 490 640 q 215 370 338 542 q 283 428 250 399 q 376 494 330 467 q 581 563 493 563 q 648 519 648 563 q 458 313 648 440 q 340 246 400 274 q 404 210 391 237 q 409 181 409 196 q 398 137 409 162 q 380 102 388 119 q 369 67 369 78 q 401 48 369 46 q 613 165 477 52 q 691 237 656 196 q 718 252 704 252 q 729 241 729 252 q 720 221 729 233 m 745 1084 q 530 829 697 1084 l 412 652 q 595 794 494 694 q 709 940 658 855 q 761 1063 761 1025 q 745 1084 761 1084 "},"í":{"x_min":-23,"x_max":553.609375,"ha":365,"o":"m 493 293 q 306 125 433 220 q 52 -1 122 -10 q -23 89 -23 8 q -20 114 -23 101 q 110 326 -7 182 q 296 542 278 532 q 322 549 307 549 q 340 539 340 550 q 289 451 340 526 q 190 307 207 334 q 83 88 92 154 q 107 47 77 47 q 302 162 160 47 q 471 318 428 263 q 486 325 477 325 q 503 311 503 325 q 493 293 503 302 m 553 743 q 531 709 552 722 q 402 650 486 690 q 352 623 385 640 q 349 623 350 623 q 346 622 347 622 q 340 630 339 622 q 345 636 340 631 q 496 766 402 688 q 524 775 507 775 q 553 743 556 775 "},"ˆ":{"x_min":83.984375,"x_max":350.28125,"ha":439,"o":"m 350 1141 q 344 1137 347 1137 l 304 1137 l 297 1140 q 243 1229 271 1180 q 96 1131 194 1197 q 87 1137 91 1131 q 85 1147 82 1144 q 264 1269 90 1160 q 271 1272 266 1272 q 276 1267 272 1272 q 347 1148 287 1253 q 350 1141 350 1143 "},"’":{"x_min":437,"x_max":651.3125,"ha":658,"o":"m 650 1043 q 580 925 646 979 q 446 872 513 872 q 437 881 437 872 q 446 888 437 890 q 538 918 480 884 q 598 980 596 952 q 577 990 598 986 q 531 1045 528 999 q 552 1088 534 1070 q 593 1107 571 1107 q 638 1091 623 1108 q 650 1043 653 1073 "},"-":{"x_min":154,"x_max":584.546875,"ha":615,"o":"m 584 396 l 555 350 l 154 350 l 181 396 l 584 396 "},"ѕ":{"x_min":-50.203125,"x_max":581.828125,"ha":446,"o":"m 573 291 q 366 110 486 201 q 53 -4 177 -32 q -50 128 -50 19 q -27 210 -50 170 q 37 251 -1 256 q 119 330 66 277 q 233 444 166 371 q 251 496 241 457 q 280 563 262 535 q 334 601 305 601 q 365 566 365 601 q 343 502 365 532 q 281 435 322 471 q 292 346 277 420 q 311 212 311 260 q 269 80 311 137 q 383 162 323 113 q 549 314 491 249 q 566 324 558 324 q 581 309 581 324 q 573 291 581 299 m 240 356 q 236 393 240 370 l 141 302 q 63 229 120 281 q 67 209 67 219 q 48 166 67 180 q 16 152 47 166 q -7 126 1 144 q -9 106 -9 118 q 49 37 -9 48 q 115 58 77 31 q 187 138 154 84 q 240 356 240 227 "},"Q":{"x_min":-106.9375,"x_max":1129.171875,"ha":950,"o":"m 958 -105 q 976 -82 966 -93 q 997 -68 986 -72 q 1022 -66 1009 -63 q 1050 -83 1036 -69 q 1064 -120 1065 -98 q 1054 -161 1063 -141 q 952 -269 1023 -222 q 904 -297 933 -283 q 836 -316 875 -311 q 748 -315 797 -322 q 640 -279 700 -308 q 479 -199 547 -233 q 363 -143 412 -165 q 281 -109 315 -120 q 220 -98 247 -98 q 143 -100 175 -98 q 86 -107 112 -102 q 36 -120 61 -112 q -22 -137 11 -127 q -68 -140 -45 -144 q -101 -112 -90 -136 q -105 -77 -109 -97 q -86 -40 -101 -58 q -48 -9 -72 -22 q 4 4 -25 2 q -38 243 -40 137 q -9 436 -37 350 q 63 593 18 523 q 154 723 109 662 q 629 1122 387 1041 q 666 1127 648 1129 q 697 1115 684 1126 q 705 1109 702 1112 q 814 1156 758 1141 q 934 1161 870 1172 q 983 1149 959 1159 q 1027 1122 1006 1138 q 1065 1084 1048 1105 q 1091 1041 1081 1063 q 1129 847 1129 959 q 925 294 1129 558 q 861 212 894 254 q 782 125 829 170 q 670 30 736 80 q 506 -76 604 -19 q 575 -111 534 -95 q 659 -138 609 -125 q 780 -156 709 -151 q 826 -151 797 -158 q 884 -135 855 -144 q 934 -118 912 -126 q 958 -105 955 -109 m 309 61 q 373 54 330 52 q 469 72 416 55 q 579 120 522 88 q 686 204 636 152 q 775 301 726 247 q 870 426 825 355 q 953 586 916 497 q 1005 786 990 675 q 1007 862 1011 823 q 996 933 1004 901 q 979 987 988 965 q 965 1015 970 1009 q 889 1049 931 1051 q 802 1020 847 1047 q 714 947 758 993 q 636 850 670 901 q 602 786 616 822 q 578 716 587 750 q 567 659 569 683 q 573 629 565 634 q 609 614 588 613 q 651 627 629 615 q 694 661 673 640 q 733 711 715 683 q 773 750 750 734 q 820 751 797 766 q 854 709 854 736 q 837 654 854 681 q 796 596 822 623 q 734 543 770 569 q 641 497 693 511 q 526 491 590 483 q 461 531 486 500 q 426 604 437 562 q 416 692 415 645 q 430 777 418 738 q 452 845 438 813 q 486 905 466 876 q 281 676 366 806 q 165 304 165 494 q 170 222 165 258 q 192 156 176 186 q 236 104 208 127 q 309 61 263 80 "},"Ш":{"x_min":29,"x_max":2408.125,"ha":2036,"o":"m 1812 406 q 1716 306 1766 352 q 1191 -26 1376 -17 q 1161 -23 1176 -26 q 1133 -15 1146 -20 q 1058 86 1066 9 q 1121 279 1045 177 q 1169 347 1141 306 q 1235 427 1198 388 q 1203 397 1223 415 q 1163 361 1184 379 q 1123 326 1142 342 q 1089 298 1103 309 q 530 -14 712 -14 q 473 -2 500 -14 q 410 101 410 26 q 496 292 410 194 q 719 493 561 367 q 841 600 791 551 q 922 689 891 648 q 1022 934 1022 819 q 966 1057 1022 1013 q 815 1101 910 1101 q 458 989 656 1101 q 201 768 309 907 q 93 520 93 628 q 111 448 93 478 q 251 380 149 380 q 423 416 326 380 q 498 450 465 431 q 558 488 531 468 q 751 756 704 600 q 774 782 756 780 q 788 776 783 784 q 788 756 793 768 q 766 690 777 720 q 741 638 755 660 q 674 550 715 593 q 577 464 633 507 q 433 386 518 420 q 251 351 333 351 q 70 438 122 351 q 29 591 29 506 q 90 796 29 694 q 280 992 156 906 q 745 1144 495 1144 q 988 1080 910 1144 q 1055 924 1055 1027 q 964 659 1055 798 q 903 578 938 620 q 820 490 867 536 q 718 389 758 430 q 658 325 677 348 q 528 86 528 172 q 579 31 528 31 q 834 147 652 31 q 965 235 905 192 q 1074 322 1024 279 q 1271 509 1188 418 q 1428 693 1355 600 q 1574 883 1502 786 q 1737 1089 1646 981 q 1787 1108 1745 1094 q 1828 1120 1810 1115 q 1860 1128 1846 1125 q 1889 1125 1887 1132 q 1873 1101 1889 1122 q 1828 1044 1856 1079 q 1762 965 1799 1010 q 1685 870 1724 919 q 1607 771 1645 821 q 1537 676 1569 721 l 1270 325 q 1192 182 1212 246 q 1177 75 1173 118 q 1235 21 1183 21 q 1477 147 1309 25 q 1597 239 1542 193 q 1696 329 1652 285 q 1832 476 1770 400 q 1930 618 1894 551 q 2008 732 1969 676 q 2089 842 2048 787 q 2171 955 2130 897 q 2255 1075 2213 1012 q 2305 1094 2263 1081 q 2346 1106 2328 1101 q 2378 1114 2364 1111 q 2408 1111 2405 1118 q 2394 1090 2409 1108 q 2351 1036 2378 1071 q 2284 951 2323 1001 q 2198 833 2245 900 q 2106 703 2144 757 q 2046 615 2069 650 q 2012 564 2023 581 q 2001 546 2002 547 q 1959 478 1980 514 q 1917 406 1938 443 q 1874 333 1895 369 q 1833 267 1853 297 q 1742 69 1742 122 q 1784 31 1742 31 q 1895 75 1846 31 q 1924 86 1913 93 q 1924 62 1937 79 q 1886 28 1912 46 q 1825 -2 1860 10 q 1756 -13 1789 -14 q 1694 10 1714 -13 q 1673 74 1673 34 q 1708 208 1673 123 q 1812 406 1744 293 "},"M":{"x_min":-7,"x_max":2702.71875,"ha":2306,"o":"m 1531 575 q 1459 605 1513 586 q 1321 643 1405 625 q 1126 671 1237 661 q 885 675 1016 681 q 678 647 777 669 q 494 593 579 625 q 347 527 410 562 q 245 461 283 491 q 129 254 129 361 q 227 112 129 158 q 291 93 248 102 q 389 78 334 83 q 506 75 444 73 q 629 87 569 76 q 867 154 744 106 q 1126 277 991 202 q 1254 357 1188 312 q 1377 446 1320 402 q 1476 525 1434 490 q 1531 575 1519 561 m 2356 716 q 2424 789 2388 748 q 2488 868 2459 830 q 2536 931 2518 905 q 2551 961 2554 958 q 2547 968 2548 962 q 2539 975 2545 975 q 2522 966 2533 976 q 2490 929 2511 956 q 2436 850 2469 901 q 2356 716 2404 800 m 2702 1073 q 2664 963 2702 1034 q 2552 795 2626 892 q 2513 745 2536 773 q 2463 687 2490 717 q 2409 626 2437 657 q 2355 566 2381 595 q 2226 425 2293 498 q 2095 162 2138 260 q 2051 10 2051 64 q 2062 8 2051 3 q 2088 28 2073 13 q 2138 66 2109 52 q 2177 75 2166 81 q 2201 60 2194 70 q 2208 39 2208 50 q 2204 16 2209 28 q 2194 -6 2199 3 q 2168 -39 2183 -24 q 2134 -69 2152 -54 q 2074 -100 2109 -89 q 2013 -106 2040 -111 q 1966 -87 1991 -104 q 1925 -36 1941 -69 q 1908 44 1909 -3 q 1936 152 1908 91 q 1774 32 1849 73 q 1641 -24 1699 -7 q 1545 -40 1583 -40 q 1498 -37 1508 -40 q 1445 -10 1473 -31 q 1398 44 1416 9 q 1380 131 1380 80 q 1412 252 1380 182 q 1253 132 1324 182 q 1111 41 1181 81 q 963 -28 1041 2 q 781 -87 884 -58 q 636 -119 708 -108 q 488 -131 563 -131 q 195 -71 315 -131 q 11 132 51 -1 q -7 237 -7 182 q 170 559 -7 417 q 290 632 213 594 q 458 702 368 670 q 643 758 549 734 q 813 791 737 782 q 969 803 887 803 q 1131 793 1051 802 q 1288 768 1212 784 q 1427 734 1365 752 q 1534 700 1490 717 q 1597 674 1579 684 q 1683 830 1641 756 q 1719 893 1701 860 q 1754 955 1737 925 q 1787 1011 1772 985 q 1815 1053 1802 1037 q 1914 1163 1865 1125 q 1995 1187 1963 1200 q 2029 1128 2029 1167 q 2027 1097 2029 1113 q 2013 1055 2024 1081 q 1977 985 2001 1028 q 1908 871 1952 942 q 1852 795 1887 839 q 1781 711 1816 750 q 1721 643 1747 671 q 1695 614 1695 614 q 1755 565 1740 587 q 1770 523 1770 544 q 1755 487 1770 502 q 1706 475 1733 464 q 1644 507 1680 485 q 1585 375 1608 432 q 1547 272 1562 317 q 1527 192 1533 227 q 1522 127 1522 157 q 1556 78 1522 78 q 1750 162 1626 78 q 2061 423 1874 246 q 2116 529 2084 471 q 2184 650 2148 587 q 2303 837 2243 752 q 2427 995 2363 923 q 2544 1104 2491 1066 q 2634 1142 2597 1142 q 2702 1073 2702 1142 "},"œ":{"x_min":-15,"x_max":1120.453125,"ha":983,"o":"m 1115 323 q 1108 287 1128 312 q 896 105 1041 208 q 593 -17 723 -17 q 501 5 540 -17 q 431 141 431 48 q 431 176 431 158 q 411 154 424 168 q 244 27 332 76 q 87 -21 155 -21 q -15 79 -15 -21 q 58 269 -15 161 q 264 474 140 389 q 481 560 388 560 q 584 459 584 560 q 584 431 584 445 q 725 523 647 487 q 857 560 802 560 q 917 519 917 560 q 861 413 917 481 q 757 311 812 354 q 542 210 657 235 q 534 152 534 180 q 579 57 534 86 q 654 37 611 37 q 874 126 747 37 q 1079 308 992 210 q 1115 323 1103 334 m 860 531 q 756 489 822 531 q 628 380 685 445 q 551 245 579 324 q 732 337 644 270 q 836 433 788 378 q 884 513 884 488 q 860 531 884 531 m 481 522 q 327 451 419 522 q 167 280 235 380 q 95 100 95 173 q 153 37 95 37 q 334 137 221 37 q 471 289 425 219 q 540 465 540 392 q 481 522 540 522 "},"{":{"x_min":-31.9375,"x_max":983.328125,"ha":488,"o":"m 983 1192 l 929 1099 q 888 1108 905 1108 q 859 1102 872 1108 q 838 1087 847 1096 q 820 1070 829 1078 q 769 985 806 1053 l 568 630 q 534 580 555 608 q 485 526 513 552 q 421 476 456 499 q 345 438 386 452 q 374 397 368 426 q 377 338 380 369 q 365 277 375 306 q 348 234 356 248 l 156 -101 q 126 -181 126 -156 q 161 -196 126 -191 q 256 -197 197 -201 l 201 -300 q 91 -298 136 -304 q 19 -277 47 -293 q -20 -235 -8 -261 q -31 -175 -31 -209 q 3 -53 -31 -131 q 106 136 38 24 q 202 304 172 242 q 233 388 233 365 q 220 397 233 392 q 186 404 206 401 q 144 408 166 406 q 105 410 122 410 l 162 509 q 292 542 229 509 q 394 647 355 576 l 587 1001 q 868 1208 700 1208 q 920 1203 888 1208 q 983 1192 952 1199 "},"#":{"x_min":-4.171875,"x_max":886.109375,"ha":835,"o":"m 886 1008 q 811 881 848 944 q 737 753 773 818 l 861 753 q 821 687 841 719 q 781 621 801 654 l 658 621 l 587 500 l 711 500 q 673 434 691 468 q 636 368 655 401 l 509 368 q 425 225 468 297 q 341 82 383 154 q 268 81 305 82 q 195 81 231 81 q 280 224 238 153 q 363 368 322 295 l 312 368 q 227 225 269 297 q 141 82 184 154 q 68 80 105 80 q -4 79 31 80 q 80 224 38 152 q 163 368 122 295 l 33 367 q 72 434 52 401 q 112 500 93 468 l 243 500 q 277 560 261 530 q 312 621 294 590 l 180 620 q 220 686 200 654 q 261 753 240 719 l 391 753 l 537 1007 q 611 1006 575 1007 q 686 1006 648 1006 q 611 879 648 942 q 537 753 575 816 l 593 753 q 665 879 629 816 q 738 1006 702 942 q 813 1007 776 1007 q 886 1008 850 1008 m 513 621 l 459 621 l 388 500 l 443 500 l 513 621 "},"Ê":{"x_min":25,"x_max":1234.71875,"ha":967,"o":"m 1220 964 q 1193 964 1206 964 q 1132 851 1181 901 q 1020 802 1083 802 q 965 851 965 802 q 996 914 965 882 q 1067 963 1027 945 q 1159 984 1108 980 q 1141 1035 1159 1013 q 1019 1076 1109 1076 q 702 984 862 1076 q 570 865 618 935 q 522 727 522 795 q 550 637 522 673 q 750 675 661 672 q 870 620 865 680 q 766 537 877 555 q 708 533 740 533 q 500 584 584 533 q 271 415 375 531 q 160 191 160 292 q 175 128 160 156 q 416 8 234 8 q 729 74 564 8 q 1029 273 929 156 q 1069 295 1051 300 q 1040 241 1090 293 q 911 134 990 190 q 737 40 818 72 q 345 -39 538 -39 q 43 109 108 -39 q 25 192 25 151 q 175 436 25 315 q 469 605 288 527 q 398 751 388 669 q 665 1026 415 902 q 1005 1107 829 1107 q 1179 1045 1141 1107 q 1194 986 1194 1020 q 1234 972 1234 986 q 1220 964 1234 962 m 1156 959 q 1056 925 1095 950 q 1001 858 1001 887 q 1027 835 1001 835 q 1116 880 1073 835 q 1156 959 1147 912 m 833 621 q 759 649 827 649 q 708 646 736 649 q 576 611 650 637 q 745 565 637 563 q 813 582 790 566 q 833 621 837 598 m 1129 1169 q 1122 1165 1126 1165 l 1081 1165 l 1076 1168 q 1022 1256 1050 1208 q 875 1158 972 1223 q 865 1164 869 1158 q 862 1175 861 1170 q 1043 1297 869 1186 q 1050 1300 1045 1300 q 1055 1295 1051 1300 q 1126 1176 1066 1280 q 1129 1169 1129 1170 "},")":{"x_min":-16.671875,"x_max":1033.328125,"ha":785,"o":"m 1033 1087 q 979 865 1011 973 q 909 660 948 758 q 822 480 869 563 q 723 331 776 397 q 447 86 619 205 q 59 -132 275 -32 l -16 -40 q 79 6 29 -19 q 176 61 129 33 q 265 117 223 88 q 340 170 308 145 q 608 453 465 270 q 802 749 734 613 q 834 824 818 781 q 867 913 851 866 q 898 1010 883 960 q 926 1108 913 1059 l 1033 1087 "},"э":{"x_min":43.0625,"x_max":722.9375,"ha":660,"o":"m 593 298 q 584 284 591 294 q 571 263 578 274 q 558 242 564 252 q 549 228 552 232 q 469 137 517 178 q 366 59 420 95 q 344 45 355 52 q 321 33 333 38 q 364 36 342 33 q 406 46 387 40 q 489 87 448 62 q 571 145 531 113 q 688 241 710 258 q 707 252 699 252 q 722 238 722 252 q 717 224 722 230 q 625 140 675 183 q 516 64 574 96 q 394 14 459 31 q 258 5 328 -3 q 173 -9 208 -9 q 99 58 99 -9 q 142 169 99 108 q 158 176 146 176 q 188 163 170 174 q 210 145 206 152 q 201 128 213 135 q 171 98 189 121 q 151 49 151 69 q 185 22 151 22 q 250 40 213 22 q 322 85 287 58 q 389 144 358 113 q 438 203 420 176 q 458 234 448 217 q 414 224 442 231 q 364 210 385 217 q 319 201 341 203 q 264 216 287 199 q 231 254 241 232 q 225 295 221 276 q 248 320 228 314 q 277 301 270 326 q 273 287 277 294 q 262 280 270 280 q 256 283 260 280 q 248 287 252 287 q 248 264 244 276 q 261 245 252 253 q 282 232 270 237 q 305 230 294 227 q 359 249 314 231 q 428 267 396 263 q 473 266 455 270 q 508 398 508 338 q 417 509 508 509 q 361 489 394 509 q 296 444 328 470 q 236 394 263 419 q 198 357 209 369 q 144 310 174 335 q 80 244 114 284 q 51 235 64 224 q 52 264 34 246 q 140 352 91 301 q 243 449 189 403 q 348 525 296 495 q 446 551 401 556 q 466 549 456 549 q 487 546 476 549 q 616 409 616 527 q 613 385 616 399 q 609 355 611 370 q 602 324 606 339 q 593 298 598 309 "},"Å":{"x_min":40.96875,"x_max":1995.25,"ha":1650,"o":"m 1852 1046 q 1570 591 1718 851 q 1628 554 1607 572 q 1639 522 1649 537 q 1614 519 1628 506 q 1552 559 1593 537 q 1457 380 1496 459 q 1362 89 1362 184 q 1435 9 1362 9 q 1547 63 1502 9 q 1566 75 1559 77 q 1562 48 1579 72 q 1504 2 1545 24 q 1412 -24 1456 -24 q 1357 -12 1382 -24 q 1272 120 1272 30 q 1319 306 1272 192 q 1485 591 1355 392 q 1295 654 1388 631 q 1049 380 1172 518 q 775 126 897 216 q 449 -26 614 8 q 353 -36 404 -36 q 146 18 228 -36 q 41 218 43 84 q 277 541 38 396 q 779 710 495 675 q 984 724 884 724 q 1272 694 1134 724 q 1678 1064 1610 1019 q 1807 1117 1756 1117 q 1863 1076 1863 1117 q 1852 1046 1863 1061 m 1822 1086 q 1807 1089 1817 1089 q 1721 1058 1777 1089 q 1322 683 1629 1005 q 1504 622 1418 659 q 1711 911 1593 755 q 1822 1054 1799 1026 q 1822 1086 1842 1076 m 1242 666 q 985 692 1118 692 q 702 665 849 692 q 287 509 471 622 q 79 241 79 382 q 80 212 79 227 q 295 68 105 68 q 466 94 377 68 q 773 245 624 140 q 1038 471 882 320 l 1242 666 m 1995 1281 q 1960 1207 1992 1238 q 1885 1176 1928 1176 q 1813 1207 1842 1176 q 1788 1281 1785 1238 q 1824 1353 1792 1324 q 1900 1383 1857 1383 q 1970 1353 1943 1383 q 1995 1281 1997 1324 m 1964 1281 q 1946 1331 1965 1310 q 1897 1352 1928 1352 q 1844 1331 1868 1352 q 1820 1281 1821 1310 q 1838 1229 1817 1250 q 1887 1208 1858 1208 q 1939 1229 1916 1208 q 1964 1281 1961 1250 "},"ш":{"x_min":8.328125,"x_max":1041.671875,"ha":943,"o":"m 284 95 q 186 23 240 48 q 83 -1 122 -6 q 8 89 8 8 q 11 114 8 101 q 141 326 23 182 q 327 542 309 532 q 354 549 338 549 q 372 539 372 550 q 320 451 372 526 q 222 307 238 333 q 145 184 158 207 q 113 91 118 132 q 138 45 108 45 q 163 52 150 45 q 338 211 238 84 q 377 266 354 234 q 425 326 401 297 q 611 542 593 532 q 637 549 622 549 q 655 539 655 550 q 604 451 655 525 q 538 356 563 391 q 505 307 513 320 q 429 184 443 209 q 397 91 401 132 q 422 45 390 45 q 447 52 430 45 q 720 314 559 101 q 802 426 761 369 q 888 542 844 483 q 915 549 900 549 q 933 539 933 550 q 881 451 933 525 q 783 307 798 332 q 676 89 684 154 q 700 47 669 47 q 894 162 751 47 q 1009 262 1019 262 q 1025 269 1016 269 q 1041 255 1041 269 q 1031 237 1041 247 q 898 125 1027 222 q 644 -1 713 -11 q 569 87 570 9 q 469 23 525 50 q 366 -1 405 -6 q 306 36 320 5 q 294 114 291 68 l 284 95 "},"Я":{"x_min":1.625,"x_max":1564.21875,"ha":1638,"o":"m 1352 847 q 1337 980 1354 909 q 1288 1054 1313 1027 q 1235 1093 1262 1080 q 1180 1108 1208 1105 q 1125 1111 1152 1111 q 960 1070 1033 1111 q 837 967 887 1030 q 761 827 787 904 q 735 675 734 750 q 764 538 736 601 q 852 443 793 476 q 1002 415 911 411 q 1222 481 1094 420 q 1315 656 1280 565 q 1352 847 1350 747 m 1360 509 q 1303 485 1331 496 q 1270 471 1276 474 q 1217 411 1252 448 q 1136 331 1182 374 q 1036 242 1090 288 q 927 152 982 195 q 816 72 871 109 q 713 12 761 35 q 267 -109 460 -111 q 83 -62 156 -109 q 6 28 24 -22 q 4 112 -2 65 q 24 174 10 142 q 56 234 38 206 q 97 284 75 262 q 143 319 120 306 q 199 334 168 337 q 254 292 254 334 q 233 247 252 266 q 189 228 215 228 q 154 253 157 230 q 146 269 153 266 q 124 260 138 270 q 90 219 110 251 q 70 180 77 199 q 58 142 63 162 q 60 85 54 109 q 240 -10 79 -8 q 613 67 390 -11 q 763 131 685 94 q 915 216 840 169 q 1061 319 990 263 q 1189 437 1131 374 q 1046 393 1108 403 q 934 386 983 383 q 848 405 885 390 q 781 440 811 420 q 691 514 728 470 q 635 614 654 559 q 615 732 615 669 q 635 862 614 795 q 776 1063 678 992 q 1015 1158 874 1134 q 1233 1138 1143 1180 q 1362 1008 1322 1096 q 1387 790 1403 919 q 1290 510 1372 662 l 1351 537 l 1564 627 q 1480 465 1503 508 q 1458 421 1469 442 q 1437 380 1447 399 q 1342 90 1342 184 q 1415 9 1342 9 q 1528 63 1482 9 q 1546 74 1537 77 q 1542 48 1560 71 q 1485 2 1525 24 q 1392 -23 1437 -23 q 1337 -12 1367 -23 q 1252 120 1252 31 q 1299 306 1252 195 q 1357 420 1317 346 q 1395 485 1378 456 q 1428 538 1412 515 l 1360 509 "},"¸":{"x_min":107.90625,"x_max":294.28125,"ha":440,"o":"m 294 -120 q 230 -196 289 -172 q 124 -215 184 -215 q 108 -205 106 -215 q 126 -196 108 -196 q 205 -174 164 -196 q 249 -115 246 -151 q 213 -69 252 -88 q 258 0 216 -65 l 289 0 l 249 -63 q 294 -120 296 -79 "},"a":{"x_min":-24,"x_max":845.4375,"ha":671,"o":"m 495 465 q 505 493 505 477 q 500 499 505 498 q 489 500 495 500 q 454 490 473 500 q 405 462 435 481 q 273 345 339 422 q 130 87 130 186 q 140 77 130 76 q 153 80 150 79 q 163 84 159 81 q 173 93 167 87 q 191 110 180 100 q 220 138 202 120 q 280 201 252 169 q 335 268 309 233 q 409 363 368 313 q 495 465 449 412 m 827 272 q 634 99 766 200 q 468 -5 538 28 q 355 -34 398 -39 q 282 -3 302 -27 q 263 50 263 21 q 248 39 263 53 q 211 9 234 26 q 160 -21 188 -7 q 102 -34 131 -35 q 3 3 31 -31 q -24 105 -24 39 q 73 333 -24 211 q 294 529 164 451 q 502 599 413 599 q 542 592 524 599 q 570 579 560 586 q 583 567 581 571 q 588 565 585 564 q 602 573 591 568 q 623 579 613 578 q 659 579 642 583 q 690 560 682 575 q 682 519 698 544 q 527 290 637 454 q 453 164 478 215 q 424 85 428 114 q 437 86 424 80 q 472 105 449 92 q 525 141 495 119 q 589 190 555 162 q 753 340 713 289 q 795 360 769 360 q 832 349 819 360 q 845 312 845 337 q 827 272 845 287 "},"=":{"x_min":52,"x_max":610.328125,"ha":671,"o":"m 610 561 l 595 512 l 92 512 l 106 561 l 610 561 m 568 422 l 550 375 l 52 375 l 70 422 l 568 422 "},"˚":{"x_min":96.75,"x_max":303.109375,"ha":378,"o":"m 302 1244 q 268 1169 299 1201 q 194 1138 237 1138 q 122 1169 151 1138 q 97 1244 94 1200 q 133 1316 99 1286 q 208 1346 166 1346 q 278 1316 251 1346 q 302 1244 306 1287 m 272 1243 q 255 1293 274 1273 q 206 1313 235 1313 q 153 1293 177 1313 q 127 1243 130 1272 q 146 1191 126 1213 q 197 1169 166 1169 q 248 1191 226 1169 q 272 1243 270 1213 "},"ú":{"x_min":-23,"x_max":781.171875,"ha":643,"o":"m 771 293 q 583 125 711 220 q 329 -1 400 -10 q 254 87 256 8 q 154 23 208 48 q 52 -1 90 -6 q -23 89 -23 8 q -20 114 -23 101 q 110 326 -7 182 q 296 542 278 532 q 322 549 307 549 q 340 539 340 550 q 289 451 340 526 q 191 307 207 333 q 114 184 127 207 q 83 91 87 132 q 107 45 77 45 q 132 52 119 45 q 406 314 243 100 q 574 542 485 425 q 600 549 585 549 q 618 539 618 550 q 567 451 618 526 q 468 307 485 334 q 361 88 370 154 q 385 47 354 47 q 579 162 438 47 q 749 318 706 263 q 764 325 754 325 q 781 311 781 325 q 771 293 781 302 m 660 739 q 638 705 658 718 q 508 645 593 686 q 458 619 492 636 q 456 619 457 619 q 453 618 454 618 q 447 626 446 618 q 452 631 447 627 q 603 762 508 684 q 631 771 614 771 q 660 739 663 771 "},"д":{"x_min":-272.9375,"x_max":702.140625,"ha":635,"o":"m 697 236 q 556 111 727 241 q 296 -26 447 28 q 110 -295 193 -187 q -68 -462 27 -404 q -210 -511 -149 -511 q -272 -452 -272 -511 q -233 -339 -272 -405 q -124 -210 -193 -273 q 231 -14 6 -96 q 299 125 274 68 q 95 -1 179 -5 q 9 104 9 3 q 97 311 9 198 q 309 497 186 424 q 499 563 421 563 q 552 547 532 563 q 567 500 571 532 q 606 537 599 532 q 625 544 613 543 q 647 544 639 547 q 652 536 656 543 q 327 22 632 508 q 542 139 468 82 q 671 255 672 239 q 697 236 679 264 m 519 441 q 535 490 535 462 q 495 531 535 531 q 385 488 452 531 q 247 366 313 443 q 97 86 97 197 q 128 38 97 38 q 242 113 165 38 q 360 247 308 176 q 519 441 427 336 m 211 -56 q -76 -220 34 -124 q -168 -328 -130 -269 q -205 -426 -205 -387 q -170 -466 -205 -466 q -63 -419 -130 -466 q 71 -284 9 -365 q 211 -56 133 -203 "},"¯":{"x_min":74.9375,"x_max":374.0625,"ha":428,"o":"m 374 1155 q 343 1132 371 1132 l 101 1132 q 75 1155 73 1132 q 105 1179 77 1179 l 347 1179 q 374 1155 375 1179 "},"Z":{"x_min":-357.71875,"x_max":1125,"ha":917,"o":"m 1125 976 q 1044 743 1125 871 q 1003 680 1022 708 q 963 628 984 653 q 914 578 941 603 q 849 525 887 553 q 899 403 894 467 q 888 278 905 340 q 840 160 872 217 q 780 55 809 103 q 737 -9 756 19 q 699 -64 718 -38 q 660 -114 680 -89 q 613 -164 640 -138 q 651 -192 638 -176 q 665 -228 663 -209 q 660 -264 668 -246 q 637 -292 652 -281 q 606 -303 620 -305 q 579 -292 592 -301 q 552 -273 566 -284 q 520 -256 537 -263 q 306 -423 417 -358 q 59 -533 195 -488 q -127 -558 -23 -558 q -302 -521 -240 -558 q -357 -406 -363 -485 q -286 -269 -351 -330 q -100 -162 -220 -209 q 256 -87 88 -87 q 374 -92 323 -87 q 474 -112 426 -98 q 541 -29 511 -73 q 604 72 572 14 q 640 143 623 107 q 666 219 658 180 q 671 300 675 258 q 645 390 668 343 q 432 296 537 327 q 227 283 327 265 q 191 298 205 287 q 170 323 177 309 q 161 350 163 337 q 158 369 158 362 q 211 473 158 427 q 359 552 263 519 q 601 590 465 590 q 664 589 641 590 q 719 579 687 587 q 829 672 782 623 q 918 780 876 720 q 979 886 960 839 q 999 972 999 934 q 959 1039 999 1015 q 827 1064 919 1064 q 744 1058 786 1064 q 658 1041 702 1052 q 371 904 488 997 q 294 824 319 861 q 269 752 269 787 q 276 726 269 740 q 305 699 284 709 q 364 690 327 690 q 502 716 427 690 q 624 774 576 742 q 680 797 649 792 q 727 774 712 802 q 730 721 744 745 q 691 681 717 698 q 531 606 623 637 q 338 571 426 571 q 138 661 199 571 q 104 776 104 715 q 136 898 104 839 q 231 1014 169 957 q 527 1164 352 1122 q 657 1190 594 1182 q 779 1199 721 1199 q 992 1162 907 1199 q 1125 976 1125 1105 m 519 450 q 457 452 495 459 q 383 433 419 445 q 320 407 347 420 q 295 391 294 394 q 314 387 297 387 q 362 393 331 387 q 433 413 392 400 q 519 450 473 427 m 384 -209 q 311 -200 354 -201 q 222 -204 269 -200 q 131 -215 176 -208 q 48 -231 85 -223 q -42 -261 0 -243 q -116 -300 -84 -279 q -168 -345 -148 -320 q -193 -393 -189 -369 q -180 -410 -194 -401 q -145 -425 -166 -419 q -98 -432 -123 -430 q -48 -430 -72 -434 q 94 -395 33 -413 q 205 -350 155 -376 q 297 -289 255 -323 q 384 -209 340 -255 "},"u":{"x_min":-57.40625,"x_max":816.671875,"ha":643,"o":"m 798 269 q 605 95 737 194 q 446 -9 509 25 q 338 -41 383 -44 q 272 -22 297 -37 q 226 31 247 -8 q 184 4 209 18 q 132 -18 158 -8 q 83 -33 106 -27 q 47 -37 59 -38 q -34 5 -5 -30 q -55 102 -63 41 q -14 208 -51 145 q 84 345 22 270 q 219 506 169 450 q 279 568 269 562 q 322 580 297 580 q 359 573 343 583 q 375 537 375 563 q 359 499 375 527 q 318 430 344 470 q 252 336 276 372 q 219 287 227 300 q 144 166 154 187 q 120 118 131 143 q 115 86 108 93 q 146 95 119 77 q 212 148 173 113 q 295 231 251 183 q 380 331 340 279 q 464 447 420 388 q 552 563 508 505 q 577 577 566 575 q 601 580 588 580 q 638 573 622 583 q 654 537 654 563 q 638 499 654 527 q 595 430 623 470 q 498 287 516 316 q 453 214 473 250 q 419 150 433 179 q 398 103 405 122 q 395 81 391 84 q 445 102 401 75 q 559 186 490 129 q 663 273 622 236 q 725 337 705 311 q 766 356 741 356 q 803 345 790 356 q 816 309 816 333 q 811 287 816 298 q 798 269 805 276 "},"k":{"x_min":-151.875,"x_max":840.28125,"ha":675,"o":"m 726 1041 q 705 1032 716 1041 q 675 1000 694 1023 q 629 935 656 976 q 559 831 601 894 l 506 748 q 540 777 516 752 q 592 831 565 801 q 644 893 619 862 q 681 945 669 925 q 721 1013 705 986 q 726 1041 737 1041 m 795 348 q 840 304 840 348 q 826 266 840 284 q 770 207 812 245 q 656 112 727 169 q 341 -45 461 -45 q 263 -18 295 -45 q 230 59 230 11 q 256 130 230 102 q 290 165 279 151 q 291 180 302 179 q 249 163 268 169 q 211 155 230 158 q 152 172 176 151 q 136 194 141 183 q 114 170 125 181 q 97 148 104 159 q 27 53 65 102 q -48 -43 -11 4 q -81 -46 -68 -47 q -109 -40 -95 -45 q -140 -20 -127 -33 q -151 12 -154 -7 q -97 101 -148 24 q 51 309 -45 177 q 150 447 84 354 q 313 683 215 540 q 583 1052 477 916 q 671 1138 627 1108 q 756 1168 715 1168 q 837 1084 837 1168 q 819 1006 837 1051 q 768 906 801 961 q 706 815 738 858 q 637 737 673 773 q 507 629 570 670 q 381 559 444 587 q 375 543 379 549 q 362 515 370 537 q 400 538 375 524 q 457 563 426 551 q 520 583 488 574 q 577 591 552 591 q 650 572 623 591 q 677 512 677 554 q 625 404 677 463 q 472 279 572 345 q 450 263 456 268 q 438 257 443 259 q 427 252 433 255 q 412 244 422 249 q 431 217 426 241 q 434 166 436 194 q 424 113 431 138 q 406 79 416 87 q 420 79 404 74 q 462 98 436 84 q 522 133 488 112 q 588 181 555 154 q 744 322 713 284 q 795 348 763 348 m 248 280 q 318 311 284 293 q 386 356 351 330 q 482 434 451 409 q 513 477 513 458 q 463 465 502 488 q 370 406 423 443 q 231 288 322 373 q 222 280 226 283 l 248 280 "},"Ù":{"x_min":29,"x_max":1797.140625,"ha":1476,"o":"m 1797 1111 q 1611 830 1801 1098 q 1386 515 1391 523 q 1222 266 1304 389 q 1132 68 1132 123 q 1173 30 1132 30 q 1284 74 1236 30 q 1313 86 1304 93 q 1304 51 1326 76 q 1236 6 1283 26 q 1146 -14 1189 -14 q 1083 9 1104 -14 q 1063 73 1063 33 q 1198 394 1063 170 q 1090 297 1145 341 q 530 -14 714 -14 q 473 -2 498 -14 q 410 101 410 26 q 496 292 410 195 q 719 493 559 364 q 922 689 862 610 q 1022 934 1022 819 q 966 1057 1022 1013 q 815 1101 910 1101 q 458 989 656 1101 q 201 768 309 907 q 93 520 93 630 q 111 448 93 478 q 251 380 149 380 q 423 416 327 380 q 558 488 506 448 q 751 756 702 598 q 774 783 758 781 q 788 777 783 784 q 788 756 792 769 q 741 638 767 683 q 577 464 688 549 q 433 387 519 420 q 251 351 334 351 q 70 438 123 351 q 29 591 29 506 q 90 796 29 694 q 280 992 156 906 q 745 1144 496 1144 q 988 1080 909 1144 q 1055 924 1055 1027 q 964 659 1055 796 q 820 489 913 581 q 658 324 698 370 q 528 85 528 170 q 579 30 528 30 q 834 146 652 30 q 1075 321 975 237 q 1322 587 1236 458 q 1644 1075 1476 823 q 1695 1094 1649 1079 q 1767 1114 1740 1109 q 1797 1111 1794 1118 m 1366 1163 q 1358 1155 1365 1155 q 1194 1255 1237 1226 q 1177 1291 1176 1268 q 1210 1325 1180 1325 q 1238 1315 1224 1325 q 1326 1205 1287 1245 q 1348 1184 1337 1194 q 1366 1163 1366 1168 "},"З":{"x_min":-322.9375,"x_max":1072,"ha":917,"o":"m 1072 967 q 998 758 1072 873 q 760 511 915 626 q 829 446 809 487 q 846 369 846 412 q 734 73 846 251 q 531 -182 644 -68 q 609 -229 587 -207 q 611 -257 625 -244 q 574 -253 592 -273 q 501 -212 555 -232 q 38 -496 298 -412 q -135 -520 -37 -520 q -322 -413 -330 -520 q -93 -206 -314 -292 q 248 -134 89 -134 q 478 -164 373 -134 q 630 46 563 -71 q 713 293 713 193 q 639 433 713 382 q 268 310 422 310 q 200 333 211 310 q 192 364 192 348 q 365 507 192 446 q 592 542 464 542 q 718 526 665 542 q 941 750 854 625 q 1029 965 1029 875 q 816 1097 1029 1097 q 637 1073 729 1097 q 336 929 459 1027 q 218 746 218 834 q 229 700 218 722 q 355 642 259 642 q 505 669 422 642 q 637 733 581 696 q 680 746 673 758 q 658 710 690 729 q 508 639 595 668 q 329 606 409 606 q 164 678 212 606 q 137 769 137 719 q 250 974 137 873 q 527 1114 363 1074 q 769 1148 656 1148 q 963 1114 885 1148 q 1072 967 1072 1068 m 598 454 q 482 474 549 474 q 389 464 435 474 q 282 423 326 451 q 246 371 238 394 q 285 356 252 356 q 598 454 401 356 m 453 -193 q 249 -167 357 -167 q 59 -189 153 -167 q -150 -276 -64 -218 q -244 -386 -236 -333 q -205 -453 -251 -429 q -94 -474 -165 -474 q 35 -455 -29 -474 q 453 -193 259 -394 "},"¢":{"x_min":112,"x_max":623.109375,"ha":694,"o":"m 621 962 l 539 795 q 601 727 601 788 q 557 618 601 679 q 544 611 553 611 q 512 622 530 611 q 491 641 493 633 q 498 656 487 650 q 530 690 510 663 q 550 737 550 718 q 523 762 550 759 l 282 280 q 316 275 297 275 q 471 333 380 275 q 571 412 539 376 q 601 419 588 429 q 599 390 619 406 q 260 236 406 225 l 171 58 q 150 31 159 31 q 127 51 127 31 q 130 58 127 54 l 222 242 q 112 377 112 269 q 177 554 112 456 q 331 714 236 645 q 495 793 420 777 l 578 962 q 600 990 592 990 q 623 969 623 990 q 621 962 623 965 m 477 755 q 291 583 380 719 q 221 387 221 477 q 250 300 221 330 l 477 755 "},"é":{"x_min":18,"x_max":704.109375,"ha":567,"o":"m 698 323 q 691 287 712 312 q 479 104 624 208 q 163 -19 304 -19 q 74 3 111 -19 q 18 114 18 39 q 149 375 18 238 q 329 510 230 457 q 494 563 427 563 q 557 525 557 563 q 493 416 557 487 q 373 311 436 355 q 146 209 266 234 q 133 132 133 166 q 167 54 133 79 q 240 34 198 34 q 458 124 331 34 q 663 308 580 212 q 698 323 687 333 m 500 532 q 391 490 462 532 q 252 380 316 445 q 162 245 198 325 q 352 337 257 270 q 469 436 414 380 q 524 516 524 491 q 500 532 524 532 m 665 736 q 643 702 663 713 q 513 643 598 683 q 463 616 497 631 q 461 615 462 616 q 458 615 461 615 q 452 623 451 615 q 456 629 452 625 q 608 759 513 681 q 636 768 619 768 q 665 736 668 768 "},"B":{"x_min":-11.109375,"x_max":1411.109375,"ha":1228,"o":"m 536 737 q 490 697 515 719 q 434 639 466 674 q 361 552 402 604 q 265 424 319 501 q 207 329 236 384 q 158 223 179 273 q 126 138 137 173 q 122 102 115 104 q 209 183 131 91 q 401 473 287 274 q 438 539 423 513 q 468 590 454 565 q 497 649 481 616 q 536 737 512 681 m 969 552 q 929 567 952 563 q 882 572 905 572 q 840 569 859 572 q 816 563 822 566 q 816 547 801 555 q 839 540 822 544 q 879 534 856 536 q 925 536 901 533 q 969 552 950 540 m 423 141 q 413 104 416 130 q 437 51 409 77 q 505 23 462 29 q 594 21 548 18 q 681 33 640 25 q 741 48 722 41 q 823 84 775 61 q 920 138 872 106 q 1008 209 968 169 q 1068 294 1048 248 q 1079 335 1073 309 q 1088 387 1086 361 q 1088 437 1091 413 q 1072 473 1084 461 q 997 445 1043 458 q 902 427 951 433 q 809 422 854 420 q 734 438 763 425 q 670 490 691 461 q 647 551 648 520 q 666 611 645 581 q 730 663 687 641 q 818 686 768 683 q 918 684 868 690 q 1009 664 968 677 q 1072 634 1051 651 q 1106 670 1086 647 q 1145 722 1126 693 q 1181 785 1165 751 q 1204 853 1197 819 q 1206 918 1212 887 q 1179 976 1201 950 q 1118 1013 1154 1004 q 1040 1017 1081 1022 q 954 997 998 1012 q 868 962 909 981 q 793 922 827 943 q 734 886 758 901 q 659 718 701 806 q 568 533 618 630 q 397 233 477 358 q 422 220 409 229 q 435 181 437 205 q 423 141 433 158 m 1177 534 q 1206 478 1198 513 q 1213 407 1213 442 q 1206 342 1212 372 q 1198 301 1201 312 q 1176 235 1190 267 q 1139 170 1162 204 q 1082 101 1116 137 q 998 28 1048 66 q 868 -43 941 -14 q 719 -92 794 -73 q 577 -119 644 -111 q 469 -128 511 -128 q 302 -91 356 -128 q 247 10 247 -55 q 247 25 247 17 q 248 40 247 33 q 93 -48 162 -48 q 13 -15 38 -48 q -11 78 -11 17 q 76 358 -11 192 q 165 504 115 431 q 283 649 216 576 q 435 801 350 723 q 629 963 520 879 q 663 1052 650 1016 q 683 1109 676 1087 q 705 1155 690 1136 q 748 1175 720 1175 q 769 1172 756 1175 q 793 1159 781 1169 q 810 1131 804 1150 q 812 1080 816 1112 q 897 1113 855 1098 q 983 1139 938 1129 q 1075 1154 1027 1149 q 1180 1158 1123 1159 q 1247 1143 1208 1156 q 1323 1102 1287 1130 q 1385 1027 1359 1073 q 1411 915 1411 981 q 1389 818 1411 873 q 1334 708 1368 762 q 1259 606 1301 654 q 1177 534 1218 559 "},"…":{"x_min":110.90625,"x_max":821.46875,"ha":876,"o":"m 820 55 q 799 13 816 30 q 762 -4 782 -4 q 730 13 742 -4 q 723 55 718 30 q 744 97 727 80 q 781 115 762 115 q 813 97 802 115 q 820 55 824 80 m 520 55 q 499 13 516 30 q 462 -4 482 -4 q 430 13 442 -4 q 423 55 418 30 q 444 97 427 80 q 481 115 462 115 q 513 97 502 115 q 520 55 524 80 m 209 55 q 188 13 205 30 q 150 -4 171 -4 q 119 13 131 -4 q 112 55 107 30 q 133 97 116 80 q 170 115 150 115 q 202 97 191 115 q 209 55 213 80 "},"В":{"x_min":32,"x_max":1367,"ha":1228,"o":"m 1340 794 q 1110 541 1275 643 q 1167 390 1167 483 q 1155 312 1167 353 q 1008 98 1124 194 q 766 -35 908 15 q 496 -86 624 -86 q 293 -5 331 -86 q 283 38 283 15 q 314 127 283 81 q 367 185 337 166 q 394 188 383 197 q 387 160 400 183 q 371 109 371 130 q 407 24 371 58 q 576 -21 458 -21 q 756 9 671 -21 q 993 144 897 61 q 1117 315 1086 223 q 1131 393 1131 355 q 1078 524 1131 471 q 850 456 953 456 q 750 475 794 456 q 693 551 693 501 q 748 624 693 596 q 881 649 803 653 q 1072 578 993 640 q 1232 800 1178 671 q 1249 886 1249 841 q 1208 1001 1249 955 q 1073 1053 1162 1053 q 1003 1044 1040 1053 q 700 911 857 1015 q 530 550 629 743 q 283 141 397 287 q 94 -8 166 -8 q 32 78 32 -8 q 113 337 32 180 q 576 869 265 625 q 662 933 619 904 q 722 1096 708 1050 q 747 1131 730 1131 q 764 1120 757 1131 q 771 1100 771 1110 q 727 976 768 1081 q 1161 1113 961 1121 q 1309 1053 1251 1108 q 1367 912 1367 999 q 1340 794 1367 857 m 1045 555 q 879 617 980 610 q 793 600 827 621 q 761 550 758 579 q 795 508 762 525 q 873 492 827 492 q 1045 555 961 492 m 633 864 q 293 528 438 717 q 154 311 215 426 q 79 104 79 174 q 117 49 79 49 q 436 453 206 49 q 633 864 529 618 "},"І":{"x_min":17.78125,"x_max":1379,"ha":1151,"o":"m 1333 1113 q 1379 982 1379 1078 q 1262 599 1379 819 q 927 188 1133 355 q 593 -3 772 60 q 616 -69 601 -28 q 601 -92 623 -92 q 582 -78 586 -92 q 560 -14 575 -57 q 295 -53 438 -53 q 33 52 84 -53 q 17 120 17 83 q 90 288 17 219 q 169 327 131 327 q 210 288 210 327 q 199 255 210 270 q 170 241 187 241 q 160 244 165 241 q 83 214 116 258 q 55 123 55 177 q 76 55 55 83 q 201 8 112 8 q 529 92 326 8 q 515 264 512 171 q 712 830 527 582 q 966 1060 817 971 q 1223 1144 1106 1144 q 1333 1113 1289 1144 m 1300 1092 q 1218 1115 1268 1115 q 975 1027 1114 1115 q 733 806 836 940 q 612 576 661 709 q 553 273 559 428 q 564 108 547 190 q 961 366 791 210 q 1233 701 1123 516 q 1339 998 1339 881 q 1300 1092 1339 1065 "},"H":{"x_min":-23.78125,"x_max":2244.890625,"ha":1704,"o":"m 1159 526 q 1118 531 1130 530 q 1099 532 1105 532 q 1086 532 1093 532 q 1059 532 1079 532 q 1020 485 1040 504 q 968 443 1000 466 q 640 331 823 331 q 499 349 556 331 q 401 417 441 367 q 354 390 386 410 q 289 344 323 369 q 223 293 255 319 q 173 247 191 266 q 140 200 155 226 q 118 151 126 174 q 107 108 109 127 q 111 80 105 88 q 139 43 125 57 q 172 20 154 28 q 214 8 190 11 q 275 5 238 5 q 447 30 363 5 q 637 99 531 56 q 976 307 847 187 q 1029 359 1005 335 q 1075 407 1054 382 q 1117 461 1097 432 q 1159 526 1137 489 m 898 532 q 788 527 831 530 q 708 518 744 525 q 637 502 672 512 q 554 475 602 491 q 584 455 559 461 q 643 452 609 450 q 717 461 677 454 q 793 480 756 469 q 858 504 830 491 q 898 532 886 518 m 1133 1095 q 1043 1084 1090 1095 q 948 1056 995 1074 q 855 1015 901 1039 q 769 962 809 990 q 667 869 713 925 q 586 756 620 812 q 534 654 552 700 q 519 591 516 608 q 634 622 579 611 q 745 640 688 634 q 862 649 801 647 q 997 650 923 651 q 1027 705 1019 683 q 1043 762 1036 727 q 1063 800 1050 786 q 1101 816 1077 813 q 1129 808 1118 816 q 1151 784 1141 800 q 1154 765 1152 779 q 1156 731 1156 751 q 1152 690 1156 712 q 1134 647 1147 668 q 1156 645 1148 645 q 1172 645 1165 645 q 1190 644 1180 645 q 1220 642 1201 643 q 1265 721 1247 687 q 1294 786 1283 754 q 1311 854 1305 818 q 1316 943 1316 890 q 1300 1008 1316 979 q 1259 1056 1284 1036 q 1200 1085 1233 1075 q 1133 1095 1168 1095 m 2244 1119 q 2232 1078 2247 1094 q 2193 1054 2218 1062 q 2047 975 2136 1041 q 1900 831 1956 905 q 1842 756 1868 791 q 1794 687 1816 722 q 1751 615 1772 652 q 1709 534 1730 577 q 1748 522 1727 529 q 1786 505 1769 515 q 1815 480 1804 496 q 1825 443 1826 465 q 1813 409 1823 421 q 1783 389 1804 397 q 1734 396 1768 386 q 1655 423 1701 407 q 1631 375 1644 401 q 1601 316 1618 350 q 1563 239 1584 282 q 1515 141 1541 197 q 1456 29 1481 71 q 1388 -35 1430 -12 q 1348 -52 1376 -44 q 1290 -68 1320 -60 q 1231 -80 1259 -76 q 1188 -84 1202 -84 q 1136 -74 1161 -84 q 1111 -35 1111 -63 q 1125 -3 1111 -16 q 1155 16 1140 9 q 1286 128 1222 44 q 1340 205 1313 166 q 1393 284 1366 243 q 1448 370 1420 325 q 1508 468 1476 415 q 1447 483 1472 478 q 1401 493 1423 489 q 1356 500 1379 497 q 1302 508 1334 504 q 1163 305 1240 398 q 986 122 1086 211 q 819 -5 905 48 q 637 -98 733 -59 q 308 -171 461 -171 q 197 -157 252 -171 q 97 -116 143 -143 q 22 -54 52 -90 q -16 26 -8 -18 q -21 127 -27 80 q 4 217 -15 174 q 54 297 23 259 q 122 370 84 334 q 227 460 180 424 q 337 523 275 495 q 331 653 320 586 q 375 786 341 720 q 463 915 409 852 q 588 1032 518 977 q 728 1119 656 1083 q 868 1177 800 1155 q 1001 1210 937 1200 q 1118 1221 1065 1221 q 1240 1206 1181 1221 q 1345 1164 1300 1191 q 1420 1093 1391 1136 q 1451 995 1448 1051 q 1450 875 1454 926 q 1434 783 1445 825 q 1404 703 1422 741 q 1361 618 1386 665 q 1424 607 1398 612 q 1472 597 1450 602 q 1517 587 1494 593 q 1572 573 1540 582 q 1674 734 1625 662 q 1776 872 1723 805 q 1988 1077 1875 995 q 2179 1172 2094 1151 q 2227 1164 2211 1179 q 2244 1119 2244 1150 "},"î":{"x_min":-23,"x_max":503.390625,"ha":365,"o":"m 493 293 q 306 125 433 220 q 52 -1 122 -10 q -23 89 -23 8 q -20 114 -23 101 q 110 326 -7 182 q 296 542 278 532 q 322 549 307 549 q 340 539 340 550 q 289 451 340 526 q 190 307 207 334 q 83 88 92 154 q 107 47 77 47 q 302 162 160 47 q 471 318 428 263 q 486 325 477 325 q 503 311 503 325 q 493 293 503 302 m 479 625 q 472 620 477 620 l 432 620 l 427 623 q 372 712 400 663 q 225 613 322 679 q 215 620 220 613 q 213 630 211 626 q 393 753 220 641 q 400 756 396 756 q 406 751 402 756 q 477 631 417 736 q 479 625 479 626 "},"U":{"x_min":-8.625,"x_max":1839.03125,"ha":1476,"o":"m 1838 1119 q 1828 1090 1840 1115 q 1792 1023 1816 1065 q 1731 925 1768 982 q 1647 801 1694 869 q 1480 568 1536 646 q 1422 486 1425 490 l 1258 237 q 1216 171 1236 203 q 1186 116 1197 140 q 1177 79 1176 93 q 1200 67 1179 65 q 1219 78 1205 67 q 1250 100 1233 89 q 1287 119 1268 111 q 1322 119 1306 126 q 1350 96 1341 110 q 1359 69 1358 83 q 1353 41 1359 55 q 1337 16 1347 27 q 1252 -40 1306 -18 q 1145 -64 1197 -64 q 1118 -61 1136 -64 q 1081 -51 1101 -59 q 1044 -27 1062 -43 q 1016 15 1026 -11 q 1008 82 1006 42 q 1027 177 1009 122 q 871 69 945 113 q 736 -2 797 24 q 631 -44 676 -30 q 566 -61 587 -58 q 472 -55 511 -69 q 411 -16 434 -41 q 377 38 387 8 q 366 94 366 69 q 463 313 366 204 q 495 345 472 323 q 552 397 519 366 q 468 354 513 373 q 377 324 423 336 q 289 308 331 313 q 215 308 247 304 q 43 394 98 319 q -8 587 -12 469 q 22 726 -6 658 q 92 852 51 794 q 177 955 133 911 q 254 1023 220 1000 q 745 1182 483 1182 q 1015 1109 925 1182 q 1061 1053 1036 1093 q 1099 956 1087 1013 q 1097 823 1111 898 q 1026 661 1084 748 q 972 590 1004 627 q 906 514 941 552 q 834 438 870 475 q 768 371 798 401 q 717 320 738 341 q 688 291 695 298 q 634 217 658 254 q 595 151 609 180 q 581 100 581 121 q 600 75 581 79 q 643 89 604 73 q 741 137 681 105 q 873 214 801 168 q 1015 321 945 261 q 1219 525 1127 415 q 1384 742 1311 636 q 1515 943 1458 848 q 1615 1100 1573 1037 q 1639 1110 1619 1102 q 1684 1126 1659 1118 q 1732 1142 1709 1134 q 1763 1151 1755 1150 q 1807 1147 1783 1154 q 1838 1119 1831 1140 m 822 794 q 827 738 838 768 q 800 665 820 713 q 727 555 779 618 q 792 614 761 586 q 848 668 823 643 q 891 712 873 693 q 916 744 909 731 q 982 900 973 834 q 969 1001 991 965 q 917 1038 956 1022 q 815 1054 877 1054 q 667 1031 752 1054 q 477 950 581 1008 q 338 850 400 906 q 231 732 276 793 q 161 615 187 672 q 131 515 136 558 q 136 484 130 501 q 155 451 141 466 q 192 425 169 436 q 248 415 215 415 q 316 422 277 415 q 393 441 355 430 q 463 466 431 452 q 511 491 495 480 q 643 624 598 558 q 711 762 687 690 q 731 801 718 786 q 769 819 745 816 q 822 794 802 825 "},"Ñ":{"x_min":33,"x_max":2851.0625,"ha":2000,"o":"m 2851 1012 q 2839 988 2851 990 q 2820 1006 2827 987 q 2776 1050 2809 1031 q 2687 1070 2737 1072 q 2363 908 2544 1070 q 2082 594 2246 802 q 1777 179 1930 387 q 1549 -4 1634 -4 q 1510 4 1529 -4 q 1448 137 1448 33 q 1542 479 1448 275 q 766 -51 1163 59 q 485 -92 626 -92 q 210 -37 323 -92 q 48 141 85 23 q 33 233 33 187 q 194 521 33 392 q 651 721 359 656 q 976 758 810 758 q 1353 709 1170 758 q 1606 612 1502 670 l 1635 666 q 1842 1024 1749 891 q 1969 1143 1934 1156 q 1978 1122 1978 1137 q 1891 931 1978 1072 q 1776 768 1851 866 q 1639 591 1639 593 q 1721 518 1721 540 q 1719 512 1721 515 q 1664 531 1705 498 q 1619 562 1646 545 q 1508 178 1508 327 q 1574 65 1508 65 q 1752 226 1630 65 q 2042 613 1896 420 q 2333 952 2237 860 q 2717 1143 2549 1159 q 2814 1093 2773 1137 q 2851 1012 2851 1053 m 1588 580 q 1345 674 1501 635 q 974 719 1166 719 q 669 687 816 719 q 216 488 372 621 q 86 249 86 375 q 208 70 86 127 q 438 26 301 26 q 631 42 527 26 q 1142 232 869 81 q 1541 528 1394 371 q 1588 580 1564 553 m 2426 1263 q 2396 1215 2423 1235 q 2337 1195 2369 1195 q 2253 1219 2306 1196 q 2169 1243 2199 1243 q 2128 1224 2149 1243 q 2105 1205 2106 1205 q 2100 1212 2100 1205 q 2132 1265 2102 1240 q 2197 1290 2162 1290 q 2287 1261 2227 1290 q 2363 1233 2346 1233 q 2401 1251 2387 1233 q 2416 1270 2414 1270 q 2426 1263 2426 1270 "},"F":{"x_min":-5.5,"x_max":1222.78125,"ha":978,"o":"m 1151 1138 q 1222 948 1222 1069 q 1210 847 1222 901 q 1176 740 1199 794 q 1122 635 1154 687 q 1049 541 1089 584 q 1065 518 1058 526 q 1075 503 1071 510 q 1083 482 1079 495 q 1089 448 1086 470 q 1090 424 1090 438 q 1083 399 1089 410 q 1063 381 1076 388 q 1025 378 1049 374 q 1006 389 1014 380 q 988 410 997 399 q 969 428 979 420 q 945 437 958 437 q 906 401 935 427 q 838 341 876 376 q 756 268 799 306 q 675 196 713 230 q 610 139 638 163 q 578 107 583 114 q 495 -90 493 12 q 492 -105 495 -96 q 483 -124 489 -115 q 469 -141 478 -133 q 450 -150 461 -149 q 417 -144 430 -151 q 396 -122 404 -136 q 385 -92 388 -108 q 382 -58 382 -75 q 436 132 382 53 q 475 184 451 155 q 526 244 499 213 q 584 303 554 274 q 642 355 614 332 q 601 339 620 346 q 566 330 582 331 q 538 337 550 330 q 518 363 526 344 q 522 411 508 391 q 558 446 535 431 q 831 548 693 527 q 951 676 901 606 q 1031 814 1001 746 q 1071 937 1061 881 q 1071 1024 1081 994 q 1027 1074 1060 1057 q 948 1095 995 1091 q 847 1092 901 1099 q 740 1073 793 1085 q 642 1044 688 1060 q 568 1014 597 1028 q 500 974 540 1001 q 416 914 460 948 q 329 839 372 880 q 254 757 286 799 q 204 674 222 716 q 194 595 187 632 q 226 553 200 571 q 299 532 252 535 q 413 548 345 530 q 571 620 481 567 q 685 704 636 657 q 766 795 733 751 q 817 876 799 839 q 843 930 836 912 q 872 974 853 957 q 924 984 892 991 q 960 948 954 973 q 957 896 965 924 q 935 844 950 877 q 895 771 920 810 q 840 692 871 732 q 772 619 810 652 q 530 459 654 514 q 259 403 407 403 q 135 426 186 403 q 53 483 84 449 q 8 558 22 517 q -5 637 -5 599 q 17 757 -5 701 q 77 863 40 814 q 161 952 115 912 q 255 1024 208 992 q 345 1079 302 1056 q 416 1116 387 1102 q 874 1226 649 1226 q 1038 1204 968 1226 q 1151 1138 1107 1182 "},"*":{"x_min":436.515625,"x_max":658.28125,"ha":721,"o":"m 655 897 q 647 866 659 887 q 622 847 634 844 q 602 864 614 848 q 588 882 590 881 l 567 894 l 567 868 q 574 847 567 862 q 581 826 581 831 q 549 808 581 808 q 517 820 521 808 q 521 846 514 828 q 529 867 529 864 l 529 893 l 508 881 q 468 847 496 864 q 444 867 457 847 q 439 898 432 888 q 464 909 443 906 q 489 915 484 912 l 510 926 l 489 939 q 440 955 468 940 q 445 986 433 965 q 469 1007 457 1007 q 491 990 477 1007 q 508 970 504 973 l 529 959 l 529 981 q 523 1002 529 987 q 517 1024 517 1018 q 547 1043 517 1043 q 581 1024 581 1043 q 574 1002 581 1018 q 567 981 567 987 l 567 959 l 587 970 q 605 992 591 973 q 626 1007 618 1007 q 650 985 637 1005 q 654 950 664 959 q 628 942 648 944 q 605 938 608 940 l 584 926 l 605 915 q 655 897 627 912 "},"†":{"x_min":55,"x_max":935.546875,"ha":843,"o":"m 935 761 q 922 721 935 738 q 886 704 909 704 q 790 721 854 704 q 692 740 725 738 q 591 567 653 687 q 452 380 553 495 q 81 -99 291 195 l 55 -99 q 393 401 275 195 q 550 594 435 473 q 670 740 591 634 q 529 712 614 736 q 489 705 506 705 q 459 740 459 705 q 516 793 459 793 q 600 775 545 793 q 684 758 654 758 q 768 908 727 822 q 813 993 803 977 q 886 1043 848 1043 q 920 1018 920 1043 q 871 933 920 986 q 798 862 863 923 q 706 759 745 812 l 720 759 q 816 777 755 759 q 902 794 878 794 q 935 761 935 794 "},"å":{"x_min":8,"x_max":808,"ha":671,"o":"m 798 293 q 610 125 738 220 q 356 -1 427 -10 q 281 84 281 8 q 287 122 281 102 q 94 -1 176 -5 q 8 104 8 3 q 96 311 8 199 q 308 497 185 424 q 498 563 420 563 q 551 547 531 563 q 566 500 570 532 q 605 537 598 531 q 624 544 612 542 q 646 544 638 546 q 651 535 655 542 q 495 306 605 470 q 388 88 396 154 q 412 47 381 47 q 606 162 464 47 q 776 318 733 263 q 791 325 781 325 q 808 311 808 325 q 798 293 808 302 m 517 441 q 534 490 534 462 q 494 532 534 532 q 384 488 451 532 q 245 366 312 443 q 96 86 96 197 q 127 39 96 39 q 241 113 163 39 q 359 247 306 176 q 517 441 426 336 m 676 724 q 641 649 673 681 q 567 618 609 618 q 495 649 524 618 q 470 724 467 680 q 505 796 472 766 q 581 826 538 826 q 651 796 624 826 q 676 724 678 767 m 645 723 q 627 773 646 753 q 579 794 609 794 q 526 773 549 794 q 501 723 503 752 q 519 672 499 694 q 568 651 539 651 q 620 672 599 651 q 645 723 642 694 "},"0":{"x_min":15,"x_max":1078,"ha":1057,"o":"m 871 557 q 963 857 963 729 q 935 962 963 929 q 854 995 907 995 q 727 962 796 995 q 577 858 659 929 q 303 518 412 718 q 212 219 212 344 q 239 114 212 147 q 319 81 266 81 q 597 217 435 81 q 748 372 680 287 q 871 557 816 457 m 979 509 q 648 105 855 275 q 256 -65 436 -65 q 77 11 141 -65 q 15 203 15 82 q 113 548 15 358 q 258 766 176 666 q 445 950 341 866 q 836 1121 656 1121 q 1016 1046 950 1121 q 1063 961 1048 1009 q 1078 854 1078 912 q 979 509 1078 698 "},"":{"x_min":43,"x_max":1880.5,"ha":1900,"o":"m 1551 1187 q 1452 862 1551 1064 q 1241 642 1342 642 q 1183 671 1204 642 q 1164 734 1164 696 q 1173 798 1164 762 q 1098 673 1142 729 q 984 596 1037 596 q 935 625 953 596 q 922 683 922 650 q 983 898 922 759 q 1095 1099 1040 1025 q 1151 1138 1126 1138 q 1173 1111 1173 1138 q 1122 1017 1173 1096 q 1029 860 1055 910 q 979 701 979 762 q 1013 646 979 646 q 1254 1059 1090 646 q 1305 1110 1273 1110 q 1333 1084 1333 1110 q 1270 935 1333 1064 q 1208 747 1208 807 q 1247 689 1208 689 q 1378 837 1305 689 q 1457 1044 1431 944 q 1480 1172 1474 1104 q 1520 1231 1484 1231 q 1551 1187 1551 1231 m 931 850 q 902 822 931 833 q 856 811 879 816 q 790 565 831 668 q 745 526 774 526 q 724 543 724 526 q 754 661 724 563 q 793 790 773 726 q 626 716 706 756 q 518 502 590 645 q 481 475 504 475 q 461 490 461 475 q 559 680 461 518 q 497 647 499 647 q 491 655 491 647 q 587 725 491 673 q 711 925 638 822 q 865 1073 816 1073 q 890 1023 890 1073 q 866 854 890 980 q 915 865 904 865 q 931 850 931 865 m 1880 477 q 1841 418 1880 455 q 1779 379 1802 380 q 1714 294 1765 294 q 1654 320 1685 294 q 1624 376 1624 347 q 1722 393 1624 393 q 1727 458 1727 416 q 1714 575 1727 548 q 1628 441 1685 530 q 1463 282 1533 282 q 1425 323 1425 282 q 1484 501 1425 356 q 1256 253 1344 253 q 1225 282 1225 253 q 1263 396 1225 315 q 1301 488 1302 477 l 1301 490 l 1298 491 q 1218 393 1277 484 q 1147 272 1170 319 q 1122 220 1138 254 q 1102 208 1115 208 q 1070 229 1070 208 q 1111 349 1070 250 q 1152 479 1152 448 l 1152 483 l 1147 486 q 1138 480 1144 484 q 1005 305 1080 427 q 913 242 967 245 q 846 175 892 203 q 755 147 799 147 q 679 230 679 147 q 687 275 679 252 q 652 219 679 262 q 627 184 648 198 q 584 169 605 169 q 549 179 569 169 q 565 90 565 140 q 527 -64 565 8 q 406 -153 480 -153 q 365 -82 365 -153 q 460 263 365 23 q 622 594 548 483 q 666 625 642 625 q 693 598 693 625 q 559 336 693 537 q 514 266 543 313 q 461 93 495 232 q 428 -81 428 -45 q 434 -111 428 -111 q 502 1 475 -111 q 524 151 524 88 q 522 181 524 161 q 520 211 520 201 q 523 220 520 211 q 550 208 523 220 q 597 195 577 195 q 631 216 616 195 q 712 343 636 234 q 755 398 740 381 q 813 431 784 426 l 822 433 q 887 466 854 466 q 941 434 920 466 q 958 369 958 405 q 927 270 958 319 q 983 302 961 269 q 1076 443 1051 409 q 1193 543 1151 543 q 1212 520 1212 543 q 1158 350 1212 474 q 1351 563 1290 563 q 1369 539 1369 563 q 1331 421 1369 505 q 1293 317 1293 337 q 1301 311 1293 311 q 1398 400 1333 311 q 1479 521 1402 404 q 1515 576 1491 538 q 1544 642 1515 577 q 1455 601 1458 601 q 1449 609 1449 601 q 1559 683 1449 637 q 1591 761 1574 722 q 1653 808 1616 808 q 1660 804 1660 808 q 1624 708 1660 795 q 1733 750 1715 750 q 1743 734 1743 750 q 1686 686 1743 706 q 1605 661 1645 673 q 1538 494 1572 577 q 1490 334 1490 369 q 1496 322 1490 322 q 1639 487 1539 322 q 1752 652 1738 652 q 1780 568 1770 652 q 1787 462 1787 509 q 1783 402 1787 427 l 1787 402 q 1834 438 1808 408 q 1873 486 1854 462 q 1880 477 1880 486 m 627 958 q 594 909 627 924 q 599 927 599 918 q 591 932 599 932 q 524 912 573 932 l 531 908 q 424 544 462 632 q 180 284 331 328 q 147 282 166 282 q 80 299 111 282 q 43 354 43 320 q 63 381 43 381 q 97 358 72 381 q 154 336 122 336 q 176 340 163 336 q 380 570 295 370 q 466 886 441 712 q 399 851 441 877 l 384 841 q 370 859 370 841 q 467 942 370 892 q 598 990 558 990 q 627 958 627 990 m 1719 370 q 1660 359 1660 370 q 1674 336 1660 351 q 1698 322 1689 322 q 1719 370 1711 322 m 823 961 q 816 986 823 986 q 652 765 794 986 q 804 834 738 809 q 823 961 823 915 m 905 376 q 872 429 905 429 q 831 404 845 429 q 818 351 818 380 q 880 273 818 287 q 905 376 905 330 m 861 242 q 790 336 790 255 q 798 380 790 358 q 737 248 737 306 q 781 183 737 183 q 861 242 824 183 "},"”":{"x_min":402.828125,"x_max":780.890625,"ha":783,"o":"m 780 1053 q 709 934 776 987 q 575 882 641 882 q 566 891 565 882 q 576 898 566 900 q 667 927 609 893 q 728 989 725 961 q 707 1000 728 996 q 661 1055 658 1009 q 682 1097 662 1079 q 723 1117 701 1115 q 766 1099 751 1117 q 780 1053 782 1082 m 616 1053 q 545 934 612 987 q 411 882 478 882 q 403 891 401 882 q 412 898 403 900 q 503 927 446 893 q 564 989 561 961 q 543 1000 564 996 q 497 1055 494 1009 q 518 1097 498 1079 q 559 1117 537 1115 q 603 1099 587 1117 q 616 1053 618 1082 "},"ö":{"x_min":-8,"x_max":780.890625,"ha":644,"o":"m 775 298 q 573 142 664 165 q 501 131 535 131 q 418 152 453 131 q 251 26 339 74 q 94 -21 162 -21 q -8 79 -8 -21 q 65 269 -8 161 q 271 474 147 389 q 488 560 395 560 q 591 460 591 560 q 517 270 591 378 q 448 184 486 225 q 508 166 479 166 q 569 177 535 166 q 746 315 650 201 q 765 325 755 325 q 780 311 780 325 q 775 298 780 304 m 493 311 q 545 458 545 398 q 488 522 545 522 q 333 451 425 522 q 174 280 242 380 q 102 100 102 173 q 160 37 102 37 q 385 173 253 37 q 347 241 347 203 q 375 297 347 274 q 450 322 408 322 q 493 311 478 322 m 646 680 q 605 643 643 643 q 570 680 567 643 q 610 718 572 718 q 646 680 648 718 m 502 680 q 461 643 499 643 q 426 680 423 643 q 466 718 428 718 q 502 680 504 718 "},"Õ":{"x_min":18,"x_max":1086,"ha":950,"o":"m 959 1119 q 1051 1024 1017 1099 q 1086 844 1086 950 q 892 316 1086 569 q 599 42 761 144 q 297 -60 437 -60 q 122 -4 195 -60 q 18 241 18 73 q 188 702 18 472 q 641 1084 413 1008 q 672 1084 663 1091 q 649 1062 686 1074 q 491 965 590 1043 q 248 702 347 854 q 125 307 125 512 q 244 42 125 107 q 369 12 300 12 q 851 323 606 12 q 1050 844 1050 576 q 1021 1006 1050 940 q 944 1088 993 1072 q 888 1098 918 1098 q 601 876 749 1098 q 522 655 522 757 q 553 576 522 594 q 595 567 573 567 q 767 691 687 567 q 801 718 790 725 q 801 677 819 709 q 709 579 773 626 q 572 525 637 525 q 507 543 536 525 q 446 677 446 579 q 495 854 446 768 q 676 1051 564 972 q 891 1131 788 1131 q 959 1119 927 1131 m 1072 1263 q 1043 1215 1070 1235 q 984 1195 1016 1195 q 899 1219 953 1195 q 815 1243 845 1243 q 774 1224 797 1243 q 751 1205 752 1205 q 747 1212 745 1205 q 778 1265 748 1240 q 844 1290 809 1290 q 933 1261 873 1290 q 1010 1233 992 1233 q 1047 1251 1033 1233 q 1063 1270 1060 1270 q 1072 1263 1073 1270 "},"№":{"x_min":33,"x_max":2851.0625,"ha":2685,"o":"m 2851 1012 q 2839 989 2851 990 q 2820 1007 2827 987 q 2776 1050 2809 1032 q 2687 1071 2737 1072 q 2363 908 2544 1071 q 2083 594 2246 802 q 1777 178 1930 387 q 1549 -4 1634 -4 q 1510 3 1530 -4 q 1448 137 1448 33 q 1543 479 1448 274 q 766 -51 1163 59 q 485 -92 626 -92 q 210 -37 323 -92 q 48 141 85 23 q 33 233 33 187 q 194 522 33 393 q 651 722 359 657 q 976 759 810 759 q 1353 710 1170 759 q 1606 613 1502 671 l 1635 667 q 1842 1024 1749 892 q 1969 1142 1934 1156 q 1978 1121 1978 1137 q 1891 932 1978 1072 q 1776 768 1851 867 q 1639 592 1639 593 q 1721 518 1721 540 q 1719 513 1721 515 q 1664 532 1705 499 q 1619 563 1646 546 q 1508 179 1508 328 q 1574 65 1508 65 q 1752 227 1630 65 q 2042 613 1896 420 q 2333 950 2237 858 q 2717 1140 2549 1156 q 2814 1091 2773 1134 q 2851 1012 2851 1052 m 1588 580 q 1345 675 1501 636 q 974 720 1166 720 q 669 688 816 720 q 216 489 372 622 q 86 249 86 376 q 208 70 86 127 q 438 26 301 26 q 631 42 527 26 q 1142 233 869 81 q 1541 529 1394 372 q 1588 580 1565 554 m 2816 637 q 2659 569 2731 569 q 2547 602 2619 569 q 2438 634 2476 634 q 2322 573 2384 634 l 2297 606 q 2438 677 2368 677 q 2550 645 2479 677 q 2659 612 2622 612 q 2787 670 2720 612 l 2816 637 m 2684 823 q 2649 748 2681 780 q 2575 717 2618 717 q 2503 748 2532 717 q 2478 823 2475 779 q 2514 895 2480 865 q 2589 925 2547 925 q 2660 895 2632 925 q 2684 823 2688 866 m 2652 822 q 2636 872 2655 852 q 2587 893 2616 893 q 2534 872 2558 893 q 2508 822 2511 851 q 2527 771 2506 793 q 2577 749 2547 749 q 2629 771 2606 749 q 2652 822 2651 793 "},"]":{"x_min":-200,"x_max":1034.71875,"ha":794,"o":"m 1034 1191 q 562 451 797 818 q 90 -289 327 83 l -200 -289 q -156 -223 -177 -255 q -115 -157 -136 -190 l -1 -157 q 386 454 193 149 q 775 1065 580 758 l 661 1065 q 702 1128 681 1096 q 743 1191 722 1159 l 1034 1191 "},"А":{"x_min":40.96875,"x_max":1863.390625,"ha":1650,"o":"m 1852 1046 q 1570 591 1718 851 q 1628 555 1607 572 q 1639 522 1649 537 q 1614 519 1628 507 q 1552 559 1593 537 q 1457 380 1496 459 q 1362 90 1362 184 q 1435 9 1362 9 q 1548 64 1502 9 q 1566 75 1559 77 q 1562 48 1580 72 q 1505 2 1545 25 q 1412 -23 1456 -23 q 1357 -12 1382 -23 q 1272 120 1272 30 q 1319 307 1272 193 q 1485 591 1355 393 q 1295 654 1388 632 q 1049 380 1173 518 q 775 126 898 216 q 449 -26 614 8 q 353 -36 405 -36 q 146 18 228 -36 q 41 218 43 84 q 277 541 38 396 q 779 710 495 675 q 984 724 884 724 q 1273 695 1134 724 q 1678 1064 1610 1019 q 1807 1117 1756 1117 q 1863 1076 1863 1117 q 1852 1046 1863 1061 m 1823 1086 q 1807 1088 1817 1088 q 1721 1058 1777 1088 q 1323 683 1630 1005 q 1505 622 1419 659 q 1712 911 1594 755 q 1823 1054 1799 1026 q 1823 1086 1842 1076 m 1242 666 q 985 692 1118 692 q 702 665 849 692 q 287 509 471 622 q 79 241 79 382 q 80 212 79 227 q 295 68 105 68 q 466 94 377 68 q 773 245 624 140 q 1038 471 882 320 l 1242 666 "},"8":{"x_min":19.390625,"x_max":1017.4375,"ha":975,"o":"m 1016 866 q 879 637 1004 724 q 840 612 859 623 q 801 590 822 601 q 754 570 780 580 q 695 551 729 560 q 733 374 731 452 q 715 234 734 295 q 665 129 697 173 q 604 56 634 86 q 315 -57 481 -57 q 104 11 186 -57 q 20 222 8 91 q 53 351 26 292 q 131 458 80 410 q 258 541 181 505 q 440 605 334 577 q 415 670 425 642 q 401 721 405 698 q 396 766 397 745 q 398 810 395 787 q 437 923 409 874 q 518 1017 465 973 q 763 1101 618 1101 q 943 1046 869 1101 q 1016 866 1025 980 m 881 850 q 877 915 888 879 q 827 973 866 952 q 780 985 806 984 q 727 979 754 986 q 677 961 701 972 q 640 938 654 950 q 594 876 612 915 q 588 791 576 837 q 601 753 595 769 q 612 722 606 737 q 625 693 618 708 q 641 661 631 679 q 727 695 690 679 q 793 731 763 711 q 843 779 822 751 q 881 850 865 806 m 555 312 q 545 401 555 355 q 500 498 534 448 q 241 388 323 458 q 150 217 159 319 q 188 102 144 145 q 320 61 234 61 q 483 125 420 61 q 555 312 545 190 "},"R":{"x_min":12.5,"x_max":1453.578125,"ha":1163,"o":"m 556 708 q 379 531 461 644 q 209 262 297 419 q 177 197 191 230 q 152 136 162 163 q 138 90 141 109 q 138 68 134 72 q 165 85 141 62 q 231 161 190 108 q 326 296 272 213 q 444 491 380 379 q 479 554 465 529 q 504 600 493 579 q 527 646 515 622 q 556 708 538 670 m 861 527 q 838 550 862 541 q 785 563 815 559 q 731 565 755 568 q 709 554 706 563 q 727 536 705 545 q 779 522 750 527 q 834 516 808 516 q 861 527 859 516 m 1240 776 q 1252 836 1250 804 q 1241 895 1255 868 q 1192 939 1227 922 q 1090 956 1156 956 q 979 944 1033 956 q 879 915 925 931 q 802 881 834 898 q 755 854 769 863 q 708 747 731 797 q 662 650 684 697 q 695 659 679 656 q 727 663 712 662 q 881 643 816 672 q 998 573 945 613 q 1047 593 1013 577 q 1119 636 1081 609 q 1190 697 1156 662 q 1240 776 1225 731 m 1291 1113 q 1402 1038 1363 1084 q 1450 938 1440 993 q 1443 827 1459 884 q 1387 715 1426 769 q 1302 617 1350 662 q 1210 537 1255 572 q 1127 481 1165 502 q 1072 454 1090 459 q 1077 392 1083 436 q 1055 295 1072 348 q 1014 187 1038 243 q 963 90 990 131 q 949 53 954 75 q 956 26 944 31 q 1006 38 986 15 q 1047 100 1026 62 q 1086 145 1062 127 q 1137 145 1109 162 q 1166 100 1168 130 q 1150 43 1165 70 q 1052 -61 1116 -19 q 1007 -83 1037 -72 q 942 -97 977 -94 q 869 -93 906 -101 q 800 -56 831 -86 q 756 12 765 -26 q 753 88 747 51 q 776 158 759 126 q 808 206 793 190 q 860 268 837 236 q 898 330 883 301 q 920 383 913 359 q 922 419 926 406 q 880 417 906 416 q 822 421 854 418 q 756 430 790 425 q 694 444 722 436 q 629 472 654 455 q 591 508 604 488 q 579 486 584 497 q 568 463 575 475 q 311 54 425 194 q 119 -84 197 -84 q 37 -49 62 -84 q 12 48 12 -13 q 104 331 12 162 q 368 687 200 512 q 501 815 433 756 q 650 927 569 873 q 662 959 654 937 q 679 1006 670 981 q 695 1055 687 1031 q 708 1093 704 1079 q 738 1134 718 1122 q 780 1143 759 1147 q 804 1136 793 1141 q 825 1120 816 1131 q 836 1090 833 1109 q 833 1043 838 1072 q 882 1065 850 1052 q 955 1091 915 1079 q 1041 1114 995 1104 q 1133 1129 1087 1125 q 1220 1130 1179 1133 q 1291 1113 1261 1127 "},"o":{"x_min":-43,"x_max":815.34375,"ha":644,"o":"m 482 358 q 503 411 497 386 q 510 458 508 437 q 487 489 510 489 q 437 475 471 491 q 364 432 404 459 q 287 370 325 405 q 225 298 250 334 q 154 177 173 222 q 135 101 135 132 q 160 71 135 71 q 198 75 179 71 q 237 90 216 79 q 282 120 258 101 q 336 169 307 139 q 315 206 318 183 q 317 252 312 229 q 333 294 322 275 q 354 322 344 314 q 405 353 376 339 q 482 358 435 368 m 801 275 q 583 107 684 133 q 550 100 572 104 q 505 96 529 97 q 459 97 482 94 q 422 108 436 100 q 348 47 384 72 q 266 -2 312 22 q 93 -54 172 -54 q -43 77 -43 -54 q -39 127 -43 101 q -23 188 -36 154 q 13 264 -11 222 q 82 361 38 307 q 184 464 127 421 q 295 537 240 508 q 402 580 351 566 q 487 591 452 593 q 623 458 623 591 q 544 248 623 365 q 513 210 529 225 q 508 196 498 196 q 532 198 519 196 q 559 205 544 201 q 722 336 632 229 q 766 357 743 357 q 815 309 815 357 q 801 275 815 289 "},"5":{"x_min":-26.03125,"x_max":1210.4375,"ha":969,"o":"m 1195 1062 q 1210 1025 1211 1043 q 1198 991 1209 1007 q 1161 950 1181 968 q 1110 916 1140 932 q 1038 887 1080 900 q 941 862 997 875 q 866 855 912 857 q 771 853 820 853 q 676 855 722 853 q 602 859 630 857 q 581 834 588 843 q 564 814 573 825 q 540 786 555 804 q 500 733 526 768 q 617 714 562 740 q 718 639 672 687 q 798 401 811 540 q 611 61 781 194 q 247 -62 454 -62 q 47 14 127 -62 q -25 216 -34 94 q 16 323 -20 271 q 125 380 58 380 q 187 359 159 380 q 218 304 215 339 q 215 260 219 283 q 181 218 211 237 q 130 200 150 198 q 111 196 111 203 q 147 94 108 133 q 252 53 181 55 q 498 164 398 48 q 608 421 594 269 q 605 468 609 440 q 588 524 601 497 q 554 573 576 551 q 502 604 533 596 q 439 607 476 611 q 384 593 402 603 q 332 576 361 580 q 284 578 304 572 q 261 590 268 580 q 254 611 255 600 q 256 636 252 623 q 297 685 268 648 q 363 770 326 722 q 443 871 401 818 q 518 967 484 923 q 575 1040 552 1011 q 600 1071 598 1069 q 675 1089 626 1104 q 694 1075 684 1084 q 712 1055 704 1066 q 726 1046 713 1053 q 759 1034 738 1040 q 805 1025 779 1029 q 861 1021 831 1021 q 971 1023 929 1021 q 1040 1032 1013 1026 q 1086 1048 1068 1039 q 1127 1069 1105 1057 q 1195 1062 1162 1087 "},"Ѕ":{"x_min":44,"x_max":1449.21875,"ha":1178,"o":"m 1449 1058 q 1422 1010 1449 1033 q 1370 981 1396 988 q 1332 994 1340 974 q 1350 1012 1327 1008 q 1400 1055 1400 1020 q 1397 1067 1400 1060 q 1289 1097 1386 1097 q 1152 1074 1220 1097 q 949 856 949 1009 q 1006 706 949 791 q 1110 566 1057 635 q 1156 417 1162 484 q 1007 153 1140 271 q 697 -5 883 44 q 479 -35 590 -35 q 213 15 327 -35 q 59 156 95 67 q 44 230 44 194 q 289 482 44 391 q 668 539 442 539 q 902 522 812 539 q 939 498 948 513 q 892 487 931 481 q 806 493 856 493 q 360 404 577 493 q 137 185 137 313 q 144 147 137 166 q 263 42 167 80 q 485 4 359 4 q 690 31 592 4 q 988 192 879 85 q 1093 410 1093 295 q 1041 534 1093 458 q 944 675 993 605 q 891 835 891 763 q 904 906 891 871 q 1070 1082 944 1024 q 1277 1130 1160 1124 q 1378 1119 1328 1132 q 1449 1058 1449 1101 "},"õ":{"x_min":-8,"x_max":780.890625,"ha":644,"o":"m 775 298 q 573 142 664 165 q 501 131 535 131 q 418 152 453 131 q 251 26 339 74 q 94 -21 162 -21 q -8 79 -8 -21 q 65 269 -8 161 q 271 474 147 389 q 488 560 395 560 q 591 460 591 560 q 517 270 591 378 q 448 184 486 225 q 508 166 479 166 q 569 177 535 166 q 746 315 650 201 q 765 325 755 325 q 780 311 780 325 q 775 298 780 304 m 493 311 q 545 458 545 398 q 488 522 545 522 q 333 451 425 522 q 174 280 242 380 q 102 100 102 173 q 160 37 102 37 q 385 173 253 37 q 347 241 347 203 q 375 297 347 274 q 450 322 408 322 q 493 311 478 322 m 718 708 q 689 660 716 680 q 630 640 662 640 q 545 664 598 640 q 461 688 491 688 q 420 669 441 688 q 397 650 398 650 q 392 656 392 650 q 425 709 394 684 q 489 735 455 735 q 579 706 519 735 q 656 678 638 678 q 693 696 679 678 q 708 715 706 715 q 718 708 718 715 "},",":{"x_min":39.828125,"x_max":254,"ha":340,"o":"m 253 49 q 182 -69 249 -16 q 48 -122 115 -122 q 40 -112 38 -122 q 49 -105 40 -103 q 140 -75 83 -109 q 201 -14 198 -41 q 180 -3 201 -7 q 134 51 131 5 q 155 94 135 76 q 196 113 174 113 q 240 96 224 113 q 253 49 255 79 "},"d":{"x_min":-26.390625,"x_max":1086.109375,"ha":669,"o":"m 456 473 q 440 473 447 473 q 425 470 433 473 q 406 460 418 468 q 373 437 394 452 q 225 290 291 375 q 177 227 200 258 q 140 168 155 195 q 122 117 126 140 q 129 77 118 94 q 148 80 133 72 q 186 106 163 88 q 234 148 208 123 q 283 202 259 173 q 336 282 305 236 q 393 371 366 329 q 439 443 420 413 q 456 473 458 473 m 973 1048 q 925 995 962 1048 q 813 830 888 943 q 765 755 788 791 q 725 693 741 719 q 703 652 709 666 q 708 644 697 638 q 736 676 720 658 q 809 766 765 709 q 871 850 841 809 q 927 936 901 891 q 967 1004 955 984 q 980 1036 979 1025 q 980 1045 980 1041 q 973 1048 980 1048 m 1086 1087 q 1036 937 1086 1029 q 891 718 987 844 q 738 534 833 643 q 506 281 643 425 q 468 209 486 243 q 438 148 450 174 q 425 104 427 122 q 429 80 422 86 q 475 102 431 77 q 586 183 518 127 q 754 337 698 275 q 794 354 770 354 q 841 305 841 354 q 826 266 841 286 q 743 185 790 226 q 637 99 695 144 q 479 -3 548 31 q 366 -39 411 -39 q 341 -37 355 -39 q 311 -29 327 -36 q 278 -9 295 -23 q 243 29 261 4 q 166 -24 198 -9 q 97 -39 134 -39 q 20 -11 56 -39 q -26 101 -26 26 q 95 358 -26 215 q 316 539 193 475 q 378 565 343 552 q 445 586 413 577 q 502 600 477 595 q 531 600 526 604 l 700 862 q 871 1094 794 1014 q 1001 1174 948 1174 q 1086 1087 1086 1174 "},"\"":{"x_min":164,"x_max":543.28125,"ha":546,"o":"m 543 1053 q 470 934 537 987 q 337 882 404 882 q 327 891 327 882 q 339 898 329 900 q 429 927 372 893 q 489 989 487 961 q 469 1000 490 996 q 423 1055 419 1009 q 444 1097 425 1079 q 486 1117 464 1115 q 529 1099 514 1117 q 543 1053 544 1082 m 379 1053 q 307 934 373 987 q 173 882 240 882 q 164 891 164 882 q 175 898 165 900 q 266 927 208 893 q 325 989 323 961 q 305 1000 326 996 q 259 1055 255 1009 q 280 1097 261 1079 q 322 1117 300 1115 q 365 1099 350 1117 q 379 1053 380 1082 "},"˙":{"x_min":139,"x_max":291.78125,"ha":401,"o":"m 189 1153 q 139 1205 139 1153 q 171 1278 139 1243 q 241 1313 204 1313 q 291 1260 291 1313 q 259 1187 291 1221 q 189 1153 227 1153 "},"ê":{"x_min":18,"x_max":704.109375,"ha":567,"o":"m 698 323 q 691 287 712 312 q 479 104 624 208 q 163 -19 304 -19 q 74 3 111 -19 q 18 114 18 39 q 149 375 18 238 q 329 510 230 457 q 494 563 427 563 q 557 525 557 563 q 493 416 557 487 q 373 311 436 355 q 146 209 266 234 q 133 132 133 166 q 167 54 133 79 q 240 34 198 34 q 458 124 331 34 q 663 308 580 212 q 698 323 687 333 m 500 532 q 391 490 462 532 q 252 380 316 445 q 162 245 198 325 q 352 337 257 270 q 469 436 414 380 q 524 516 524 491 q 500 532 524 532 m 618 616 q 611 612 615 612 l 570 612 l 563 615 q 511 704 538 655 q 363 605 461 670 q 354 611 358 605 q 351 622 349 618 q 531 744 358 633 q 538 747 534 747 q 544 742 540 747 q 615 623 555 727 q 618 616 618 618 "},"„":{"x_min":39.828125,"x_max":417.890625,"ha":560,"o":"m 417 49 q 346 -69 413 -16 q 212 -122 278 -122 q 203 -112 202 -122 q 213 -105 203 -103 q 304 -75 246 -109 q 365 -14 362 -41 q 344 -3 365 -7 q 298 51 295 5 q 319 94 299 76 q 360 113 338 113 q 403 96 388 113 q 417 49 419 79 m 253 49 q 182 -69 249 -16 q 48 -122 115 -122 q 40 -112 38 -122 q 49 -105 40 -103 q 140 -75 83 -109 q 201 -14 198 -41 q 180 -3 201 -7 q 134 51 131 5 q 155 94 135 76 q 196 113 174 113 q 240 96 224 113 q 253 49 255 79 "},"ч":{"x_min":26.265625,"x_max":608.328125,"ha":521,"o":"m 602 245 q 473 134 606 242 q 186 -5 306 0 q 72 65 72 -9 q 168 212 72 135 q 262 277 211 245 q 343 328 320 312 q 408 415 413 381 q 380 449 404 434 q 331 473 355 460 q 301 495 315 481 q 191 362 263 449 q 66 230 109 266 q 40 217 51 217 q 26 227 27 217 q 38 249 25 238 q 173 395 66 273 q 273 530 268 503 q 268 576 262 552 q 315 622 280 622 q 348 574 355 622 q 325 530 344 552 q 355 506 327 523 q 412 474 383 488 q 444 409 448 449 q 356 270 438 360 q 213 117 284 194 q 186 42 176 73 q 198 34 188 35 q 301 63 229 28 q 448 156 373 98 q 570 262 548 233 q 591 273 580 273 q 608 258 608 273 q 602 245 608 252 "},"Â":{"x_min":40.96875,"x_max":1949.328125,"ha":1650,"o":"m 1852 1046 q 1570 591 1718 851 q 1628 554 1607 572 q 1639 522 1649 537 q 1614 519 1628 506 q 1552 559 1593 537 q 1457 380 1496 459 q 1362 89 1362 184 q 1435 9 1362 9 q 1547 63 1502 9 q 1566 75 1559 77 q 1562 48 1579 72 q 1504 2 1545 24 q 1412 -24 1456 -24 q 1357 -12 1382 -24 q 1272 120 1272 30 q 1319 306 1272 192 q 1485 591 1355 392 q 1295 654 1388 631 q 1049 380 1172 518 q 775 126 897 216 q 449 -26 614 8 q 353 -36 404 -36 q 146 18 228 -36 q 41 218 43 84 q 277 541 38 396 q 779 710 495 675 q 984 724 884 724 q 1272 694 1134 724 q 1678 1064 1610 1019 q 1807 1117 1756 1117 q 1863 1076 1863 1117 q 1852 1046 1863 1061 m 1822 1086 q 1807 1089 1817 1089 q 1721 1058 1777 1089 q 1322 683 1629 1005 q 1504 622 1418 659 q 1711 911 1593 755 q 1822 1054 1799 1026 q 1822 1086 1842 1076 m 1242 666 q 985 692 1118 692 q 702 665 849 692 q 287 509 471 622 q 79 241 79 382 q 80 212 79 227 q 295 68 105 68 q 466 94 377 68 q 773 245 624 140 q 1038 471 882 320 l 1242 666 m 1949 1173 q 1943 1169 1946 1169 l 1903 1169 l 1896 1172 q 1843 1261 1870 1212 q 1696 1162 1793 1227 q 1686 1168 1690 1162 q 1684 1179 1681 1174 q 1864 1301 1690 1190 q 1871 1304 1867 1304 q 1875 1299 1872 1304 q 1946 1180 1886 1284 q 1949 1173 1949 1175 "},"´":{"x_min":120.765625,"x_max":333.71875,"ha":285,"o":"m 333 1195 q 311 1162 332 1174 q 182 1101 266 1142 q 132 1075 165 1091 q 129 1075 130 1075 q 126 1075 127 1075 q 121 1083 119 1075 q 125 1088 121 1084 q 276 1219 182 1141 q 304 1228 287 1228 q 333 1195 336 1228 "},"Í":{"x_min":18,"x_max":1444.609375,"ha":1192,"o":"m 1333 1113 q 1379 982 1379 1078 q 1262 599 1379 819 q 928 189 1133 355 q 593 -2 772 61 q 617 -69 601 -27 q 601 -92 623 -92 q 581 -78 586 -92 q 559 -14 574 -57 q 295 -53 438 -53 q 33 52 84 -53 q 18 120 18 83 q 90 289 18 219 q 169 328 131 328 q 211 289 211 328 q 199 256 211 271 q 170 242 187 242 q 161 242 165 242 q 83 213 116 255 q 56 122 56 175 q 76 54 56 82 q 201 8 112 8 q 529 92 326 8 q 515 264 512 171 q 712 830 527 582 q 966 1060 817 971 q 1223 1144 1106 1144 q 1333 1113 1290 1144 m 1300 1092 q 1218 1115 1268 1115 q 975 1027 1114 1115 q 733 806 836 939 q 612 576 661 709 q 553 273 559 428 q 564 108 547 189 q 961 366 791 210 q 1233 701 1123 516 q 1339 998 1339 881 q 1300 1092 1339 1065 m 1444 1328 q 1422 1294 1443 1307 q 1293 1234 1377 1275 q 1243 1208 1276 1225 q 1240 1208 1241 1208 q 1237 1206 1238 1206 q 1231 1215 1230 1206 q 1236 1220 1231 1216 q 1386 1351 1293 1273 q 1415 1360 1398 1360 q 1444 1328 1447 1360 "},"Ú":{"x_min":29,"x_max":1797.140625,"ha":1476,"o":"m 1797 1111 q 1611 830 1801 1098 q 1386 515 1391 523 q 1222 266 1304 389 q 1132 68 1132 123 q 1173 30 1132 30 q 1284 74 1236 30 q 1313 86 1304 93 q 1304 51 1326 76 q 1236 6 1283 26 q 1146 -14 1189 -14 q 1083 9 1104 -14 q 1063 73 1063 33 q 1198 394 1063 170 q 1090 297 1145 341 q 530 -14 714 -14 q 473 -2 498 -14 q 410 101 410 26 q 496 292 410 195 q 719 493 559 364 q 922 689 862 610 q 1022 934 1022 819 q 966 1057 1022 1013 q 815 1101 910 1101 q 458 989 656 1101 q 201 768 309 907 q 93 520 93 630 q 111 448 93 478 q 251 380 149 380 q 423 416 327 380 q 558 488 506 448 q 751 756 702 598 q 774 783 758 781 q 788 777 783 784 q 788 756 792 769 q 741 638 767 683 q 577 464 688 549 q 433 387 519 420 q 251 351 334 351 q 70 438 123 351 q 29 591 29 506 q 90 796 29 694 q 280 992 156 906 q 745 1144 496 1144 q 988 1080 909 1144 q 1055 924 1055 1027 q 964 659 1055 796 q 820 489 913 581 q 658 324 698 370 q 528 85 528 170 q 579 30 528 30 q 834 146 652 30 q 1075 321 975 237 q 1322 587 1236 458 q 1644 1075 1476 823 q 1695 1094 1649 1079 q 1767 1114 1740 1109 q 1797 1111 1794 1118 m 1527 1300 q 1504 1266 1524 1277 q 1374 1206 1459 1247 q 1324 1180 1358 1195 q 1322 1179 1323 1180 q 1319 1179 1322 1179 q 1313 1187 1312 1179 q 1317 1193 1313 1188 q 1469 1323 1374 1245 q 1497 1332 1480 1332 q 1527 1300 1529 1332 "},"Ý":{"x_min":15,"x_max":1457,"ha":1461,"o":"m 1457 574 q 1355 250 1457 449 q 1030 -181 1234 10 q 687 -434 876 -326 q 360 -551 482 -551 q 255 -506 287 -551 q 244 -467 244 -490 q 323 -342 244 -412 q 534 -217 402 -272 q 887 -145 705 -145 q 1006 -152 951 -145 q 1306 234 1181 8 q 1418 548 1418 439 q 1387 603 1418 603 q 1252 498 1352 603 q 1069 309 1090 329 q 791 96 927 182 q 515 -15 618 -15 q 458 -3 483 -15 q 396 100 396 25 q 481 291 396 194 q 705 492 544 362 q 907 689 849 607 q 1002 932 1002 818 q 951 1058 1002 1011 q 802 1106 900 1106 q 443 990 642 1106 q 191 769 300 908 q 80 518 80 626 q 96 449 80 478 q 237 381 134 381 q 407 417 313 381 q 544 489 491 448 q 737 756 688 598 q 760 783 744 781 q 774 777 769 784 q 774 756 778 769 q 727 639 753 683 q 563 465 673 550 q 419 388 505 421 q 237 352 320 352 q 56 439 109 352 q 15 590 15 507 q 76 796 15 693 q 266 993 142 906 q 734 1149 484 1149 q 974 1080 901 1149 q 1040 917 1040 1022 q 951 660 1040 785 q 804 492 897 585 q 644 325 687 375 q 514 86 514 171 q 564 31 514 31 q 813 155 634 31 q 1048 344 957 255 q 1332 619 1163 457 q 1395 649 1363 649 q 1457 574 1457 649 m 977 -179 q 884 -174 931 -174 q 588 -228 723 -174 q 401 -340 473 -275 q 329 -457 329 -405 q 387 -507 329 -507 q 634 -425 476 -507 q 977 -179 813 -330 m 1441 1211 q 1417 1177 1440 1188 q 1288 1118 1374 1158 q 1240 1091 1271 1106 q 1237 1090 1238 1090 q 1234 1090 1235 1090 q 1227 1098 1227 1090 q 1233 1104 1227 1100 q 1383 1234 1290 1155 q 1412 1243 1395 1243 q 1441 1211 1444 1243 "},"И":{"x_min":29,"x_max":1796.8125,"ha":1476,"o":"m 1796 1111 q 1610 831 1800 1099 q 1385 515 1391 524 q 1221 267 1303 390 q 1131 69 1131 124 q 1173 31 1131 31 q 1284 75 1235 31 q 1313 86 1303 93 q 1304 51 1325 76 q 1235 6 1282 26 q 1145 -14 1188 -14 q 1082 9 1103 -14 q 1062 73 1062 33 q 1198 394 1062 170 q 1089 297 1145 341 q 530 -15 713 -15 q 473 -3 498 -15 q 410 100 410 25 q 496 291 410 194 q 719 493 559 363 q 922 688 862 609 q 1022 934 1022 819 q 966 1057 1022 1013 q 815 1101 910 1101 q 458 989 656 1101 q 201 768 309 907 q 93 520 93 630 q 111 448 93 478 q 251 380 149 380 q 423 416 327 380 q 558 488 506 448 q 751 756 702 598 q 774 782 758 781 q 788 776 783 784 q 788 756 793 768 q 741 638 768 682 q 577 464 688 549 q 433 386 519 420 q 251 351 334 351 q 70 438 123 351 q 29 591 29 506 q 90 796 29 694 q 280 992 156 906 q 745 1144 496 1144 q 988 1080 909 1144 q 1055 924 1055 1027 q 964 659 1055 797 q 820 490 913 581 q 658 325 698 371 q 528 86 528 171 q 579 31 528 31 q 834 147 652 31 q 1074 322 974 237 q 1321 587 1235 458 q 1643 1075 1475 824 q 1694 1094 1649 1079 q 1767 1114 1739 1110 q 1796 1111 1793 1118 "},"р":{"x_min":-493.5,"x_max":723.171875,"ha":657,"o":"m 717 225 q 585 118 720 212 q 459 33 494 53 q 289 -19 369 -17 q 132 15 185 -23 q 64 139 80 54 q 36 93 49 115 q 12 54 23 72 q -105 -128 -47 -42 q -222 -291 -164 -214 q -461 -519 -393 -519 q -493 -481 -493 -519 q -118 69 -493 -370 q -11 192 -76 119 q 144 362 53 265 q 219 490 192 447 q 248 538 245 534 q 289 547 256 548 q 321 535 324 544 q 292 490 319 533 q 450 557 381 557 q 495 549 475 557 q 544 448 544 525 q 513 298 544 385 q 484 230 499 262 q 453 172 470 198 q 314 26 394 77 q 406 47 353 26 q 571 146 489 80 q 688 241 710 258 q 707 252 699 252 q 723 239 723 252 q 717 225 723 230 m 438 522 q 229 391 380 522 l 95 186 q 106 101 91 141 q 166 50 124 50 q 369 212 249 50 q 479 470 479 363 q 438 522 479 522 m 75 241 q -84 52 -9 151 q -206 -103 -147 -26 q -329 -259 -266 -180 q -436 -434 -436 -402 q -427 -448 -436 -448 q -238 -244 -393 -448 q -119 -78 -170 -152 q -31 58 -68 -4 q 9 130 -16 84 q 75 241 36 175 "},"т":{"x_min":-112.59375,"x_max":1018.609375,"ha":936,"o":"m 1009 239 q 895 139 1008 225 q 641 0 712 0 q 570 21 601 0 q 537 84 540 44 q 652 270 530 167 q 848 491 848 432 q 812 519 848 519 q 686 463 770 519 q 481 267 615 416 q 355 111 441 222 q 268 4 279 13 q 225 -12 258 -4 q 170 -18 191 -20 q 156 -10 158 -17 q 380 277 154 -2 q 468 384 423 329 q 518 484 518 450 q 479 516 518 516 q 298 420 419 516 q 127 250 187 332 q -61 -3 38 124 q -93 0 -73 -6 q -112 16 -113 7 q 83 297 -109 38 q 269 543 252 528 q 304 549 276 549 q 333 543 331 550 q 262 441 320 524 q 497 553 413 553 q 529 550 512 553 q 576 488 576 541 q 552 411 576 451 q 819 551 733 551 q 898 482 898 551 q 831 341 898 417 q 650 74 661 146 q 656 54 648 62 q 684 49 665 46 q 858 150 737 56 q 981 257 958 230 q 1005 271 993 271 q 1018 262 1015 271 q 1009 239 1020 250 "},"П":{"x_min":32,"x_max":1843.28125,"ha":1468,"o":"m 1840 891 q 1817 896 1832 879 q 1611 1012 1764 954 q 1225 1071 1457 1071 q 1047 1062 1140 1071 q 853 1039 954 1054 q 338 831 563 990 q 113 519 113 670 q 118 478 113 495 q 361 340 153 340 q 518 362 443 340 q 703 463 611 390 q 765 518 740 494 q 801 562 790 542 q 839 587 819 592 q 836 555 856 585 q 792 500 818 528 q 729 441 765 471 q 522 326 626 352 q 353 304 439 304 q 35 538 72 304 q 32 557 33 548 q 32 576 32 566 q 251 901 32 748 q 832 1105 481 1062 q 978 1120 907 1115 q 1121 1125 1050 1125 q 1622 1046 1411 1125 q 1829 932 1789 983 q 1840 891 1849 905 m 872 248 q 786 100 840 163 q 668 -4 733 36 q 531 -59 604 -44 q 387 -62 458 -75 q 293 -27 337 -51 q 229 48 250 -2 q 211 152 208 97 q 240 238 215 206 q 275 268 252 258 q 336 256 319 284 q 341 218 347 237 q 316 191 336 198 q 279 197 291 180 q 271 204 275 200 q 265 205 268 208 q 247 175 252 193 q 240 138 241 156 q 242 103 240 119 q 248 77 244 87 q 254 67 251 72 q 259 55 256 62 q 472 13 327 -44 q 534 45 504 27 q 597 88 565 63 q 651 137 623 109 q 705 196 679 165 q 756 260 731 227 q 800 325 780 293 q 827 371 811 343 q 856 419 844 400 q 959 575 915 508 q 1038 687 1004 641 q 1240 884 1129 806 q 1416 969 1334 952 q 1431 956 1430 970 q 1409 934 1433 941 q 1248 847 1344 919 q 1095 698 1152 776 q 1045 618 1068 658 q 1000 527 1023 577 q 946 409 976 476 q 872 248 916 341 m 1391 520 q 1347 453 1362 476 q 1330 427 1333 430 q 1263 316 1297 372 q 1197 205 1229 261 q 1127 30 1125 79 q 1168 0 1129 -2 q 1266 45 1225 4 q 1291 55 1281 61 q 1293 36 1302 51 q 1260 4 1283 20 q 1206 -25 1237 -12 q 1145 -38 1176 -38 q 1086 -22 1106 -41 q 1065 30 1066 -4 q 1168 313 1058 116 l 1244 443 l 1438 772 q 1454 779 1443 775 q 1483 791 1465 784 q 1520 804 1504 798 q 1548 813 1536 809 q 1575 812 1573 818 q 1562 786 1576 809 q 1523 725 1548 763 q 1464 633 1498 686 q 1391 520 1430 580 "},"Ö":{"x_min":18,"x_max":1086,"ha":950,"o":"m 959 1119 q 1051 1024 1017 1099 q 1086 844 1086 950 q 892 316 1086 569 q 599 42 761 144 q 297 -60 437 -60 q 122 -4 195 -60 q 18 241 18 73 q 188 702 18 472 q 641 1084 413 1008 q 672 1084 663 1091 q 649 1062 686 1074 q 491 965 590 1043 q 248 702 347 854 q 125 307 125 512 q 244 42 125 107 q 369 12 300 12 q 851 323 606 12 q 1050 844 1050 576 q 1021 1006 1050 940 q 944 1088 993 1072 q 888 1098 918 1098 q 601 876 749 1098 q 522 655 522 757 q 553 576 522 594 q 595 567 573 567 q 767 691 687 567 q 801 718 790 725 q 801 677 819 709 q 709 579 773 626 q 572 525 637 525 q 507 543 536 525 q 446 677 446 579 q 495 854 446 768 q 676 1051 564 972 q 891 1131 788 1131 q 959 1119 927 1131 m 1026 1247 q 985 1210 1023 1210 q 950 1247 948 1210 q 991 1285 952 1285 q 1026 1247 1028 1285 m 882 1247 q 841 1210 879 1210 q 806 1247 804 1210 q 847 1285 808 1285 q 882 1247 884 1285 "},"z":{"x_min":-307.296875,"x_max":751,"ha":580,"o":"m 162 -144 q 114 -170 154 -138 q -8 -274 75 -203 q -55 -319 -29 -292 q -103 -373 -81 -347 q -137 -418 -125 -399 q -141 -438 -150 -438 q -113 -426 -131 -438 q -72 -397 -94 -415 q -25 -354 -50 -378 q 23 -307 0 -331 q 72 -258 45 -285 q 120 -208 98 -232 q 155 -166 143 -183 q 162 -144 168 -149 m 231 95 q 182 90 204 95 q 146 77 161 84 q 123 65 131 70 q 113 58 115 59 q 115 46 102 46 q 150 53 129 46 q 195 71 172 60 q 231 95 219 83 m 734 283 q 557 102 670 202 q 430 0 487 40 q 330 -58 374 -39 q 91 -362 237 -214 q -210 -553 -90 -553 q -282 -532 -257 -553 q -307 -469 -308 -512 q -250 -340 -307 -411 q -86 -184 -194 -269 q 68 -87 -15 -129 q 256 2 152 -46 q 262 18 259 9 q 273 45 266 27 q 234 16 258 33 q 183 -14 210 0 q 127 -39 156 -29 q 73 -50 98 -50 q 34 -46 52 -50 q 4 -30 16 -41 q -10 0 -7 -19 q -5 46 -14 17 q 13 81 -1 63 q 47 115 28 99 q 85 144 66 131 q 117 160 105 156 q 155 172 133 166 q 202 182 177 178 q 253 185 227 185 q 299 176 278 184 q 351 237 327 201 q 405 331 376 274 q 440 431 440 395 q 416 456 440 455 q 358 435 396 458 q 255 363 320 413 q 84 208 196 320 q 45 185 65 188 q 6 196 26 181 q -16 235 -21 213 q 8 276 -11 256 q 71 337 26 295 q 192 442 117 378 q 489 590 380 590 q 571 565 542 590 q 601 490 601 541 q 576 394 601 449 q 502 270 551 340 q 468 221 483 242 q 440 182 453 199 q 413 150 427 165 q 383 121 399 135 q 384 105 383 110 q 384 88 385 99 q 412 107 401 98 q 438 128 424 116 q 469 156 452 140 q 516 198 487 173 q 596 276 564 242 q 656 345 627 309 q 689 367 671 363 q 727 356 707 371 q 751 321 751 340 q 734 283 751 302 "},"™":{"x_min":475,"x_max":1093.0625,"ha":1167,"o":"m 1093 1024 l 1091 1016 l 1059 1012 q 1044 1004 1045 1009 l 1008 748 q 1016 737 1006 738 l 1048 733 l 1047 726 l 919 726 l 920 731 l 957 737 q 967 748 966 738 l 1001 981 l 845 725 l 791 981 l 721 748 q 731 737 720 738 l 762 733 l 761 726 l 655 726 l 656 731 l 688 737 q 702 747 700 738 l 777 1002 q 768 1012 780 1009 l 737 1016 l 738 1024 l 827 1024 l 872 799 l 1008 1024 l 1093 1024 m 705 1024 l 698 961 l 693 961 l 688 996 q 681 1003 688 1003 l 617 1003 l 559 738 l 559 738 l 601 733 l 600 726 l 475 726 l 476 733 l 519 738 l 577 1003 l 513 1003 q 504 996 508 1003 l 483 959 l 477 959 l 500 1024 l 705 1024 "},"ã":{"x_min":8,"x_max":808,"ha":671,"o":"m 798 293 q 610 125 738 220 q 356 -1 427 -10 q 281 84 281 8 q 287 122 281 102 q 94 -1 176 -5 q 8 104 8 3 q 96 311 8 199 q 308 497 185 424 q 498 563 420 563 q 551 547 531 563 q 566 500 570 532 q 605 537 598 531 q 624 544 612 542 q 646 544 638 546 q 651 535 655 542 q 495 306 605 470 q 389 88 397 154 q 412 47 382 47 q 606 162 465 47 q 776 318 733 263 q 791 325 781 325 q 808 311 808 325 q 798 293 808 302 m 517 441 q 534 490 534 462 q 494 532 534 532 q 384 488 451 532 q 245 366 312 443 q 96 86 96 197 q 127 39 96 39 q 241 113 163 39 q 359 247 306 176 q 517 441 426 336 m 715 708 q 686 660 713 680 q 627 640 659 640 q 542 664 595 640 q 458 688 488 688 q 417 669 438 688 q 394 650 395 650 q 388 656 388 650 q 421 709 391 684 q 485 735 452 735 q 576 706 516 735 q 653 678 635 678 q 690 696 676 678 q 705 715 703 715 q 715 708 715 715 "},"æ":{"x_min":-3,"x_max":1044.234375,"ha":907,"o":"m 1038 323 q 1031 287 1052 312 q 819 105 965 208 q 516 -17 648 -17 q 426 5 463 -17 q 354 141 354 48 q 360 200 354 169 q 226 66 295 122 q 83 -1 137 -3 q -3 104 -3 3 q 85 311 -3 199 q 298 497 174 424 q 488 563 409 563 q 540 547 520 563 q 555 500 559 532 q 594 537 587 531 q 613 544 601 542 q 635 544 627 546 q 640 535 645 542 l 624 513 q 780 563 716 563 q 840 522 840 563 q 784 415 840 483 q 680 311 735 355 q 465 209 580 234 q 457 151 457 179 q 502 54 457 84 q 579 34 534 34 q 798 124 670 34 q 1002 308 916 209 q 1038 323 1026 334 m 783 534 q 678 492 745 534 q 551 381 608 447 q 476 245 503 325 q 656 338 567 271 q 759 435 710 380 q 808 515 808 490 q 783 534 808 534 m 506 443 q 523 492 523 464 q 482 534 523 534 q 374 490 441 534 q 234 368 301 444 q 85 86 85 197 q 116 39 85 39 q 230 114 152 39 q 348 248 295 177 q 506 443 414 337 "},"É":{"x_min":25,"x_max":1234.71875,"ha":967,"o":"m 1220 964 q 1193 964 1206 964 q 1132 851 1181 901 q 1020 802 1083 802 q 965 851 965 802 q 996 914 965 882 q 1067 963 1027 945 q 1159 984 1108 980 q 1141 1035 1159 1013 q 1019 1076 1109 1076 q 702 984 862 1076 q 570 865 618 935 q 522 727 522 795 q 550 637 522 673 q 750 675 661 672 q 870 620 865 680 q 766 537 877 555 q 708 533 740 533 q 500 584 584 533 q 271 415 375 531 q 160 191 160 292 q 175 128 160 156 q 416 8 234 8 q 729 74 564 8 q 1029 273 929 156 q 1069 295 1051 300 q 1040 241 1090 293 q 911 134 990 190 q 737 40 818 72 q 345 -39 538 -39 q 43 109 108 -39 q 25 192 25 151 q 175 436 25 315 q 469 605 288 527 q 398 751 388 669 q 665 1026 415 902 q 1005 1107 829 1107 q 1179 1045 1141 1107 q 1194 986 1194 1020 q 1234 972 1234 986 q 1220 964 1234 962 m 1156 959 q 1056 925 1095 950 q 1001 858 1001 887 q 1027 835 1001 835 q 1116 880 1073 835 q 1156 959 1147 912 m 833 621 q 759 649 827 649 q 708 646 736 649 q 576 611 650 637 q 745 565 637 563 q 813 582 790 566 q 833 621 837 598 m 1166 1308 q 1143 1274 1165 1287 q 1013 1215 1100 1255 q 965 1188 997 1205 q 962 1188 963 1188 q 959 1187 961 1187 q 952 1195 952 1187 q 956 1201 952 1197 q 1108 1331 1015 1254 q 1136 1340 1120 1340 q 1166 1308 1168 1340 "},"и":{"x_min":-23.609375,"x_max":706.953125,"ha":628,"o":"m 697 229 q 583 125 704 225 q 329 -1 400 -11 q 254 87 255 8 q 154 23 208 48 q 51 -1 90 -6 q -23 89 -23 8 q -20 114 -23 101 q 109 326 -8 182 q 295 542 277 532 q 322 549 306 549 q 340 539 340 550 q 288 451 340 526 q 190 307 206 333 q 113 184 126 207 q 81 91 86 132 q 106 45 76 45 q 131 52 118 45 q 405 314 243 100 q 573 542 484 425 q 600 549 584 549 q 618 539 618 550 q 566 451 618 526 q 468 307 484 334 q 361 89 369 154 q 384 47 354 47 q 579 162 437 47 q 675 254 698 268 q 690 261 680 261 q 706 247 706 261 q 697 229 706 239 "},"~":{"x_min":90.28125,"x_max":704.171875,"ha":738,"o":"m 704 516 q 518 436 604 436 q 386 474 470 436 q 256 512 301 512 q 119 441 193 512 l 90 480 q 256 564 173 564 q 390 525 305 564 q 518 487 475 487 q 669 556 591 487 l 704 516 "},"¡":{"x_min":18,"x_max":702.71875,"ha":693,"o":"m 634 911 q 595 952 595 911 q 616 999 595 977 q 663 1022 637 1022 q 702 981 702 1022 q 681 933 702 955 q 634 911 661 911 m 627 868 l 119 14 l 18 14 l 583 868 l 627 868 "},"[":{"x_min":-105.5625,"x_max":1129.171875,"ha":693,"o":"m 1129 1185 q 1088 1119 1108 1151 q 1047 1053 1068 1086 l 933 1053 l 150 -172 l 262 -172 q 224 -233 243 -203 q 186 -294 205 -263 l -105 -294 l 840 1185 l 1129 1185 "},"К":{"x_min":19.203125,"x_max":2229.515625,"ha":1773,"o":"m 2228 1018 q 2219 1001 2227 1001 q 2200 1027 2205 1001 q 2162 1068 2195 1052 q 2087 1083 2130 1083 q 2056 1082 2072 1083 q 1884 977 1969 1068 q 1790 844 1842 933 q 1697 700 1730 743 q 1541 559 1633 619 q 1416 514 1509 539 q 1515 433 1490 489 q 1528 366 1528 402 q 1474 209 1528 298 q 1440 95 1440 154 q 1463 31 1440 52 q 1503 18 1480 18 q 1615 82 1567 18 q 1663 208 1663 147 q 1641 252 1663 248 q 1542 177 1594 262 q 1519 161 1533 159 q 1513 186 1502 162 q 1565 258 1531 229 q 1633 287 1599 287 q 1662 282 1648 287 q 1694 213 1694 265 q 1640 65 1694 140 q 1553 -6 1610 23 q 1444 -37 1497 -37 q 1374 -16 1402 -37 q 1324 81 1324 20 q 1391 236 1324 161 q 1484 388 1484 341 q 1440 466 1484 436 q 1349 493 1399 493 q 1308 487 1328 493 l 1284 483 q 1210 452 1251 476 q 745 1 995 136 q 323 -125 513 -125 q 130 -80 212 -125 q 35 10 62 -42 q 19 93 19 49 q 49 217 19 157 q 120 301 78 276 q 173 318 145 318 q 235 276 230 318 q 224 231 238 250 q 183 212 209 212 q 144 236 151 212 q 133 251 140 249 q 112 243 124 253 q 85 201 99 233 q 67 124 67 162 q 78 67 67 93 q 277 -26 117 -26 q 634 56 431 -26 q 986 264 837 139 q 1251 589 1135 390 q 1372 946 1372 798 q 1308 1096 1372 1048 q 1140 1146 1240 1146 q 886 1080 1023 1146 q 675 939 762 1022 q 545 773 597 866 q 489 587 489 672 q 515 487 489 529 q 659 417 561 417 q 914 503 784 417 q 1036 630 986 550 q 1084 744 1075 693 q 1105 771 1089 771 q 1118 750 1120 771 q 936 473 1097 594 q 643 382 814 382 q 422 470 487 382 q 381 605 381 527 q 443 807 381 701 q 616 1004 505 913 q 857 1133 716 1084 q 1119 1179 993 1179 q 1338 1118 1262 1179 q 1408 953 1408 1062 q 1292 584 1408 808 q 1273 551 1284 569 q 1523 596 1438 541 q 1665 725 1599 643 q 1762 873 1702 773 q 1848 1001 1817 965 q 2115 1153 1987 1162 q 2206 1102 2174 1147 q 2228 1018 2233 1064 "},"%":{"x_min":-18.0625,"x_max":1140.28125,"ha":1108,"o":"m 595 720 q 516 601 560 656 q 413 501 471 547 q 189 404 295 404 q 29 577 29 404 q 84 773 29 666 q 267 994 152 902 q 491 1090 386 1090 q 611 1046 571 1090 q 652 919 652 1002 q 595 720 652 826 m 1140 1080 q 650 528 894 802 q 159 -22 405 255 l -18 -22 q 472 528 229 254 q 962 1078 716 802 q 1051 1079 1006 1078 q 1140 1080 1095 1080 m 1019 268 q 835 44 951 138 q 610 -50 716 -50 q 451 120 451 -50 q 505 318 451 213 q 688 540 574 450 q 913 636 809 636 q 1073 463 1073 636 q 1019 268 1073 372 m 482 766 q 527 905 527 849 q 520 935 527 927 q 503 944 514 944 q 381 881 456 944 q 248 715 299 812 q 204 576 204 634 q 210 544 204 552 q 226 536 216 536 q 349 599 273 536 q 482 766 429 667 m 909 351 q 929 410 924 383 q 932 457 934 437 q 923 486 930 476 q 908 497 916 497 q 858 484 891 501 q 785 433 824 466 q 651 266 705 365 q 608 129 608 182 q 614 97 608 105 q 630 89 620 89 q 684 104 653 89 q 753 152 714 119 q 835 230 794 186 q 909 351 876 275 "},"P":{"x_min":-45.828125,"x_max":1387.5,"ha":1060,"o":"m 487 705 q 321 538 402 643 q 152 276 240 433 q 119 211 134 244 q 94 152 104 179 q 81 106 84 125 q 83 81 77 87 q 111 97 87 75 q 176 173 136 120 q 270 309 216 226 q 387 505 323 393 q 422 567 409 543 q 443 611 434 591 q 462 652 452 631 q 487 705 472 673 m 1015 559 q 1095 619 1059 583 q 1157 696 1131 656 q 1195 772 1183 735 q 1205 834 1208 809 q 1197 869 1205 846 q 1170 914 1190 892 q 1116 952 1150 935 q 1031 969 1083 969 q 935 956 987 969 q 834 927 883 944 q 747 893 786 910 q 695 866 709 876 q 648 760 672 810 q 601 662 625 710 q 646 684 622 676 q 694 697 670 692 q 736 702 718 701 q 766 704 755 704 q 809 700 786 704 q 854 691 831 697 q 894 677 876 685 q 923 660 912 669 q 961 600 962 626 q 933 567 961 574 q 917 565 925 563 q 892 569 909 566 q 840 575 875 572 q 743 579 805 579 q 679 568 700 579 q 654 544 659 558 q 655 519 650 531 q 668 505 661 508 q 707 495 676 501 q 785 492 738 490 q 890 508 831 494 q 1015 559 950 522 m 1122 1140 q 1203 1135 1156 1144 q 1290 1099 1250 1126 q 1359 1025 1330 1071 q 1387 908 1387 978 q 1363 775 1387 842 q 1300 647 1340 708 q 1207 536 1259 586 q 1097 455 1155 486 q 950 395 1020 415 q 818 372 880 376 q 706 376 756 368 q 622 401 656 384 q 552 447 575 422 q 522 499 529 472 l 509 476 q 252 67 366 207 q 61 -72 138 -72 q -20 -36 5 -72 q -45 61 -45 -1 q -38 129 -45 89 q -11 222 -30 170 q 39 337 6 275 q 122 473 72 399 q 241 624 176 552 q 371 758 306 697 q 494 865 436 819 q 593 939 552 912 q 604 971 597 949 q 620 1019 612 994 q 637 1068 629 1044 q 650 1106 645 1092 q 727 1155 669 1164 q 758 1147 744 1152 q 780 1131 772 1142 q 788 1102 788 1120 q 776 1055 788 1084 q 848 1085 801 1070 q 947 1112 895 1101 q 1047 1132 1000 1124 q 1122 1140 1094 1140 "},"_":{"x_min":-9.71875,"x_max":777.78125,"ha":828,"o":"m 777 -233 l -9 -233 l -9 -83 l 777 -83 l 777 -233 "},"ñ":{"x_min":-112.09375,"x_max":739.953125,"ha":603,"o":"m 731 294 q 563 138 675 225 q 308 -3 379 -3 q 238 19 268 -3 q 204 81 207 41 q 320 268 197 165 q 516 489 516 430 q 479 517 516 517 q 354 461 438 517 q 147 277 217 370 q -60 -3 49 138 q -93 1 -73 -5 q -112 16 -113 8 q 83 298 -109 38 q 269 543 253 529 q 304 549 276 549 q 333 543 332 550 q 275 452 335 535 q 486 549 400 549 q 566 481 566 549 q 499 340 566 416 q 317 74 328 146 q 324 54 315 62 q 351 50 332 47 q 525 151 404 56 q 703 312 625 230 q 726 326 714 326 q 739 316 736 326 q 731 294 742 305 m 655 704 q 625 656 652 677 q 566 636 598 636 q 482 660 535 637 q 398 684 428 684 q 357 664 378 684 q 334 645 335 645 q 329 652 329 645 q 361 706 331 680 q 426 731 391 732 q 516 702 456 731 q 592 674 575 674 q 630 692 616 674 q 645 711 643 711 q 655 704 655 711 "},"‚":{"x_min":39.828125,"x_max":254,"ha":342,"o":"m 253 49 q 182 -69 249 -16 q 48 -122 115 -122 q 40 -112 38 -122 q 49 -105 40 -103 q 140 -75 83 -109 q 201 -14 198 -41 q 180 -3 201 -7 q 134 51 131 5 q 155 94 135 76 q 196 113 174 113 q 240 96 224 113 q 253 49 255 79 "},"Æ":{"x_min":25.96875,"x_max":2482.953125,"ha":2308,"o":"m 2469 963 q 2441 963 2455 963 q 2380 851 2430 901 q 2268 802 2331 802 q 2212 851 2212 802 q 2243 914 2212 882 q 2315 963 2275 946 q 2407 985 2355 980 q 2389 1036 2406 1014 q 2266 1078 2357 1078 q 1951 984 2113 1078 q 1818 866 1866 936 q 1770 727 1770 795 q 1798 637 1770 673 q 2013 676 1921 676 q 2119 620 2113 676 q 2014 537 2127 555 q 1956 533 1988 533 q 1748 584 1832 533 q 1519 415 1623 531 q 1408 191 1408 292 q 1421 128 1408 156 q 1664 8 1483 8 q 1977 74 1812 8 q 2276 273 2177 156 q 2317 295 2299 300 q 2287 241 2338 293 q 2158 134 2237 190 q 1985 40 2066 72 q 1594 -39 1785 -39 q 1291 109 1355 -39 q 1275 190 1275 147 q 1348 408 1275 281 q 1470 591 1409 499 q 1280 654 1373 631 q 1034 379 1157 517 q 760 124 882 214 q 434 -29 599 5 q 338 -39 388 -39 q 131 15 213 -39 q 26 216 28 82 q 262 541 23 394 q 764 710 480 675 q 969 724 867 724 q 1256 694 1119 724 q 1663 1064 1595 1019 q 1792 1117 1741 1117 q 1846 1076 1846 1117 q 1837 1046 1846 1061 q 1757 923 1810 1007 q 1919 1023 1821 976 q 2257 1104 2080 1104 q 2427 1044 2392 1104 q 2442 986 2442 1019 q 2482 972 2482 986 q 2469 963 2482 962 m 2405 959 q 2305 925 2344 950 q 2250 858 2250 887 q 2276 835 2250 835 q 2365 880 2322 835 q 2405 959 2395 912 m 2081 620 q 2013 650 2076 650 q 1824 610 1942 650 q 1994 565 1885 563 q 2061 582 2038 566 q 2081 620 2084 598 m 1807 1086 q 1792 1089 1802 1089 q 1706 1058 1762 1089 q 1307 683 1614 1005 q 1489 622 1403 659 q 1696 911 1578 755 q 1807 1054 1784 1026 q 1807 1086 1827 1076 m 1717 605 q 1645 744 1641 666 q 1498 490 1555 594 q 1717 605 1594 552 m 1227 666 q 970 692 1103 692 q 687 665 833 692 q 272 509 456 622 q 64 239 64 380 q 65 210 64 225 q 280 65 90 65 q 451 91 361 65 q 758 243 609 137 q 1023 469 867 319 l 1227 666 "},"ы":{"x_min":12.5,"x_max":988.890625,"ha":881,"o":"m 979 251 q 953 220 963 233 q 930 193 943 206 q 899 164 918 180 q 848 125 880 148 q 594 -1 663 -11 q 519 84 519 8 q 520 99 519 91 q 522 113 520 106 q 543 166 526 136 q 496 143 522 154 q 443 123 470 131 q 389 111 416 115 q 337 112 362 108 q 218 38 279 66 q 115 9 158 9 q 60 13 81 4 q 27 40 38 22 q 13 84 15 58 q 15 138 11 109 q 50 218 22 169 q 138 340 79 266 q 186 397 159 365 q 248 466 213 429 q 331 547 312 533 q 350 552 337 550 q 372 552 363 554 q 376 544 380 550 q 314 456 352 512 q 219 322 276 401 q 186 268 200 291 q 161 226 172 245 q 142 193 156 219 q 117 139 127 168 q 107 88 106 111 q 133 63 108 65 q 172 68 151 62 q 213 86 193 75 q 251 111 233 97 q 283 143 269 126 q 240 209 247 175 q 247 275 234 243 q 287 333 259 306 q 348 375 315 359 q 415 395 381 391 q 475 384 450 398 q 502 293 529 352 q 377 145 475 234 l 375 143 q 413 150 388 144 q 468 169 438 156 q 530 200 498 181 q 590 243 562 218 q 652 326 616 280 q 700 384 673 352 q 762 455 727 416 q 844 538 825 525 q 862 544 850 541 q 884 544 876 545 q 888 536 893 541 q 827 447 865 504 q 733 306 788 390 q 626 88 634 154 q 650 47 619 47 q 844 162 701 47 q 893 203 876 187 q 921 231 911 219 q 938 252 931 243 q 956 276 945 262 q 972 283 963 283 q 988 269 988 283 q 979 251 988 261 m 318 169 q 334 181 320 168 q 365 213 348 194 q 400 256 383 233 q 428 301 418 280 q 438 338 438 322 q 419 358 437 354 q 362 349 397 365 q 304 297 327 333 q 280 222 276 261 q 318 169 284 183 m 322 115 q 318 116 319 115 q 322 115 318 112 "},"ї":{"x_min":-23.609375,"x_max":502.78125,"ha":365,"o":"m 493 293 q 305 125 433 220 q 51 -1 122 -11 q -23 88 -23 8 q -20 113 -23 101 q 109 326 -8 181 q 295 541 277 531 q 322 548 306 548 q 340 538 340 550 q 288 451 340 526 q 190 306 206 334 q 83 88 91 154 q 106 47 76 47 q 301 162 159 47 q 470 318 427 263 q 486 325 476 325 q 502 311 502 325 q 493 293 502 302 m 469 671 q 429 634 466 634 q 393 671 390 634 q 433 710 395 710 q 469 671 472 710 m 325 671 q 284 634 322 634 q 248 671 245 634 q 288 710 251 710 q 325 671 327 710 "},"Œ":{"x_min":41,"x_max":1979.890625,"ha":1714,"o":"m 1966 963 q 1936 963 1952 963 q 1877 851 1927 901 q 1765 802 1828 802 q 1709 851 1709 802 q 1740 914 1709 882 q 1812 963 1772 946 q 1904 985 1852 980 q 1886 1036 1903 1014 q 1763 1078 1854 1078 q 1447 984 1609 1078 q 1314 866 1363 936 q 1266 727 1266 795 q 1295 637 1266 673 q 1509 676 1418 676 q 1616 621 1610 676 q 1511 539 1624 556 q 1453 535 1485 535 q 1245 584 1329 535 q 1016 415 1120 531 q 904 191 904 292 q 918 128 904 156 q 1161 8 979 8 q 1474 74 1307 8 q 1772 273 1672 156 q 1814 295 1795 300 q 1784 241 1834 293 q 1654 134 1734 190 q 1482 40 1563 72 q 1091 -39 1284 -39 q 788 109 853 -39 q 771 165 775 137 q 316 -58 532 -58 q 145 -3 217 -58 q 41 241 41 73 q 210 702 41 472 q 664 1084 436 1008 q 695 1084 686 1091 q 672 1062 709 1075 q 514 965 613 1043 q 271 702 370 854 q 148 308 148 512 q 267 43 148 108 q 388 14 321 14 q 771 214 571 14 q 966 470 785 344 q 1076 852 1076 666 q 1046 1010 1076 947 q 967 1087 1017 1073 q 913 1096 941 1096 q 624 876 772 1096 q 545 655 545 757 q 576 576 545 594 q 618 567 596 567 q 790 691 710 567 q 824 718 811 725 q 824 677 841 709 q 732 579 796 626 q 595 525 659 525 q 528 543 559 525 q 466 683 466 581 q 518 854 466 774 q 700 1045 593 967 q 918 1129 815 1129 q 982 1119 952 1129 q 1074 1027 1040 1099 q 1109 851 1109 955 q 1027 509 1109 684 q 1214 605 1111 561 q 1142 751 1134 669 q 1416 1023 1159 897 q 1754 1104 1577 1104 q 1924 1044 1888 1104 q 1939 986 1939 1019 q 1979 972 1979 986 q 1966 963 1979 962 m 1902 959 q 1802 925 1841 950 q 1747 858 1747 887 q 1773 835 1747 835 q 1861 880 1819 835 q 1902 959 1892 912 m 1577 621 q 1510 650 1572 650 q 1320 611 1438 650 q 1491 567 1382 565 q 1558 584 1535 568 q 1577 621 1581 599 "},"T":{"x_min":-12.453125,"x_max":1894.0625,"ha":1367,"o":"m 1473 957 q 1461 913 1476 929 q 1419 890 1445 897 q 1354 864 1391 883 q 1273 809 1318 844 q 1191 740 1227 775 q 1129 669 1155 705 q 1002 459 1073 590 q 843 143 930 329 q 716 -36 775 -1 q 676 -49 706 -41 q 610 -66 645 -58 q 543 -80 575 -74 q 502 -86 512 -86 q 461 -74 481 -86 q 440 -36 440 -63 q 453 -3 440 -16 q 483 16 466 9 q 612 129 550 43 q 708 265 656 189 q 820 436 759 341 q 924 593 879 525 q 1004 707 969 661 q 1104 821 1052 769 q 1216 914 1156 873 q 1408 1007 1320 989 q 1454 998 1438 1012 q 1473 957 1470 984 m 1886 862 q 1835 836 1864 830 q 1787 863 1807 841 q 1707 921 1764 890 q 1569 983 1650 952 q 1466 1011 1529 998 q 1325 1029 1404 1023 q 1157 1031 1247 1034 q 973 1015 1066 1029 q 751 971 843 994 q 591 922 659 948 q 468 865 522 897 q 359 795 414 834 q 203 650 253 719 q 153 500 153 581 q 233 396 166 429 q 429 375 300 363 q 489 388 455 376 q 556 418 522 401 q 621 454 590 434 q 675 491 653 473 q 764 579 747 548 q 799 617 779 604 q 847 623 819 630 q 879 609 869 619 q 889 584 889 598 q 884 555 890 570 q 869 527 878 540 q 754 404 832 469 q 682 355 726 380 q 591 309 639 330 q 498 272 544 287 q 421 254 453 256 q 230 264 309 244 q 99 325 151 284 q 20 423 47 365 q -12 550 -6 481 q 0 669 -14 616 q 44 766 14 722 q 120 851 75 811 q 223 931 165 891 q 366 1013 283 973 q 543 1084 448 1052 q 739 1136 637 1115 q 940 1162 841 1158 q 1099 1168 1014 1168 q 1271 1162 1184 1169 q 1441 1140 1358 1155 q 1593 1100 1525 1126 q 1774 1022 1701 1059 q 1872 955 1847 986 q 1892 909 1887 934 q 1886 862 1897 884 "},"š":{"x_min":-50,"x_max":582,"ha":443,"o":"m 573 291 q 366 111 486 201 q 54 -4 177 -31 q -50 129 -50 19 q -27 211 -50 170 q 37 251 -1 256 q 119 330 66 277 q 233 444 166 372 q 252 497 241 458 q 280 563 262 536 q 334 601 305 601 q 365 566 365 601 q 343 502 365 533 q 281 436 322 472 q 293 347 277 420 q 311 212 311 261 q 269 80 311 137 q 383 162 323 113 q 550 315 491 250 q 566 325 558 325 q 582 309 582 325 q 573 291 582 300 m 240 357 q 235 393 240 371 l 141 303 q 63 229 120 282 q 68 209 68 219 q 48 166 68 180 q 16 152 47 166 q -7 126 1 144 q -10 107 -10 118 q 49 37 -10 48 q 115 58 77 31 q 187 139 153 84 q 240 357 240 228 m 519 777 q 428 714 513 768 q 336 661 343 661 q 293 727 329 665 q 258 791 258 788 q 263 795 261 795 l 304 795 l 311 793 q 365 704 348 734 q 512 803 413 736 q 519 791 515 803 q 519 777 522 780 "},"є":{"x_min":29.171875,"x_max":689.953125,"ha":553,"o":"m 188 199 q 147 179 165 194 q 138 173 143 176 q 137 143 137 158 q 141 100 137 118 q 145 90 144 95 q 145 83 145 86 q 227 32 165 32 q 455 134 319 32 q 654 315 586 234 q 683 323 669 333 q 681 294 697 313 q 461 101 622 216 q 198 -10 306 -10 q 158 -6 179 -10 q 29 131 29 13 q 95 311 29 210 q 269 482 161 412 q 444 551 370 551 q 518 483 518 551 q 475 371 518 434 q 459 365 470 365 q 429 377 447 366 q 406 395 411 388 q 415 412 404 405 q 445 442 427 419 q 466 491 466 471 q 431 519 466 519 q 331 474 388 519 q 206 337 265 426 q 145 208 162 269 q 222 241 177 234 q 298 240 255 245 q 359 234 347 233 q 398 258 384 235 q 411 294 411 276 q 404 308 409 308 q 396 301 400 306 q 391 295 393 297 q 377 301 383 295 q 370 315 372 306 q 377 334 370 326 q 395 342 383 342 q 425 301 420 341 q 407 234 427 262 q 354 199 387 206 q 302 198 334 197 q 268 199 287 198 q 230 199 248 199 l 188 199 "},"j":{"x_min":-618.0625,"x_max":500.421875,"ha":319,"o":"m 487 287 q 410 205 465 255 q 268 88 355 155 q 146 10 211 44 q 9 -50 81 -23 q -84 -193 -38 -128 q -173 -314 -130 -258 q -362 -489 -258 -425 q -520 -542 -451 -542 q -618 -450 -618 -542 q -573 -319 -618 -393 q -456 -183 -531 -251 q -102 14 -322 -65 q 5 219 -34 153 q 97 361 52 298 q 186 477 141 424 q 240 537 216 513 q 283 571 265 560 q 318 585 298 588 q 345 581 338 583 q 379 561 370 577 q 372 521 387 545 q 353 494 366 514 q 311 426 340 473 q 232 301 281 378 q 108 103 183 223 q 195 154 150 121 q 284 223 241 187 q 359 294 326 260 q 409 349 393 328 q 440 364 425 364 q 473 355 456 364 q 500 324 497 342 q 487 287 502 306 m 444 821 q 480 807 469 821 q 491 769 491 793 q 484 733 491 753 q 466 693 477 714 q 413 623 441 648 q 355 599 386 599 q 318 613 329 599 q 308 651 308 628 q 333 726 308 686 q 386 796 358 771 q 444 821 415 821 m -170 -116 q -229 -142 -205 -129 q -275 -170 -254 -155 q -318 -202 -297 -184 q -366 -243 -340 -220 q -452 -343 -418 -290 q -484 -423 -484 -394 q -480 -431 -484 -430 q -473 -433 -476 -433 q -442 -422 -458 -433 q -395 -390 -426 -411 q -266 -261 -325 -338 q -239 -225 -251 -241 q -216 -193 -227 -209 q -194 -159 -205 -177 q -170 -116 -183 -141 "},"1":{"x_min":-18.28125,"x_max":866.671875,"ha":692,"o":"m 866 1040 q 845 979 866 1008 q 781 891 813 935 q 718 803 750 847 q 607 639 659 719 q 506 478 555 558 q 429 340 473 419 q 327 157 384 261 q 261 39 287 82 q 226 -10 234 -3 q 168 -40 212 -25 q 55 -69 123 -55 q 15 -69 36 -73 q -12 -45 -5 -64 q -18 -25 -19 -37 q -10 -3 -16 -14 q 4 16 -4 7 q 22 32 13 25 q 76 93 48 47 q 187 265 112 149 q 379 558 262 381 q 492 719 430 637 q 620 887 554 800 q 637 915 650 926 q 555 865 625 904 q 421 786 472 817 q 343 742 370 756 q 307 728 326 733 q 272 725 288 724 q 243 734 255 726 q 226 758 230 742 q 227 793 219 776 q 250 822 236 810 q 297 853 269 840 q 691 1072 323 861 q 797 1106 747 1106 q 847 1090 829 1106 q 866 1040 866 1074 "},"›":{"x_min":314.53125,"x_max":470.546875,"ha":526,"o":"m 469 458 q 465 445 473 451 l 324 350 q 316 347 319 345 q 315 353 313 348 l 324 402 l 328 409 l 430 477 l 359 601 l 378 614 l 469 458 "},"<":{"x_min":76,"x_max":724.609375,"ha":796,"o":"m 724 710 l 142 476 l 598 245 l 566 207 l 76 456 l 89 508 l 709 758 l 724 710 "},"Ц":{"x_min":29,"x_max":1796.8125,"ha":1476,"o":"m 1262 35 q 1247 24 1257 32 q 1221 8 1237 16 q 1185 -6 1205 0 q 1145 -14 1166 -14 q 1082 9 1103 -14 q 1062 73 1062 33 q 1198 394 1062 170 q 1144 343 1171 367 q 1089 297 1117 319 q 530 -15 712 -15 q 473 -3 500 -15 q 410 100 410 25 q 496 291 410 193 q 719 493 561 366 q 841 599 791 551 q 922 688 891 648 q 1022 934 1022 819 q 966 1057 1022 1013 q 815 1101 910 1101 q 458 989 656 1101 q 201 768 309 907 q 93 520 93 628 q 111 448 93 478 q 251 380 149 380 q 423 416 326 380 q 498 450 465 431 q 558 488 531 468 q 751 756 704 600 q 774 782 756 780 q 788 776 783 784 q 788 756 793 768 q 766 690 777 720 q 741 638 755 660 q 674 550 715 593 q 577 464 633 507 q 433 386 518 420 q 251 351 333 351 q 70 438 122 351 q 29 591 29 506 q 90 796 29 694 q 280 992 156 906 q 745 1144 495 1144 q 988 1080 910 1144 q 1055 924 1055 1027 q 964 659 1055 798 q 903 578 938 620 q 820 490 867 536 q 718 389 758 430 q 658 325 677 348 q 528 86 528 172 q 579 31 528 31 q 834 147 652 31 q 964 235 905 192 q 1074 322 1024 279 q 1321 587 1237 460 q 1479 827 1399 706 q 1643 1075 1559 949 q 1693 1094 1652 1081 q 1735 1106 1717 1101 q 1767 1114 1753 1111 q 1796 1111 1793 1118 q 1610 831 1800 1100 q 1444 598 1500 676 q 1385 515 1388 519 q 1303 391 1345 453 q 1221 267 1262 329 q 1131 69 1131 122 q 1173 31 1131 31 q 1284 75 1235 31 q 1299 78 1305 94 q 1283 28 1293 62 q 1266 -47 1273 -5 q 1275 -125 1259 -90 q 1289 -195 1292 -161 q 1270 -257 1287 -229 q 1226 -306 1253 -286 q 1167 -334 1199 -326 q 1123 -342 1145 -343 q 1084 -335 1102 -341 q 1054 -318 1066 -329 q 1039 -295 1042 -308 q 1045 -194 1021 -258 q 1095 -139 1063 -158 q 1107 -132 1102 -134 q 1118 -127 1112 -129 q 1164 -129 1146 -116 q 1181 -170 1181 -141 q 1168 -190 1181 -184 q 1157 -183 1157 -195 q 1100 -154 1143 -137 q 1084 -168 1092 -159 q 1068 -194 1075 -177 q 1066 -275 1046 -239 q 1089 -298 1074 -294 q 1132 -295 1105 -302 q 1150 -286 1142 -291 q 1167 -275 1159 -282 q 1193 -250 1182 -264 q 1210 -218 1203 -236 q 1223 -178 1221 -197 q 1223 -143 1225 -159 q 1218 -98 1216 -122 q 1227 -51 1220 -75 q 1243 -5 1234 -27 q 1262 35 1253 16 "},"t":{"x_min":-64.125,"x_max":591.6875,"ha":365,"o":"m 580 834 q 557 804 569 819 q 530 767 545 788 q 493 713 515 745 q 437 633 470 681 q 479 633 461 636 q 509 621 494 630 q 527 591 523 612 q 518 560 527 572 q 497 542 509 548 q 473 533 486 536 q 454 530 461 530 l 366 530 q 343 492 361 520 q 302 428 325 463 q 258 359 280 393 q 223 305 236 325 q 154 196 179 238 q 120 129 130 154 q 109 93 109 104 q 112 79 109 81 q 135 84 118 76 q 175 108 152 93 q 223 143 197 123 q 275 184 250 163 q 438 334 398 283 q 520 336 477 383 q 529 300 533 318 q 513 268 526 283 q 319 93 452 191 q 161 -9 225 23 q 40 -40 97 -43 q -37 -4 -12 -33 q -63 50 -62 25 q -58 127 -65 94 q -39 188 -51 161 q -13 238 -27 215 q 15 283 1 261 q 48 331 23 297 q 102 404 73 365 q 156 478 130 443 q 195 530 183 513 q 154 530 172 526 q 126 544 138 533 q 113 579 113 555 q 120 604 111 594 q 142 621 129 615 q 168 630 155 627 q 187 633 180 633 l 275 633 q 412 804 361 744 q 487 883 463 863 q 562 893 522 911 q 580 834 609 875 "},"¬":{"x_min":23,"x_max":2030.109375,"ha":1779,"o":"m 2030 1043 q 1959 925 2025 979 q 1824 872 1892 872 q 1816 881 1814 872 q 1825 888 1816 890 q 1916 918 1859 884 q 1977 980 1974 952 q 1956 990 1977 986 q 1911 1045 1908 1000 q 1931 1088 1912 1070 q 1973 1107 1951 1107 q 2016 1091 2000 1108 q 2030 1043 2031 1073 m 1740 1093 q 1666 936 1740 1034 q 1527 795 1599 845 q 1255 683 1398 704 q 1117 459 1166 529 q 945 254 1039 346 q 1370 53 1157 58 q 1538 91 1484 50 q 1571 104 1559 106 q 1571 81 1588 101 q 1316 -25 1479 -30 q 911 223 1136 -19 q 395 -15 659 -2 q 127 52 231 -21 q 23 240 23 127 q 27 283 23 261 q 174 490 52 413 q 424 558 282 558 q 523 548 475 558 q 741 445 635 524 q 888 311 791 408 q 1046 486 971 383 q 1177 677 1054 496 q 1116 677 1148 677 q 1086 693 1086 677 q 1120 713 1086 714 q 1202 713 1161 711 q 1473 1043 1357 937 q 1677 1150 1588 1150 q 1740 1093 1740 1150 m 1647 1108 q 1502 1024 1584 1108 q 1275 720 1387 910 q 1492 805 1401 743 q 1637 948 1580 865 q 1689 1071 1689 1023 q 1647 1108 1689 1108 m 856 284 q 495 519 663 494 q 423 525 459 525 q 192 458 296 525 q 72 262 72 383 q 142 136 72 187 q 328 86 212 86 q 396 90 362 86 q 856 284 655 122 "},"ù":{"x_min":-23,"x_max":781.171875,"ha":643,"o":"m 771 293 q 583 125 711 220 q 329 -1 400 -10 q 254 87 256 8 q 154 23 208 48 q 52 -1 90 -6 q -23 89 -23 8 q -20 114 -23 101 q 110 326 -7 182 q 296 542 278 532 q 322 549 307 549 q 340 539 340 550 q 289 451 340 526 q 191 307 207 333 q 114 184 127 207 q 83 91 87 132 q 107 45 77 45 q 132 52 119 45 q 406 314 243 100 q 574 542 485 425 q 600 549 585 549 q 618 539 618 550 q 567 451 618 526 q 468 307 485 334 q 361 88 370 154 q 385 47 354 47 q 579 162 438 47 q 749 318 706 263 q 764 325 754 325 q 781 311 781 325 q 771 293 781 302 m 499 604 q 490 595 497 595 q 328 695 371 666 q 310 731 308 708 q 343 765 313 765 q 372 755 358 765 q 458 645 421 687 q 482 624 470 636 q 499 604 499 609 "},"Ф":{"x_min":-244.796875,"x_max":1713.109375,"ha":1600,"o":"m 1634 1038 q 1356 928 1478 959 q 1141 900 1234 897 q 1136 858 1139 879 q 1129 815 1134 837 q 1112 761 1121 788 q 1091 705 1102 734 q 1237 822 1159 781 q 1389 871 1316 863 q 1525 854 1463 879 q 1623 776 1587 830 q 1661 638 1659 722 q 1617 444 1663 554 q 1547 319 1595 379 q 1438 210 1499 259 q 1310 125 1377 161 q 1180 75 1242 90 q 1081 61 1135 63 q 979 78 1027 59 q 901 141 931 97 q 875 269 870 186 q 856 241 865 255 q 838 212 848 227 q 473 -218 659 -68 q 50 -437 237 -411 q -140 -408 -62 -454 q -227 -305 -204 -370 q -241 -245 -237 -280 q -216 -52 -254 -151 q -176 24 -198 -8 q -127 79 -154 56 q -76 101 -105 97 q -27 93 -48 105 q -1 62 -5 81 q -7 5 6 33 q -45 -30 -22 -22 q -84 -29 -65 -38 q -108 -2 -104 -19 q -118 15 -111 13 q -141 5 -131 16 q -176 -62 -158 -11 q -190 -193 -198 -126 q -181 -227 -188 -211 q 25 -329 -144 -352 q 362 -181 173 -308 q 731 154 562 -48 q 765 193 750 175 q 794 230 780 212 q 809 252 801 241 q 823 275 816 263 q 682 159 759 198 q 531 116 605 120 q 393 140 456 112 q 290 225 329 168 q 248 366 252 281 q 288 559 244 451 q 359 681 311 623 q 470 787 408 740 q 600 868 531 834 q 731 918 669 902 q 831 926 775 929 q 936 897 887 923 q 1017 819 985 872 q 1041 677 1048 766 q 1072 754 1057 718 q 1099 827 1088 791 q 1104 865 1101 847 q 1110 901 1107 883 q 946 950 1007 909 q 861 1041 885 991 q 850 1138 837 1091 q 910 1205 864 1184 q 955 1213 930 1215 q 1002 1204 979 1212 q 1044 1183 1024 1195 q 1076 1156 1063 1170 q 1129 1057 1112 1118 q 1144 926 1146 997 q 1351 971 1228 929 q 1642 1120 1474 1013 q 1684 1133 1663 1133 q 1711 1122 1705 1133 q 1701 1090 1717 1111 q 1634 1038 1685 1069 m 927 445 q 961 511 945 480 q 991 570 977 543 q 1006 706 1011 651 q 984 795 1002 761 q 938 847 966 830 q 879 872 909 865 q 822 877 850 879 q 781 873 795 876 q 617 802 690 851 q 490 691 544 754 q 404 559 437 629 q 357 421 370 488 q 352 296 344 354 q 391 202 361 238 q 463 159 418 170 q 570 162 509 148 q 704 218 630 176 q 862 337 777 261 q 897 395 881 368 q 927 445 913 422 m 1041 577 q 911 329 991 470 q 916 232 905 270 q 947 170 927 194 q 994 134 967 145 q 1045 118 1020 122 q 1091 114 1070 113 q 1123 116 1113 115 q 1286 179 1213 133 q 1413 288 1359 226 q 1502 424 1467 351 q 1550 566 1536 497 q 1556 695 1564 636 q 1517 791 1548 755 q 1448 834 1489 822 q 1352 831 1407 845 q 1225 773 1296 816 q 1070 652 1154 730 q 1055 615 1063 634 q 1041 577 1048 597 m 1004 1147 q 956 1137 975 1151 q 931 1100 938 1123 q 929 1047 924 1076 q 957 993 935 1019 q 1017 947 979 966 q 1113 926 1056 929 q 1113 1005 1117 968 q 1097 1072 1110 1043 q 1062 1120 1085 1101 q 1004 1147 1039 1140 m 912 395 q 911 391 911 394 q 912 395 911 394 "},"ï":{"x_min":-23,"x_max":503.390625,"ha":365,"o":"m 493 293 q 306 125 433 220 q 52 -1 122 -10 q -23 89 -23 8 q -20 114 -23 101 q 110 326 -7 182 q 296 542 278 532 q 322 549 307 549 q 340 539 340 550 q 289 451 340 526 q 190 307 207 334 q 83 88 92 154 q 107 47 77 47 q 302 162 160 47 q 471 318 428 263 q 486 325 477 325 q 503 311 503 325 q 493 293 503 302 m 470 671 q 429 634 467 634 q 394 671 391 634 q 434 710 396 710 q 470 671 472 710 m 326 671 q 285 634 323 634 q 250 671 247 634 q 290 710 252 710 q 326 671 328 710 "},"Ò":{"x_min":18,"x_max":1086,"ha":950,"o":"m 959 1119 q 1051 1024 1017 1099 q 1086 844 1086 950 q 892 316 1086 569 q 599 42 761 144 q 297 -60 437 -60 q 122 -4 195 -60 q 18 241 18 73 q 188 702 18 472 q 641 1084 413 1008 q 672 1084 663 1091 q 649 1062 686 1074 q 491 965 590 1043 q 248 702 347 854 q 125 307 125 512 q 244 42 125 107 q 369 12 300 12 q 851 323 606 12 q 1050 844 1050 576 q 1021 1006 1050 940 q 944 1088 993 1072 q 888 1098 918 1098 q 601 876 749 1098 q 522 655 522 757 q 553 576 522 594 q 595 567 573 567 q 767 691 687 567 q 801 718 790 725 q 801 677 819 709 q 709 579 773 626 q 572 525 637 525 q 507 543 536 525 q 446 677 446 579 q 495 854 446 768 q 676 1051 564 972 q 891 1131 788 1131 q 959 1119 927 1131 m 952 1194 q 945 1186 952 1186 q 781 1286 824 1257 q 765 1322 762 1298 q 797 1356 766 1356 q 826 1346 812 1356 q 912 1236 874 1278 q 936 1215 924 1226 q 952 1194 952 1200 "},"О":{"x_min":18,"x_max":1086,"ha":950,"o":"m 959 1118 q 1051 1023 1017 1098 q 1086 843 1086 949 q 892 316 1086 569 q 599 42 761 144 q 297 -60 437 -60 q 122 -4 195 -60 q 18 241 18 73 q 188 702 18 471 q 641 1084 413 1007 q 672 1084 663 1091 q 650 1062 686 1074 q 491 964 590 1042 q 248 702 347 853 q 125 307 125 512 q 244 42 125 107 q 369 12 300 12 q 851 323 606 12 q 1050 844 1050 576 q 1021 1006 1050 940 q 944 1087 993 1072 q 888 1097 918 1097 q 601 876 749 1097 q 522 655 522 756 q 553 576 522 594 q 595 566 573 566 q 767 691 687 566 q 801 717 790 724 q 801 677 819 709 q 709 578 773 626 q 572 524 637 524 q 506 542 535 524 q 446 677 446 578 q 495 853 446 767 q 676 1051 564 972 q 891 1130 788 1130 q 959 1118 927 1130 "},"&":{"x_min":46.9375,"x_max":1345.609375,"ha":1338,"o":"m 1344 430 q 1267 290 1333 341 q 1225 265 1251 277 q 1164 248 1199 254 q 1084 244 1129 242 q 986 258 1040 245 q 954 153 981 202 q 883 63 926 104 q 789 -5 841 23 q 686 -48 737 -35 q 415 -88 547 -88 q 282 -69 347 -88 q 167 -21 217 -51 q 84 50 116 9 q 51 137 52 91 q 50 228 42 184 q 79 315 58 273 q 132 393 99 356 q 205 463 165 430 q 261 506 234 487 q 315 544 287 526 q 374 578 342 562 q 447 612 405 594 q 411 768 401 700 q 464 890 420 837 q 575 984 508 943 q 711 1058 642 1025 q 1069 1142 879 1142 q 1182 1128 1134 1142 q 1258 1087 1230 1115 q 1297 986 1297 1047 q 1219 816 1297 894 q 1084 754 1159 754 q 1058 757 1076 754 q 1022 771 1041 760 q 989 808 1003 783 q 976 879 976 833 q 979 911 976 894 q 989 942 982 928 q 1003 966 995 957 q 1023 979 1012 976 q 1078 953 1060 990 q 1080 938 1080 948 q 1078 915 1080 928 q 1076 891 1077 903 q 1078 876 1076 880 q 1100 872 1081 865 q 1139 898 1119 879 q 1173 943 1159 916 q 1178 994 1187 969 q 1139 1026 1166 1018 q 1074 1035 1113 1035 q 930 1012 1002 1035 q 783 946 858 989 q 662 839 705 901 q 643 802 651 823 q 633 758 635 780 q 631 716 630 736 q 641 686 633 697 q 687 699 667 694 q 726 707 708 704 q 764 711 745 709 q 806 714 783 712 q 922 695 877 716 q 972 620 966 673 q 940 533 977 565 q 833 491 902 502 q 766 486 805 486 q 646 497 698 486 q 554 534 594 508 q 455 475 502 512 q 358 383 408 438 q 282 272 308 326 q 264 165 257 219 q 289 112 269 136 q 340 71 309 88 q 409 45 371 54 q 493 36 448 36 q 655 58 575 36 q 794 130 729 77 q 863 245 865 190 q 827 289 859 272 q 716 292 794 306 q 680 279 700 290 q 646 257 661 269 q 624 237 632 245 q 625 230 616 229 q 643 224 634 231 q 657 205 651 216 q 667 181 664 194 q 671 161 671 169 q 645 94 671 116 q 573 72 619 72 q 488 119 515 72 q 472 177 472 144 q 569 354 472 272 q 852 445 684 454 q 1024 412 929 441 q 1104 389 1074 397 q 1145 380 1134 381 q 1208 398 1180 376 q 1211 405 1213 402 q 1203 410 1209 408 q 1189 415 1197 412 q 1176 423 1181 417 q 1154 483 1151 447 q 1192 548 1158 526 q 1266 561 1227 570 q 1331 517 1312 551 q 1344 430 1349 483 m 851 608 q 835 618 851 615 q 796 622 819 622 q 751 618 774 622 q 714 605 728 613 q 744 593 721 597 q 789 589 766 588 q 832 595 813 590 q 851 608 851 600 "},"˝":{"x_min":41,"x_max":421.546875,"ha":446,"o":"m 397 1216 q 304 1171 392 1213 q 214 1129 217 1129 q 207 1137 207 1129 q 283 1205 211 1142 q 363 1273 354 1268 q 392 1282 377 1282 q 421 1252 421 1282 q 397 1216 421 1230 m 231 1216 q 138 1171 225 1213 q 47 1129 50 1129 q 41 1137 41 1129 q 116 1205 45 1142 q 196 1273 188 1268 q 225 1282 210 1282 q 254 1252 254 1282 q 231 1216 254 1230 "},"I":{"x_min":-22.390625,"x_max":1423.609375,"ha":1151,"o":"m 1277 1058 q 1213 1077 1248 1077 q 1141 1065 1179 1077 q 1067 1032 1104 1052 q 997 991 1030 1012 q 917 930 963 970 q 824 838 870 890 q 735 722 777 786 q 668 593 693 659 q 598 329 615 444 q 593 162 581 215 q 702 218 645 186 q 816 295 758 251 q 934 397 875 340 q 1051 527 993 454 q 1160 682 1106 598 q 1249 843 1213 766 q 1295 979 1284 920 q 1277 1058 1305 1037 m 1361 1146 q 1408 1080 1393 1122 q 1423 982 1423 1039 q 1301 577 1423 807 q 955 152 1168 325 q 879 92 915 119 q 806 42 843 65 q 730 1 769 19 q 645 -33 691 -16 q 652 -66 651 -48 q 647 -100 652 -84 q 631 -127 643 -116 q 601 -139 620 -139 q 562 -124 577 -139 q 533 -70 547 -109 q 420 -90 479 -83 q 286 -97 361 -97 q 177 -88 227 -97 q 86 -58 126 -79 q 19 -4 47 -37 q -18 73 -8 27 q -6 209 -30 144 q 59 315 16 275 q 113 352 86 340 q 168 366 140 363 q 206 356 187 368 q 238 326 226 345 q 252 282 251 306 q 236 233 252 258 q 196 195 216 205 q 159 185 176 186 q 130 186 143 184 q 113 183 118 188 q 104 163 109 176 q 97 134 100 149 q 97 103 95 119 q 106 76 98 87 q 165 52 122 55 q 263 56 208 48 q 376 79 318 63 q 480 115 434 95 q 472 155 475 138 q 470 188 470 172 q 471 221 470 204 q 472 263 472 238 q 679 854 487 597 q 945 1096 788 1001 q 1225 1185 1094 1185 q 1361 1146 1305 1185 "},"G":{"x_min":-51.625,"x_max":1421.109375,"ha":1169,"o":"m 651 -202 q 587 -193 625 -194 q 506 -195 550 -191 q 414 -209 462 -200 q 316 -230 366 -218 q 151 -300 204 -258 q 109 -387 98 -343 q 130 -412 112 -402 q 175 -426 148 -422 q 231 -428 201 -430 q 286 -419 261 -426 q 427 -372 370 -394 q 524 -326 484 -350 q 593 -272 563 -302 q 651 -202 622 -243 m 1240 1190 q 1346 1163 1308 1187 q 1402 1104 1384 1140 q 1420 1022 1419 1068 q 1416 929 1422 976 q 1384 827 1412 884 q 1322 713 1356 769 q 1252 611 1287 658 q 1195 543 1216 565 q 1063 425 1133 476 q 922 336 994 373 q 693 272 791 272 q 631 278 661 272 q 582 304 601 284 q 559 362 563 325 q 575 461 555 400 q 608 531 584 490 q 659 611 631 573 q 713 676 687 650 q 756 702 740 702 q 780 693 769 702 q 797 670 791 684 q 802 639 804 656 q 787 604 801 622 q 753 556 770 583 q 727 506 736 530 q 722 464 719 481 q 750 444 726 447 q 796 453 761 443 q 879 485 831 463 q 980 539 927 506 q 1079 615 1033 572 q 1154 693 1116 650 q 1225 783 1193 736 q 1278 880 1256 830 q 1304 980 1300 930 q 1289 1031 1306 1013 q 1245 1056 1272 1050 q 1187 1063 1218 1063 q 1134 1059 1156 1062 q 1016 1014 1084 1052 q 879 924 948 976 q 749 815 811 872 q 650 713 687 758 q 584 625 623 683 q 509 498 545 568 q 447 357 473 429 q 422 229 422 286 q 440 153 422 184 q 498 109 459 122 q 596 102 537 95 q 734 143 655 109 q 853 203 801 170 q 943 267 905 236 q 1005 325 981 298 q 1040 370 1029 352 q 1061 393 1047 379 q 1102 409 1076 406 q 1149 411 1129 412 q 1187 409 1169 409 q 1182 387 1187 404 q 1168 349 1177 370 q 1147 303 1159 327 q 1122 259 1136 279 q 1059 174 1086 211 q 1018 112 1033 137 q 982 58 1000 84 q 945 1 965 31 q 900 -64 925 -29 q 847 -143 876 -100 q 893 -166 879 -155 q 912 -188 908 -177 q 912 -211 916 -200 q 904 -234 908 -222 q 886 -252 900 -247 q 853 -259 872 -258 q 813 -255 834 -259 q 775 -243 793 -251 q 701 -326 737 -291 q 620 -394 665 -361 q 556 -435 595 -413 q 473 -477 518 -456 q 381 -512 429 -497 q 291 -533 334 -527 q 38 -519 126 -555 q -51 -408 -48 -483 q -23 -309 -54 -355 q 69 -219 6 -262 q 334 -105 173 -145 q 405 -91 359 -100 q 506 -80 451 -83 q 618 -81 561 -77 q 726 -101 676 -84 q 746 -72 738 -83 q 763 -49 754 -62 q 784 -13 772 -36 q 819 51 797 9 q 750 17 800 33 q 644 -9 701 1 q 531 -25 587 -20 q 445 -23 476 -29 q 319 19 366 -9 q 247 86 272 48 q 215 168 222 123 q 208 256 208 212 q 267 485 208 363 q 444 745 326 606 q 820 1059 600 933 q 933 1115 875 1090 q 1047 1159 991 1141 q 1152 1184 1102 1176 q 1240 1190 1202 1193 "},"`":{"x_min":135.90625,"x_max":324.890625,"ha":293,"o":"m 324 1100 q 317 1092 324 1092 q 154 1191 197 1164 q 136 1227 134 1204 q 169 1261 138 1261 q 198 1251 184 1261 q 284 1141 247 1183 q 308 1121 295 1132 q 324 1100 324 1105 "},"·":{"x_min":287.859375,"x_max":387.359375,"ha":407,"o":"m 386 444 q 364 402 382 419 q 327 385 347 385 q 295 402 307 385 q 289 444 284 419 q 310 486 293 469 q 347 504 327 504 q 379 486 368 504 q 386 444 390 469 "},"¿":{"x_min":256.0625,"x_max":932.015625,"ha":956,"o":"m 863 901 q 823 947 823 901 q 844 1002 823 976 q 891 1028 865 1028 q 932 980 932 1028 q 911 927 932 952 q 863 901 890 901 m 904 780 q 750 606 894 700 q 538 483 644 545 q 332 184 332 336 q 376 73 332 116 q 502 30 420 30 q 668 91 593 30 q 750 241 744 152 q 727 326 754 295 q 652 355 700 356 q 565 326 607 352 q 513 251 518 295 q 513 230 513 240 q 501 216 512 216 q 487 252 484 216 q 548 351 491 308 q 657 391 601 391 q 759 352 722 391 q 793 248 797 312 q 687 66 786 142 q 488 -6 595 -6 q 314 60 380 -6 q 257 234 248 126 q 352 452 265 366 q 551 573 416 515 q 768 672 751 662 q 863 784 858 722 q 847 827 865 811 q 802 844 830 844 q 732 773 736 844 q 719 765 730 765 q 708 790 705 765 q 807 880 713 880 q 879 850 851 880 q 904 780 908 820 "},"ý":{"x_min":-271,"x_max":774.921875,"ha":635,"o":"m 770 302 q 558 111 729 241 q 298 -26 449 27 q 112 -295 195 -187 q -66 -462 29 -404 q -208 -511 -147 -511 q -271 -452 -271 -511 q -231 -339 -271 -405 q -122 -211 -191 -273 q 233 -15 8 -97 q 306 136 255 31 q 255 87 273 102 q 154 23 209 48 q 52 -1 91 -6 q -22 86 -22 8 q -19 114 -22 100 q 110 326 -7 182 q 297 542 279 532 q 323 549 308 549 q 341 539 341 550 q 290 451 341 526 q 191 307 208 334 q 84 88 92 154 q 108 47 77 47 q 133 52 117 47 q 402 301 249 94 q 609 538 540 487 q 627 544 615 542 q 649 544 641 546 q 654 535 658 542 q 329 22 634 507 q 544 138 470 81 q 744 322 674 238 q 767 322 752 330 q 770 302 780 315 m 212 -56 q -74 -220 36 -125 q -166 -328 -129 -269 q -204 -426 -204 -387 q -169 -467 -204 -467 q -62 -419 -129 -467 q 72 -284 11 -365 q 212 -56 134 -204 m 674 736 q 652 702 673 713 q 523 643 608 683 q 473 616 506 631 q 470 615 472 616 q 467 615 470 615 q 462 623 460 615 q 466 629 462 625 q 617 759 523 681 q 645 768 629 768 q 674 736 677 768 "},"я":{"x_min":-35.15625,"x_max":921.390625,"ha":833,"o":"m 854 536 q 788 445 830 501 q 688 306 747 390 q 572 88 583 155 q 594 47 563 47 q 640 63 611 47 q 700 104 670 80 q 799 184 752 144 q 884 265 845 225 q 909 279 897 279 q 920 269 920 279 q 912 247 923 258 q 737 93 851 176 q 621 18 675 41 q 536 -1 568 -5 q 465 84 461 8 q 469 113 465 98 q 554 256 483 165 q 497 241 526 245 q 441 243 468 237 q 404 234 420 240 q 376 218 388 227 q 352 198 363 209 q 326 175 340 187 q 261 103 288 131 q 213 56 234 75 q 173 27 191 38 q 136 5 155 15 q 72 -4 104 -9 q 16 19 41 0 q -22 69 -8 38 q -34 137 -37 100 q -21 197 -31 165 q 23 262 -11 230 q 61 281 41 275 q 97 286 80 288 q 124 268 113 283 q 133 223 134 254 q 115 178 131 200 q 69 156 100 156 q 43 148 54 156 q 23 126 31 140 q 20 81 13 106 q 47 39 27 55 q 96 25 66 23 q 162 63 126 27 q 197 100 183 86 q 225 129 212 115 q 254 158 238 143 q 291 197 269 173 q 308 211 297 202 q 332 230 319 220 q 360 250 345 240 q 387 266 375 259 q 348 338 354 291 q 352 397 344 369 q 376 454 359 425 q 428 511 400 486 q 493 552 456 536 q 629 565 569 581 q 709 470 698 541 l 709 440 q 715 447 712 443 q 723 455 719 451 q 752 485 743 475 q 773 506 761 495 q 781 516 775 509 q 794 530 787 523 q 806 541 801 537 q 809 544 811 545 q 822 547 813 547 q 839 547 831 548 q 852 543 847 545 q 854 536 856 540 m 658 391 q 674 437 669 416 q 676 480 679 458 q 662 518 675 504 q 634 538 650 531 q 537 520 590 551 q 490 473 515 506 q 449 402 465 440 q 434 327 433 363 q 465 273 434 291 q 598 318 525 254 l 658 391 "},"Ё":{"x_min":25,"x_max":1235,"ha":967,"o":"m 1221 963 q 1193 963 1207 963 q 1132 851 1182 901 q 1021 801 1083 801 q 965 851 965 801 q 996 913 965 881 q 1068 962 1028 945 q 1160 984 1108 980 q 1141 1035 1160 1013 q 1019 1076 1110 1076 q 703 984 862 1076 q 570 865 618 935 q 522 727 522 795 q 550 637 522 673 q 750 674 661 671 q 871 620 865 680 q 766 537 878 555 q 708 533 740 533 q 500 584 585 533 q 271 414 375 531 q 160 191 160 292 q 175 128 160 156 q 416 8 235 8 q 729 74 564 8 q 1029 273 929 156 q 1069 295 1051 299 q 1040 241 1090 292 q 911 134 990 189 q 737 39 818 71 q 346 -39 539 -39 q 43 109 108 -39 q 25 192 25 151 q 175 436 25 315 q 469 605 289 527 q 398 751 389 669 q 665 1026 415 902 q 1005 1107 829 1107 q 1179 1045 1141 1107 q 1194 985 1194 1020 q 1235 971 1235 985 q 1221 963 1235 962 m 1156 959 q 1056 925 1095 950 q 1001 858 1001 887 q 1027 834 1001 834 q 1116 880 1073 834 q 1156 959 1147 912 m 833 620 q 759 648 827 648 q 708 645 736 648 q 576 610 650 637 q 745 565 637 563 q 813 582 790 566 q 833 620 837 598 m 1095 1211 q 1055 1174 1093 1174 q 1019 1211 1016 1174 q 1059 1250 1022 1250 q 1095 1211 1098 1250 m 951 1211 q 911 1174 948 1174 q 875 1211 872 1174 q 915 1250 877 1250 q 951 1211 954 1250 "},";":{"x_min":39.828125,"x_max":432.796875,"ha":475,"o":"m 431 479 q 410 436 427 454 q 373 419 392 419 q 341 436 352 419 q 334 479 330 454 q 355 521 338 504 q 392 539 373 539 q 424 521 413 539 q 431 479 435 504 m 253 48 q 182 -69 249 -16 q 48 -122 115 -122 q 40 -112 38 -122 q 49 -105 40 -103 q 140 -75 83 -109 q 201 -15 198 -41 q 180 -4 201 -8 q 134 51 131 5 q 155 94 135 76 q 196 112 174 112 q 240 95 224 112 q 253 48 255 79 "},"Г":{"x_min":31,"x_max":1869.671875,"ha":1372,"o":"m 1837 1179 q 1869 1122 1869 1162 q 1821 1018 1869 1061 q 1651 954 1754 957 q 759 -62 1266 118 q 504 -111 623 -111 q 279 -24 337 -111 q 253 58 253 13 q 312 190 253 127 q 457 277 371 253 q 587 297 525 297 q 676 284 643 297 q 690 259 700 274 q 662 254 680 245 q 578 268 630 268 q 458 245 516 268 q 361 177 394 222 q 328 86 328 131 q 389 -5 328 25 q 505 -29 436 -29 q 747 18 608 -29 q 1604 958 1239 180 q 1273 1040 1487 963 q 943 1132 1048 1120 q 996 965 991 1051 q 914 658 1004 809 q 707 436 834 525 q 310 296 503 296 q 76 396 154 296 q 31 540 31 454 q 101 768 31 650 q 314 994 176 894 q 862 1174 558 1174 q 808 1219 858 1176 q 768 1264 768 1254 q 783 1274 768 1274 q 918 1171 841 1274 q 987 1164 954 1168 q 1319 1075 1082 1148 q 1623 1004 1532 1008 q 1680 1116 1641 1044 q 1798 1187 1729 1187 q 1837 1179 1819 1187 m 1794 1150 q 1718 1094 1755 1150 q 1670 1002 1709 1084 q 1775 1045 1730 1008 q 1819 1122 1819 1083 q 1794 1150 1819 1150 m 954 958 q 891 1135 947 1054 q 652 1100 774 1137 q 389 964 505 1055 q 206 755 274 872 q 138 535 138 637 q 192 389 138 444 q 342 335 247 335 q 684 465 498 335 q 876 671 801 546 q 954 958 963 814 "},"6":{"x_min":34.71875,"x_max":1213.96875,"ha":1057,"o":"m 1122 1065 q 1190 1000 1166 1037 q 1213 917 1215 963 q 1192 847 1212 873 q 1130 822 1172 822 q 1084 848 1098 822 q 1069 906 1070 874 q 1037 965 1066 944 q 944 986 1008 986 q 640 863 809 986 q 430 673 523 780 q 630 735 525 737 q 825 650 754 735 q 884 444 895 569 q 708 102 865 250 q 354 -46 548 -46 q 122 37 209 -46 q 34 262 34 122 q 193 658 34 451 q 550 970 334 840 q 951 1111 765 1102 q 1122 1065 1043 1115 m 466 551 q 386 423 391 493 q 368 391 386 408 q 326 370 350 373 q 281 384 300 368 q 266 428 263 400 q 211 243 219 332 q 245 116 205 167 q 358 72 286 70 q 573 199 479 76 q 621 276 595 229 q 666 373 647 323 q 695 468 686 423 q 697 537 705 512 q 677 576 688 562 q 654 596 665 590 q 631 604 643 603 q 612 606 620 606 q 466 551 538 607 "},"n":{"x_min":-147.703125,"x_max":774.390625,"ha":603,"o":"m 756 270 q 583 111 697 198 q 418 0 488 37 q 308 -37 348 -37 q 218 -8 256 -37 q 170 79 175 22 q 198 184 166 130 q 297 293 230 237 q 381 366 344 332 q 440 426 418 401 q 473 466 463 451 q 479 483 483 482 q 440 475 470 490 q 370 433 411 459 q 173 257 237 344 q 68 111 123 186 q -43 -33 12 37 q -77 -37 -63 -38 q -105 -30 -91 -36 q -136 -11 -123 -24 q -147 20 -150 1 q -93 110 -144 33 q 55 318 -41 187 q 190 498 141 434 q 248 569 238 562 q 271 579 256 576 q 302 582 286 582 q 342 575 322 583 q 366 548 362 568 q 376 549 366 544 q 402 561 386 554 q 439 575 418 569 q 486 582 461 582 q 569 557 540 582 q 598 480 598 533 q 523 318 598 404 q 447 227 481 269 q 389 154 412 186 q 356 103 366 122 q 352 83 345 84 q 407 103 369 76 q 505 176 445 130 q 597 254 554 215 q 679 333 640 293 q 727 358 697 358 q 772 323 762 358 q 756 270 780 294 "},"¤":{"x_min":35,"x_max":1135,"ha":1178,"o":"m 1135 856 q 1114 847 1135 844 q 1101 847 1108 847 q 1047 753 1090 787 q 975 727 1014 727 q 925 764 925 727 q 1004 853 925 821 q 1071 869 1033 865 q 978 928 1066 928 q 571 766 797 928 q 400 619 471 695 l 794 619 l 761 575 l 362 575 q 314 502 335 538 l 739 502 l 705 458 l 292 458 q 263 335 263 392 q 283 249 263 287 q 522 147 337 147 q 621 155 574 147 q 861 244 754 181 q 978 336 940 290 q 1007 355 994 355 q 1015 347 1015 355 q 996 313 1015 333 q 871 211 928 247 q 629 119 768 148 q 480 104 553 104 q 203 208 283 104 q 160 345 160 260 q 180 458 160 401 l 35 458 l 68 502 l 200 502 q 246 575 219 538 l 90 575 l 123 619 l 282 619 q 360 694 315 657 q 691 895 510 822 q 971 960 851 960 q 1071 935 1039 960 q 1104 870 1103 911 q 1135 856 1135 870 m 1068 843 q 989 811 1018 833 q 961 769 961 790 q 962 762 961 765 q 1026 779 976 743 q 1068 843 1058 801 "},"p":{"x_min":-526.390625,"x_max":830.5625,"ha":657,"o":"m -97 -8 q -76 28 -80 16 q -74 43 -72 40 q -83 41 -76 45 q -97 31 -90 37 q -181 -50 -127 4 q -302 -195 -236 -105 q -362 -284 -340 -245 q -395 -349 -384 -323 q -409 -388 -406 -375 q -409 -404 -412 -402 q -368 -373 -400 -412 q -283 -265 -336 -334 q -229 -197 -252 -226 q -186 -139 -206 -168 q -145 -80 -166 -111 q -97 -8 -125 -50 m 447 481 q 420 493 437 495 q 378 475 402 490 q 323 435 354 461 q 256 379 293 409 l 130 183 q 131 159 129 173 q 137 130 133 144 q 146 105 141 116 q 158 93 151 94 q 204 94 183 86 q 247 122 226 102 q 293 171 269 141 q 344 240 316 201 q 392 315 370 276 q 428 387 413 354 q 448 446 443 420 q 447 481 454 472 m 818 283 q 736 200 781 240 q 620 104 691 159 q 534 41 572 65 q 477 8 495 18 q 367 -33 429 -19 q 244 -38 305 -48 q 119 1 168 -28 q 63 76 70 32 q 20 9 51 57 q -47 -94 -9 -37 q -125 -209 -86 -152 q -194 -305 -165 -266 q -350 -485 -281 -423 q -461 -547 -419 -547 q -526 -476 -526 -547 q -519 -408 -526 -445 q -485 -314 -512 -370 q -404 -179 -458 -258 q -255 9 -350 -101 q -190 80 -234 34 q -91 178 -145 125 q 18 287 -37 232 q 119 391 75 343 q 226 571 216 558 q 254 587 236 582 q 294 590 273 591 q 333 587 318 587 q 345 562 348 586 q 351 565 344 561 q 370 575 358 569 q 399 587 383 582 q 431 594 415 593 q 506 583 477 596 q 551 551 534 571 q 574 507 568 532 q 580 458 580 482 q 548 296 580 391 q 509 205 533 257 q 445 109 486 154 q 486 130 461 114 q 542 170 512 147 q 603 220 572 193 q 662 271 634 247 q 710 315 690 296 q 737 343 730 334 q 781 365 756 365 q 830 318 830 365 q 818 283 830 300 "},"‡":{"x_min":57,"x_max":941.734375,"ha":847,"o":"m 941 772 q 926 729 941 747 q 886 711 911 711 q 800 729 862 711 q 698 748 738 748 q 654 662 675 711 q 575 577 612 625 q 677 596 615 577 q 768 615 738 615 q 804 581 804 615 q 745 523 804 523 q 659 541 720 523 q 561 559 598 559 q 468 407 530 520 q 343 239 426 332 q 84 -90 233 118 l 57 -90 q 297 258 205 108 q 443 443 350 344 q 537 560 473 482 q 443 542 502 560 q 352 525 383 525 q 325 559 325 525 q 382 613 325 613 q 466 596 411 613 q 551 577 522 579 q 598 668 584 630 q 676 748 632 695 q 580 731 640 748 q 491 713 520 713 q 463 747 463 713 q 480 786 463 770 q 522 802 497 802 q 599 785 544 802 q 690 766 654 768 q 775 916 738 840 q 819 1001 808 984 q 895 1050 852 1050 q 926 1025 926 1050 q 876 941 926 994 q 804 870 872 936 q 712 766 745 815 q 818 786 751 768 q 904 804 884 804 q 941 772 941 804 "},"Ю":{"x_min":19.875,"x_max":2489,"ha":2363,"o":"m 2362 1131 q 2454 1036 2420 1111 q 2489 856 2489 962 q 2295 329 2489 582 q 2002 55 2164 157 q 1700 -47 1840 -47 q 1525 8 1598 -47 q 1421 254 1421 86 q 1479 523 1421 389 q 1283 559 1382 546 q 962 159 1157 333 q 628 -52 808 21 q 315 -121 462 -121 q 46 -4 112 -121 q 19 94 19 42 q 158 346 19 214 q 399 509 268 449 q 381 600 381 549 q 440 803 381 698 q 619 1003 504 916 q 868 1136 730 1088 q 1122 1184 1000 1184 q 1343 1118 1265 1184 q 1407 949 1407 1066 q 1300 591 1407 793 q 1494 555 1398 575 q 1591 714 1532 635 q 2044 1096 1816 1020 q 2075 1096 2066 1103 q 2053 1074 2089 1087 q 1894 977 1993 1055 q 1651 714 1750 866 q 1564 538 1594 628 q 1594 531 1579 535 q 1708 494 1637 519 q 1730 464 1736 481 q 1716 452 1728 456 q 1692 455 1704 449 q 1575 499 1680 462 l 1554 505 q 1528 320 1528 413 q 1647 55 1528 120 q 1772 25 1703 25 q 2254 336 2009 25 q 2453 857 2453 589 q 2424 1019 2453 953 q 2347 1100 2396 1085 q 2291 1110 2321 1110 q 2004 888 2152 1110 q 1925 667 1925 769 q 1956 588 1925 606 q 1998 579 1976 579 q 2170 704 2090 579 q 2204 730 2193 737 q 2204 690 2222 722 q 2112 591 2176 638 q 1975 537 2040 537 q 1909 555 1938 537 q 1849 690 1849 591 q 1898 866 1849 780 q 2079 1063 1967 984 q 2294 1143 2191 1143 q 2362 1131 2330 1143 m 1291 1109 q 1159 1140 1241 1140 q 949 1100 1063 1140 q 749 1002 834 1060 q 561 799 633 920 q 489 577 489 677 q 492 544 489 560 q 1023 615 729 619 q 1087 758 1071 683 q 1107 780 1093 778 q 1117 773 1112 780 q 1117 748 1119 765 q 1067 614 1107 681 q 1252 598 1150 611 q 1369 945 1369 802 q 1291 1109 1369 1058 m 1233 566 q 1043 580 1137 577 q 947 481 1004 525 q 646 379 815 379 q 419 473 497 379 q 335 430 375 454 q 150 281 223 365 q 68 114 68 189 q 87 50 68 80 q 278 -20 135 -20 q 659 68 443 -20 q 1010 284 875 157 q 1233 566 1132 399 m 996 580 q 503 505 717 577 q 667 418 540 418 q 918 505 804 418 q 996 580 961 539 "},"S":{"x_min":-10.796875,"x_max":1486.109375,"ha":1178,"o":"m 1486 1055 q 1472 1012 1486 1032 q 1439 976 1458 991 q 1402 951 1420 961 q 1375 939 1384 941 q 1324 940 1347 932 q 1288 976 1301 948 q 1291 1007 1281 993 q 1315 1030 1301 1021 q 1341 1046 1329 1040 q 1354 1053 1354 1051 q 1333 1053 1354 1054 q 1284 1052 1312 1053 q 1228 1048 1256 1051 q 1184 1043 1200 1046 q 1142 1030 1173 1040 q 1077 999 1111 1019 q 1015 948 1043 979 q 986 875 988 918 q 1033 728 981 804 q 1073 674 1045 709 q 1128 596 1101 639 q 1175 510 1155 554 q 1191 431 1194 466 q 1188 362 1193 401 q 1166 281 1183 324 q 1118 193 1150 238 q 1035 105 1087 148 q 907 23 983 62 q 727 -47 831 -15 q 553 -80 637 -75 q 398 -78 469 -86 q 273 -56 327 -71 q 188 -28 219 -41 q 125 6 155 -14 q 70 50 94 27 q 28 97 45 73 q 5 141 11 120 q -6 290 -19 230 q 45 393 6 351 q 142 464 83 435 q 268 518 201 492 q 662 578 426 578 q 904 559 813 578 q 937 550 920 557 q 965 532 954 543 q 979 507 976 522 q 972 474 981 492 q 943 457 966 463 q 893 449 920 451 q 838 447 865 447 q 801 447 812 447 q 369 360 576 447 q 276 312 318 340 q 208 256 234 285 q 175 195 181 226 q 188 138 169 165 q 203 119 191 135 q 246 86 215 103 q 333 55 277 69 q 479 41 388 41 q 629 59 555 41 q 767 104 704 77 q 879 162 830 131 q 954 219 929 194 q 995 262 977 241 q 1024 307 1012 284 q 1041 358 1036 330 q 1047 422 1047 385 q 1020 493 1047 448 q 961 587 994 538 q 897 680 927 636 q 859 747 868 723 q 838 880 833 822 q 875 982 844 937 q 959 1064 905 1028 q 1081 1132 1012 1100 q 1156 1154 1113 1146 q 1243 1163 1198 1162 q 1331 1157 1287 1164 q 1409 1138 1375 1151 q 1465 1104 1444 1125 q 1486 1055 1486 1083 "},"/":{"x_min":86.578125,"x_max":1043.953125,"ha":765,"o":"m 1043 1115 l 167 -65 l 86 -65 l 962 1115 l 1043 1115 "},"y":{"x_min":-304.5625,"x_max":814.828125,"ha":635,"o":"m 143 -120 q 75 -151 104 -136 q 21 -184 47 -166 q -29 -225 -4 -202 q -88 -277 -55 -247 q -132 -331 -116 -306 q -156 -375 -148 -355 q -167 -407 -165 -394 q -169 -427 -169 -420 q -156 -427 -169 -431 q -121 -409 -143 -422 q -71 -375 -100 -397 q -13 -323 -43 -354 q 36 -270 15 -293 q 75 -227 58 -248 q 109 -181 93 -205 q 143 -120 125 -156 m 801 283 q 581 84 756 217 q 460 6 525 40 q 323 -54 395 -27 q 229 -197 275 -132 q 141 -318 183 -262 q -47 -493 55 -429 q -206 -546 -136 -546 q -250 -541 -230 -546 q -282 -525 -269 -537 q -301 -489 -295 -512 q -302 -427 -306 -465 q -281 -368 -300 -402 q -238 -299 -262 -334 q -187 -234 -213 -264 q -143 -187 -161 -204 q -46 -109 -95 -140 q 49 -57 2 -77 q 138 -23 95 -36 q 216 -1 181 -11 q 228 22 222 9 q 241 54 234 35 q 195 18 223 34 q 139 -8 168 2 q 86 -25 111 -19 q 50 -29 62 -32 q -26 4 1 -22 q -54 85 -54 31 q -50 119 -54 102 q 87 348 -37 195 q 222 509 172 452 q 283 572 272 566 q 325 583 300 583 q 361 576 345 585 q 377 540 377 567 q 367 518 377 537 q 340 473 356 499 q 304 417 323 447 q 267 360 284 387 q 237 313 250 333 q 222 290 225 294 q 177 216 198 252 q 140 151 155 180 q 120 103 126 122 q 119 83 113 84 q 150 95 123 77 q 215 147 176 113 q 297 225 254 180 q 379 320 341 270 q 503 477 450 416 q 593 566 556 538 q 604 571 597 567 q 620 576 612 574 q 637 580 629 579 q 651 580 645 581 q 691 558 681 574 q 686 517 701 542 q 667 488 681 510 q 622 418 652 466 q 541 292 591 370 q 416 94 491 213 q 505 144 458 110 q 595 216 552 179 q 672 289 637 254 q 723 345 706 324 q 755 360 738 360 q 788 351 772 360 q 814 320 812 338 q 801 283 816 302 "},"g":{"x_min":-311.328125,"x_max":807.140625,"ha":635,"o":"m 131 -137 q 68 -163 93 -152 q 24 -186 44 -175 q -14 -212 4 -197 q -59 -250 -33 -227 q -106 -297 -86 -273 q -145 -350 -127 -322 q -171 -399 -162 -377 q -172 -431 -180 -420 q -144 -427 -169 -437 q -88 -397 -119 -418 q -42 -355 -72 -384 q 20 -289 -12 -326 q 82 -213 52 -252 q 131 -137 112 -173 m 496 473 q 489 484 498 481 q 465 484 480 486 q 432 475 451 481 q 399 458 414 468 q 267 341 331 415 q 126 83 126 181 q 152 85 126 72 q 214 134 178 98 q 275 197 246 165 q 330 263 303 229 q 375 320 346 286 q 430 388 403 355 q 476 446 456 422 q 496 473 496 470 m 794 280 q 711 193 770 248 q 565 71 652 138 q 440 -12 506 27 q 299 -79 373 -53 q 253 -150 274 -118 q 212 -211 233 -182 q 173 -267 192 -240 q 133 -321 153 -293 q -55 -496 45 -435 q -215 -549 -144 -549 q -311 -457 -311 -549 q -266 -326 -311 -400 q -151 -190 -225 -255 q 8 -92 -82 -130 q 212 -12 99 -53 q 213 2 222 5 q 186 -9 205 0 q 141 -29 167 -18 q 90 -39 115 -40 q -28 101 -28 -33 q 67 328 -28 207 q 288 524 160 446 q 390 573 349 559 q 474 591 430 587 q 519 591 497 594 q 556 578 541 589 q 576 560 574 563 q 583 560 578 557 q 595 566 587 563 q 613 572 603 570 q 632 575 623 574 q 647 574 641 576 q 687 553 681 569 q 677 514 692 538 q 655 482 673 507 q 603 404 637 456 q 515 270 569 352 q 387 69 462 188 q 461 115 427 91 q 531 167 495 139 q 638 259 595 216 q 716 342 681 302 q 747 357 731 357 q 780 348 763 357 q 806 317 803 335 q 794 280 809 299 "},"–":{"x_min":154,"x_max":779,"ha":825,"o":"m 779 396 l 749 350 l 154 350 l 181 396 l 779 396 "},"ë":{"x_min":18,"x_max":704.109375,"ha":567,"o":"m 698 323 q 691 287 712 312 q 479 104 624 208 q 163 -19 304 -19 q 74 3 111 -19 q 18 114 18 39 q 149 375 18 238 q 329 510 230 457 q 494 563 427 563 q 557 525 557 563 q 493 416 557 487 q 373 311 436 355 q 146 209 266 234 q 133 132 133 166 q 167 54 133 79 q 240 34 198 34 q 458 124 331 34 q 663 308 580 212 q 698 323 687 333 m 500 532 q 391 490 462 532 q 252 380 316 445 q 162 245 198 325 q 352 337 257 270 q 469 436 414 380 q 524 516 524 491 q 500 532 524 532 m 619 664 q 578 627 616 627 q 543 664 540 627 q 584 703 545 703 q 619 664 621 703 m 475 664 q 434 627 472 627 q 399 664 396 627 q 440 703 401 703 q 475 664 477 703 "},"ƒ":{"x_min":-956.109375,"x_max":745.40625,"ha":774,"o":"m 468 547 q 332 629 382 547 q 291 790 291 698 q 302 872 291 836 q 368 976 321 937 q 463 1013 412 1013 q 512 1003 488 1013 q 593 864 593 969 q 583 806 593 834 q 541 766 570 766 q 503 810 495 766 q 535 833 509 838 q 557 871 555 831 q 501 972 559 947 q 460 981 481 981 q 338 871 370 981 q 327 789 327 833 q 356 654 327 712 q 447 577 389 590 q 474 575 460 575 q 595 643 542 575 q 664 805 642 705 q 673 886 673 845 q 607 1080 673 1001 q 437 1160 542 1160 q 399 1157 419 1160 q 262 1093 348 1150 q 88 964 212 1058 q 214 798 164 897 q 269 594 269 693 q 259 512 269 551 q 163 329 231 411 q 82 246 156 319 q 39 231 55 218 q 56 268 28 237 q 179 411 150 367 q 231 590 231 493 q 56 939 231 791 q -370 687 -217 728 q -550 665 -453 665 q -822 724 -713 665 q -956 926 -950 794 q -811 1131 -960 1053 q -507 1201 -681 1201 q -429 1195 -467 1201 q 56 990 -157 1160 q 234 1127 177 1090 q 405 1203 328 1192 q 457 1206 431 1206 q 665 1122 585 1206 q 745 915 745 1039 q 670 676 745 790 q 468 547 586 547 m 24 962 q -452 1118 -175 1118 q -774 1058 -643 1118 q -904 876 -918 990 q -776 744 -893 792 q -538 701 -674 701 q -382 721 -449 701 q 24 962 -195 780 "},"б":{"x_min":-8,"x_max":1366.484375,"ha":579,"o":"m 418 152 q 354 95 386 121 q 289 48 322 69 q 396 85 343 63 q 494 142 448 106 q 611 238 633 255 q 630 249 622 249 q 646 236 646 249 q 640 222 646 227 q 585 166 621 201 q 495 96 550 131 q 366 33 440 60 q 197 1 292 6 q 94 -21 137 -21 q -8 79 -8 -21 q 65 269 -8 159 q 271 473 146 386 q 487 560 394 560 q 575 521 550 560 q 606 606 587 561 q 643 704 625 651 q 721 857 678 803 q 817 938 765 911 q 926 973 869 965 q 1044 990 983 982 q 1168 1016 1105 998 q 1293 1078 1230 1033 q 1344 1116 1328 1114 q 1364 1105 1360 1119 q 1364 1069 1368 1091 q 1355 1035 1361 1047 q 1292 955 1332 975 q 1195 930 1253 935 q 1060 926 1137 926 q 886 910 983 926 q 852 898 873 907 q 805 870 830 889 q 755 823 780 851 q 711 758 730 796 q 648 616 679 697 q 589 434 617 534 q 568 361 585 398 q 528 288 551 325 q 475 217 504 251 q 418 152 446 183 m 493 310 q 545 458 545 396 q 488 522 545 522 q 333 451 425 522 q 174 280 243 381 q 102 100 102 174 q 160 37 102 37 q 249 64 202 37 q 342 132 296 91 q 427 221 388 173 q 493 310 467 269 "},"J":{"x_min":-356.125,"x_max":1343,"ha":1110,"o":"m 1297 1071 q 1343 920 1343 1010 q 1124 352 1343 715 q 854 -12 1016 177 q 633 -238 741 -143 q 421 -395 526 -333 q -53 -561 148 -561 q -262 -497 -180 -561 q -296 -467 -280 -483 q -323 -432 -311 -452 q -343 -385 -335 -412 q -356 -319 -351 -358 q -342 -186 -357 -240 q -298 -80 -328 -131 q -265 -30 -286 -58 q -218 20 -244 -2 q -162 59 -191 43 q -101 75 -133 75 q -53 65 -73 75 q -19 41 -33 55 q 1 13 -5 27 q 8 -11 8 -1 q 7 -56 11 -34 q -11 -97 4 -77 q -59 -132 -34 -123 q -107 -139 -84 -141 q -145 -125 -129 -136 q -168 -100 -162 -114 q -176 -102 -169 -100 q -191 -121 -183 -105 q -207 -170 -200 -137 q -214 -262 -214 -202 q -203 -297 -214 -279 q -173 -330 -193 -315 q -125 -356 -152 -346 q -62 -367 -97 -367 q 92 -344 8 -367 q 276 -272 176 -321 q 680 3 490 -169 q 867 203 777 91 q 1042 453 958 314 q 1178 711 1134 599 q 1222 903 1222 823 q 1195 990 1222 960 q 1067 1040 1148 1040 q 822 962 965 1040 q 594 795 692 892 q 408 557 485 694 q 367 481 385 520 q 335 404 348 442 q 320 330 323 366 q 326 261 317 293 q 413 205 342 205 q 665 303 528 205 q 744 371 708 330 q 809 456 781 413 q 855 536 837 499 q 878 588 873 573 q 905 631 888 613 q 945 649 922 649 q 993 624 985 649 q 994 570 1001 599 q 730 199 931 363 q 392 79 577 79 q 149 213 209 79 q 127 330 127 266 q 227 635 127 469 q 483 934 327 801 q 765 1102 609 1040 q 1056 1165 923 1165 q 1297 1071 1222 1165 "},"Ã":{"x_min":40.96875,"x_max":2004,"ha":1650,"o":"m 1852 1046 q 1570 591 1718 851 q 1628 554 1607 572 q 1639 522 1649 537 q 1614 519 1628 506 q 1552 559 1593 537 q 1457 380 1496 459 q 1362 89 1362 184 q 1435 9 1362 9 q 1547 63 1502 9 q 1566 75 1559 77 q 1562 48 1579 72 q 1504 2 1545 24 q 1412 -24 1456 -24 q 1357 -12 1382 -24 q 1272 120 1272 30 q 1319 306 1272 192 q 1485 591 1355 392 q 1295 654 1388 631 q 1049 380 1172 518 q 775 126 897 216 q 449 -26 614 8 q 353 -36 404 -36 q 146 18 228 -36 q 41 218 43 84 q 277 541 38 396 q 779 710 495 675 q 984 724 884 724 q 1272 694 1134 724 q 1678 1064 1610 1019 q 1807 1117 1756 1117 q 1863 1076 1863 1117 q 1852 1046 1863 1061 m 1822 1086 q 1807 1089 1817 1089 q 1721 1058 1777 1089 q 1322 683 1629 1005 q 1504 622 1418 659 q 1711 911 1593 755 q 1822 1054 1799 1026 q 1822 1086 1842 1076 m 1242 666 q 985 692 1118 692 q 702 665 849 692 q 287 509 471 622 q 79 241 79 382 q 80 212 79 227 q 295 68 105 68 q 466 94 377 68 q 773 245 624 140 q 1038 471 882 320 l 1242 666 m 2004 1243 q 1974 1195 2001 1215 q 1915 1175 1947 1175 q 1831 1198 1884 1175 q 1747 1222 1777 1222 q 1706 1203 1727 1222 q 1683 1184 1684 1184 q 1678 1191 1678 1184 q 1710 1244 1680 1219 q 1775 1269 1740 1269 q 1865 1241 1805 1269 q 1941 1213 1924 1213 q 1979 1231 1965 1213 q 1994 1250 1992 1250 q 2004 1243 2004 1250 "},"у":{"x_min":-272.21875,"x_max":711.203125,"ha":635,"o":"m 706 237 q 556 111 727 241 q 297 -26 448 28 q 111 -295 194 -187 q -68 -462 27 -404 q -209 -511 -148 -511 q -272 -452 -272 -511 q -232 -339 -272 -405 q -123 -210 -193 -273 q 231 -15 6 -97 q 305 136 254 32 q 254 87 272 103 q 152 23 208 48 q 51 -1 90 -6 q -23 86 -23 8 q -20 114 -23 100 q 109 326 -8 182 q 295 542 277 532 q 322 549 306 549 q 340 539 340 550 q 288 451 340 526 q 190 307 206 334 q 83 89 91 154 q 106 47 76 47 q 131 52 116 47 q 401 301 248 94 q 608 539 538 487 q 626 544 613 542 q 648 544 640 546 q 652 535 656 542 q 327 22 633 507 q 543 139 469 82 q 680 257 673 239 q 704 257 688 265 q 706 237 716 250 m 211 -56 q -76 -220 34 -124 q -168 -328 -130 -269 q -205 -426 -205 -387 q -170 -466 -205 -466 q -63 -419 -130 -466 q 71 -284 9 -365 q 211 -56 133 -203 "},"Ј":{"x_min":-305.625,"x_max":1304,"ha":1110,"o":"m 1267 1048 q 1304 923 1304 1001 q 1093 379 1304 730 q 827 21 990 208 q 406 -353 608 -232 q -44 -512 144 -512 q -227 -456 -157 -512 q -300 -342 -287 -409 q -305 -281 -305 -312 q -254 -94 -305 -185 q -147 24 -207 -12 q -93 39 -120 39 q -45 24 -65 39 q -25 -9 -26 10 q -38 -64 -20 -39 q -82 -95 -57 -89 q -120 -88 -102 -101 q -138 -59 -137 -76 q -147 -39 -140 -42 q -172 -46 -158 -35 q -215 -109 -193 -64 q -247 -235 -247 -171 q -244 -271 -247 -253 q -54 -401 -225 -401 q 301 -302 95 -401 q 714 -20 518 -198 q 1083 436 911 157 q 1268 906 1268 733 q 1230 1020 1268 980 q 1072 1083 1172 1083 q 807 1001 957 1083 q 571 828 675 930 q 378 582 461 724 q 285 312 285 423 q 293 255 285 281 q 419 169 319 169 q 694 275 548 169 q 847 435 778 335 q 922 578 900 513 q 950 612 935 612 q 958 585 965 612 q 710 238 900 391 q 398 126 569 126 q 195 235 243 126 q 177 334 177 280 q 270 617 177 460 q 517 905 364 774 q 786 1066 636 1006 q 1061 1126 936 1126 q 1267 1048 1205 1126 "},"‐":{"x_min":154,"x_max":584.546875,"ha":615,"o":"m 584 396 l 555 350 l 154 350 l 181 396 l 584 396 "},"©":{"x_min":69,"x_max":902,"ha":956,"o":"m 902 547 q 779 253 902 375 q 485 131 657 131 q 191 253 313 131 q 69 547 69 375 q 191 842 69 721 q 485 964 313 964 q 779 842 657 964 q 902 547 902 721 m 867 547 q 755 817 867 705 q 485 929 643 929 q 215 817 327 929 q 104 547 104 705 q 215 277 104 389 q 485 166 327 166 q 755 277 643 166 q 867 547 867 389 m 705 813 l 669 650 l 657 650 q 616 728 651 695 q 523 765 577 765 q 473 756 499 765 q 359 666 406 735 q 311 490 309 588 q 356 362 312 407 q 458 321 397 321 q 514 330 487 321 q 560 370 532 336 q 610 406 588 405 q 612 400 613 405 l 592 334 q 409 264 521 257 q 288 325 333 269 q 243 465 243 380 q 256 558 243 509 q 383 748 291 671 q 573 819 476 824 q 666 781 634 816 q 677 780 671 776 q 684 790 681 783 l 692 813 l 705 813 "},"˘":{"x_min":77.078125,"x_max":419.984375,"ha":474,"o":"m 418 1282 q 351 1182 403 1234 q 214 1119 287 1120 q 100 1175 137 1116 q 78 1275 72 1220 q 98 1308 80 1308 q 109 1299 105 1308 q 114 1278 114 1290 q 145 1208 112 1241 q 226 1177 178 1175 q 326 1211 278 1178 q 386 1282 371 1243 q 411 1308 397 1309 q 418 1282 423 1306 "},"D":{"x_min":10.15625,"x_max":1431,"ha":1231,"o":"m 531 656 q 415 556 461 602 q 337 466 370 511 q 277 375 304 422 q 216 272 250 329 q 186 218 202 248 q 159 159 170 187 q 140 109 147 130 q 140 81 134 87 q 168 104 143 75 q 231 184 194 133 q 315 302 269 236 q 404 434 361 368 q 481 559 447 500 q 531 656 515 619 m 869 131 q 915 176 887 147 q 874 178 898 176 q 826 181 850 180 q 784 184 802 183 q 763 186 766 186 q 652 175 704 186 q 557 148 600 163 q 484 115 515 133 q 437 86 454 98 q 390 46 405 62 q 384 2 376 30 q 389 -2 384 1 q 411 -11 394 -6 q 460 -15 427 -15 q 548 -11 493 -16 q 645 10 597 -5 q 735 47 693 26 q 812 90 777 68 q 869 131 847 113 m 967 232 q 1058 351 1011 284 q 1144 492 1106 418 q 1206 643 1182 566 q 1231 793 1231 719 q 1212 907 1231 868 q 1168 965 1193 947 q 1117 986 1143 983 q 1075 989 1090 989 q 753 869 935 989 q 658 657 704 754 q 567 477 611 559 q 486 334 525 400 q 411 211 447 268 q 558 272 475 247 q 678 295 619 290 q 784 297 736 300 q 866 287 832 294 q 914 275 900 280 q 944 257 929 268 q 967 232 960 245 m 1156 1140 q 1431 877 1431 1128 q 1422 780 1431 834 q 1303 445 1397 629 q 1165 234 1240 327 q 996 68 1089 140 q 482 -136 737 -136 q 403 -131 442 -136 q 337 -115 365 -126 q 283 -73 306 -102 q 257 -16 260 -44 l 257 11 q 118 -70 178 -70 q 35 -35 61 -70 q 10 62 10 0 q 33 191 10 120 q 101 345 57 261 q 365 701 200 529 q 499 829 431 770 q 649 943 567 887 q 660 974 653 952 q 676 1020 668 995 q 693 1070 685 1045 q 706 1108 701 1094 q 783 1156 728 1166 q 828 1132 817 1152 q 832 1056 839 1112 q 933 1094 892 1077 q 1008 1121 974 1110 q 1077 1137 1043 1133 q 1156 1140 1111 1141 "},"ÿ":{"x_min":-271,"x_max":774.921875,"ha":635,"o":"m 770 302 q 558 111 729 241 q 298 -26 449 27 q 112 -295 195 -187 q -66 -462 29 -404 q -208 -511 -147 -511 q -271 -452 -271 -511 q -231 -339 -271 -405 q -122 -211 -191 -273 q 233 -15 8 -97 q 306 136 255 31 q 255 87 273 102 q 154 23 209 48 q 52 -1 91 -6 q -22 86 -22 8 q -19 114 -22 100 q 110 326 -7 182 q 297 542 279 532 q 323 549 308 549 q 341 539 341 550 q 290 451 341 526 q 191 307 208 334 q 84 88 92 154 q 108 47 77 47 q 133 52 117 47 q 402 301 249 94 q 609 538 540 487 q 627 544 615 542 q 649 544 641 546 q 654 535 658 542 q 329 22 634 507 q 544 138 470 81 q 744 322 674 238 q 767 322 752 330 q 770 302 780 315 m 212 -56 q -74 -220 36 -125 q -166 -328 -129 -269 q -204 -426 -204 -387 q -169 -467 -204 -467 q -62 -419 -129 -467 q 72 -284 11 -365 q 212 -56 134 -204 m 614 669 q 573 631 611 631 q 539 669 536 631 q 579 707 541 707 q 614 669 616 707 m 469 669 q 428 631 466 631 q 394 669 391 631 q 434 707 396 707 q 469 669 471 707 "},"ł":{"x_min":11,"x_max":859.609375,"ha":451,"o":"m 859 972 l 856 919 l 702 836 q 533 630 633 743 q 163 290 315 386 q 114 118 114 179 q 175 45 114 45 q 383 157 238 45 q 547 308 472 227 q 576 325 561 325 q 588 312 588 325 q 377 114 588 272 q 106 -15 206 -15 q 66 -8 84 -15 q 11 82 11 12 q 265 597 11 234 l 113 514 l 115 568 l 324 681 q 778 1115 639 1115 q 830 1072 830 1115 q 762 919 830 1022 l 859 972 m 754 1055 q 603 959 707 1065 q 417 732 516 871 l 701 886 q 774 1030 774 988 q 754 1055 774 1051 m 633 798 l 362 649 q 190 348 277 519 q 513 657 347 472 q 633 798 581 731 "},"Ł":{"x_min":23,"x_max":1740,"ha":1624,"o":"m 1740 1093 q 1666 936 1740 1034 q 1527 795 1599 845 q 1254 683 1398 704 q 1191 576 1234 647 l 1438 669 l 1438 622 l 1153 514 q 945 254 1057 362 q 1370 53 1157 58 q 1538 91 1484 50 q 1571 104 1559 106 q 1571 81 1588 101 q 1316 -25 1479 -30 q 911 223 1136 -19 q 395 -15 659 -2 q 127 52 231 -21 q 23 240 23 127 q 27 283 23 261 q 174 490 52 413 q 424 558 282 558 q 523 548 475 558 q 741 445 635 524 q 888 311 791 408 q 1034 467 964 377 l 867 405 l 867 452 l 1081 533 q 1177 677 1111 581 q 1116 677 1148 677 q 1086 693 1086 677 q 1120 713 1086 714 q 1202 713 1161 711 q 1473 1043 1357 937 q 1677 1150 1588 1150 q 1740 1093 1740 1150 m 1647 1108 q 1502 1024 1584 1108 q 1275 720 1387 910 q 1492 805 1401 743 q 1637 948 1580 865 q 1689 1071 1689 1023 q 1647 1108 1689 1108 m 856 285 q 495 519 663 494 q 423 525 459 525 q 192 459 298 525 q 72 264 72 383 q 148 138 72 189 q 346 88 224 88 q 396 90 371 88 q 856 285 642 112 "},"ц":{"x_min":-23.609375,"x_max":709.71875,"ha":643,"o":"m 700 223 q 583 125 711 220 q 497 65 536 90 q 483 33 490 51 q 470 -4 476 15 q 464 -45 465 -24 q 470 -84 463 -66 q 475 -147 481 -117 q 452 -198 469 -176 q 411 -235 436 -220 q 358 -254 386 -249 q 320 -256 338 -259 q 286 -246 301 -254 q 262 -228 272 -238 q 251 -206 252 -217 q 265 -117 241 -173 q 313 -74 286 -88 q 323 -70 320 -72 q 333 -67 326 -67 q 373 -74 359 -61 q 384 -113 387 -87 q 372 -127 381 -126 q 365 -128 368 -130 q 363 -120 362 -126 q 318 -88 355 -80 q 301 -99 309 -92 q 286 -120 293 -106 q 276 -190 262 -156 q 294 -214 281 -209 q 331 -216 306 -219 q 347 -211 340 -213 q 363 -202 355 -209 q 405 -158 388 -187 q 420 -125 416 -141 q 423 -94 425 -109 q 431 -23 416 -59 q 462 43 445 12 q 329 -1 373 -6 q 254 87 255 8 q 154 23 208 48 q 51 -1 90 -6 q -23 89 -23 8 q -20 114 -23 101 q 109 326 -8 182 q 295 542 277 532 q 322 549 306 549 q 340 539 340 550 q 288 451 340 526 q 190 307 206 333 q 113 184 126 207 q 81 91 86 132 q 106 45 76 45 q 131 52 118 45 q 405 314 243 100 q 573 542 484 425 q 600 549 584 549 q 618 539 618 550 q 566 451 618 526 q 468 307 484 334 q 361 89 369 154 q 384 47 354 47 q 579 162 437 47 q 677 248 705 264 q 693 255 683 255 q 709 241 709 255 q 700 223 709 233 "},"Л":{"x_min":41.453125,"x_max":1863.390625,"ha":1650,"o":"m 78 241 q 78 227 78 234 q 80 212 78 219 q 295 68 105 68 q 466 94 378 68 q 773 245 627 141 q 894 339 828 283 q 1038 470 959 395 l 1242 666 q 1536 943 1428 844 q 1678 1064 1643 1041 q 1807 1117 1756 1117 q 1863 1076 1863 1117 q 1852 1046 1863 1061 q 1715 835 1785 948 q 1570 591 1645 722 l 1552 559 q 1500 465 1524 509 q 1457 380 1477 421 q 1362 90 1362 184 q 1435 9 1362 9 q 1548 64 1502 9 q 1566 75 1557 77 q 1562 48 1580 72 q 1505 2 1545 25 q 1412 -23 1457 -23 q 1357 -12 1384 -23 q 1272 120 1272 32 q 1319 307 1272 194 q 1378 421 1337 350 q 1485 591 1418 491 q 1596 753 1539 675 q 1712 911 1652 832 q 1784 1005 1756 969 q 1823 1054 1812 1040 q 1823 1086 1841 1076 q 1807 1089 1814 1089 q 1721 1058 1777 1089 q 1295 654 1631 1007 q 1172 518 1233 586 q 1049 380 1112 450 q 906 234 973 297 q 776 126 838 170 q 614 29 695 66 q 449 -26 533 -8 q 353 -36 409 -36 q 147 18 227 -36 q 41 218 42 86 q 49 281 41 249 q 71 341 58 313 q 103 391 84 369 q 142 426 122 413 q 195 443 167 443 q 258 401 251 443 q 246 356 260 374 q 205 337 231 337 q 166 361 173 337 q 160 372 163 368 q 155 376 158 377 q 121 350 135 368 q 97 313 106 333 q 83 273 87 293 q 78 241 78 254 "},"$":{"x_min":11,"x_max":1143.9375,"ha":964,"o":"m 1129 1004 l 1072 923 q 1127 884 1116 915 q 1127 818 1139 854 q 1100 774 1117 790 q 1068 755 1084 758 q 1023 763 1035 747 q 1022 798 1011 779 q 1039 814 1029 809 q 1049 836 1049 819 q 1036 845 1049 843 q 1018 848 1022 847 q 966 769 995 812 q 907 686 941 733 q 838 587 874 638 q 893 496 878 537 q 903 419 907 455 q 732 169 886 266 q 608 103 667 127 q 471 72 549 79 l 431 13 q 400 -13 418 -2 q 364 -25 381 -25 q 322 -12 336 -25 q 317 27 307 0 q 322 39 318 32 q 332 55 327 47 l 346 75 q 332 77 339 76 q 318 82 325 79 l 279 25 q 251 -4 266 8 q 221 -18 236 -18 q 181 -6 196 -18 q 166 34 166 5 q 170 49 166 40 q 179 68 174 58 q 195 90 185 79 q 89 147 126 115 q 34 209 51 179 q 13 264 16 240 q 11 297 11 288 q 61 422 11 369 q 209 511 112 475 q 350 547 277 536 q 525 552 424 558 l 589 644 q 567 695 572 669 q 562 746 561 722 q 568 791 563 770 q 579 826 574 812 q 613 883 589 855 q 671 931 638 911 q 743 962 704 951 q 821 970 782 973 l 877 1054 q 906 1086 888 1073 q 942 1100 925 1100 q 975 1092 961 1100 q 993 1073 988 1084 q 993 1049 997 1062 q 979 1020 989 1035 l 931 951 q 945 950 935 952 q 961 948 954 948 l 1032 1046 q 1059 1078 1045 1066 q 1091 1090 1074 1090 q 1121 1083 1110 1090 q 1139 1059 1132 1077 q 1142 1031 1146 1044 q 1129 1004 1138 1019 m 737 854 q 711 837 725 851 q 693 815 698 823 q 678 790 686 808 q 673 765 670 772 l 737 854 m 752 476 l 747 470 q 750 448 754 462 q 723 433 745 434 l 569 213 q 593 222 576 213 q 631 243 611 230 q 675 270 652 255 q 713 302 697 286 q 741 338 727 316 q 762 384 755 359 q 768 432 769 408 q 752 476 766 456 m 432 422 q 398 414 412 418 q 369 405 385 411 q 335 393 354 400 q 289 375 317 386 q 195 320 223 347 q 167 268 167 294 q 170 244 167 255 q 184 224 173 233 q 215 208 194 215 q 271 195 236 201 l 432 422 m 662 570 q 671 560 666 565 q 681 550 676 555 q 674 539 677 544 q 666 529 670 534 q 652 531 659 530 q 636 533 644 531 q 649 552 643 543 q 662 570 655 561 m 598 431 q 579 431 588 431 q 563 430 570 430 q 476 306 519 368 q 388 183 433 245 q 405 183 397 183 q 422 181 413 183 q 510 307 466 245 q 598 431 554 369 m 741 683 l 761 663 q 827 757 794 709 q 895 854 861 805 q 879 855 887 855 q 863 856 872 855 q 803 770 833 812 q 741 683 773 727 "},"w":{"x_min":-49.34375,"x_max":1073.15625,"ha":896,"o":"m 730 393 q 709 347 720 376 q 697 300 697 319 q 712 311 702 301 q 733 335 722 322 q 754 363 744 348 q 769 386 763 377 q 783 411 775 397 q 797 438 791 425 q 806 463 804 452 q 804 477 809 473 q 792 472 801 479 q 772 452 783 465 q 750 424 761 440 q 730 393 738 408 m 1059 339 q 1072 303 1075 321 q 1056 271 1070 286 q 990 207 1031 241 q 893 129 948 172 q 825 94 863 107 q 751 79 787 82 q 685 85 715 76 q 643 112 655 93 q 556 38 601 72 q 438 -20 511 4 q 317 -31 366 -44 q 229 16 268 -19 q 190 -6 212 4 q 145 -25 169 -17 q 97 -35 122 -33 q 52 -35 73 -38 q -11 -6 9 -30 q -41 43 -33 16 q -49 91 -50 69 q -48 118 -48 114 q 90 348 -36 193 q 130 395 101 361 q 190 465 159 429 q 248 530 222 501 q 280 562 275 558 q 336 585 311 585 q 372 578 356 587 q 388 541 388 569 q 368 503 388 536 q 319 428 347 469 q 264 348 291 387 q 223 290 237 308 q 120 89 127 151 q 147 102 120 83 q 213 155 173 121 q 299 236 252 189 q 386 336 345 283 q 470 451 426 391 q 558 569 513 511 q 584 582 573 579 q 606 585 595 585 q 643 578 626 587 q 659 541 659 569 q 649 521 659 539 q 623 480 638 504 q 588 426 608 455 q 551 369 569 397 q 518 319 533 341 q 495 285 502 296 q 437 194 456 228 q 409 140 418 160 q 400 111 401 121 q 400 94 400 101 q 415 93 400 89 q 459 111 431 97 q 523 149 487 125 q 597 210 559 173 q 592 244 593 222 q 595 291 591 265 q 605 344 598 316 q 625 394 612 371 q 680 482 651 446 q 743 546 709 519 q 862 594 806 594 q 911 579 894 594 q 929 532 929 564 q 840 337 929 462 q 779 253 806 289 q 720 187 752 218 q 745 177 726 176 q 789 187 765 178 q 838 210 813 196 q 883 241 863 225 q 937 291 912 268 q 981 337 962 315 q 1020 361 1001 360 q 1059 339 1040 362 "},"\\":{"x_min":90,"x_max":483.046875,"ha":567,"o":"m 483 -104 l 435 -104 l 90 1172 l 135 1172 l 483 -104 "},"о":{"x_min":-8,"x_max":705.28125,"ha":644,"o":"m 699 227 q 573 141 663 165 q 501 130 531 130 q 417 152 452 130 q 335 81 377 113 q 250 26 293 49 q 168 -8 208 4 q 94 -21 127 -21 q -8 79 -8 -21 q 65 269 -8 159 q 270 473 146 386 q 487 560 394 560 q 590 459 590 560 q 516 269 590 379 q 484 225 501 247 q 448 183 467 204 q 508 165 479 165 q 569 176 531 165 q 670 244 649 201 q 690 254 680 254 q 705 240 705 254 q 699 227 705 233 m 492 310 q 544 458 544 396 q 487 522 544 522 q 333 451 424 522 q 174 280 243 381 q 102 100 102 174 q 160 37 102 37 q 384 173 253 37 q 347 241 347 203 q 374 296 347 273 q 449 321 408 321 q 492 310 477 321 "},"Д":{"x_min":33,"x_max":1365,"ha":1230,"o":"m 1356 804 q 1242 483 1333 657 q 948 119 1124 256 q 462 -75 701 -75 q 342 -55 391 -75 q 283 -8 294 -36 q 277 23 277 6 q 373 162 277 91 q 549 251 453 221 q 731 274 631 274 q 874 255 830 274 q 895 230 910 238 q 824 235 891 227 q 742 245 749 245 q 551 217 649 245 q 392 138 462 191 q 317 28 317 81 q 322 9 317 17 q 455 -35 335 -35 q 658 0 552 -35 q 874 119 781 41 q 1153 481 1048 266 q 1247 838 1247 676 q 1176 1016 1247 976 q 1052 1046 1121 1046 q 698 912 898 1046 q 509 515 595 675 q 98 -10 228 -10 q 33 81 33 -10 q 119 344 33 183 q 376 690 213 520 q 662 932 501 823 q 695 1016 674 966 q 724 1111 708 1057 q 755 1132 733 1136 q 769 1095 774 1129 q 723 970 763 1068 q 1131 1114 967 1120 q 1365 894 1365 1105 q 1356 804 1365 854 m 635 867 q 153 314 331 632 q 79 100 79 178 q 116 48 79 48 q 460 502 203 48 q 635 867 548 656 "},"Ì":{"x_min":18,"x_max":1379,"ha":1192,"o":"m 1333 1113 q 1379 982 1379 1078 q 1262 599 1379 819 q 928 189 1133 355 q 593 -2 772 61 q 617 -69 601 -27 q 601 -92 623 -92 q 581 -78 586 -92 q 559 -14 574 -57 q 295 -53 438 -53 q 33 52 84 -53 q 18 120 18 83 q 90 289 18 219 q 169 328 131 328 q 211 289 211 328 q 199 256 211 271 q 170 242 187 242 q 161 242 165 242 q 83 213 116 255 q 56 122 56 175 q 76 54 56 82 q 201 8 112 8 q 529 92 326 8 q 515 264 512 171 q 712 830 527 582 q 966 1060 817 971 q 1223 1144 1106 1144 q 1333 1113 1290 1144 m 1300 1092 q 1218 1115 1268 1115 q 975 1027 1114 1115 q 733 806 836 939 q 612 576 661 709 q 553 273 559 428 q 564 108 547 189 q 961 366 791 210 q 1233 701 1123 516 q 1339 998 1339 881 q 1300 1092 1339 1065 m 1286 1206 q 1277 1198 1284 1198 q 1113 1298 1156 1269 q 1097 1334 1095 1311 q 1130 1368 1099 1368 q 1158 1358 1144 1368 q 1245 1248 1206 1288 q 1267 1227 1256 1237 q 1286 1206 1286 1211 "},"Ç":{"x_min":3,"x_max":1303.046875,"ha":1032,"o":"m 1303 972 q 1279 963 1301 961 q 1258 963 1269 963 q 1186 836 1245 885 q 1091 802 1142 802 q 1030 847 1030 802 q 1126 959 1030 916 q 1225 984 1170 979 q 1094 1072 1223 1072 q 860 1022 993 1072 q 549 855 703 965 q 229 542 338 705 q 134 273 134 399 q 161 155 134 206 q 486 16 236 16 q 618 27 556 16 q 940 148 797 62 q 1094 273 1037 208 q 1133 297 1116 297 q 1140 294 1139 297 q 1116 248 1150 280 q 950 111 1026 159 q 628 -11 814 26 q 437 -30 530 -30 l 402 -88 q 446 -145 448 -104 q 382 -222 441 -197 q 276 -240 336 -240 q 259 -230 258 -240 q 278 -222 259 -222 q 357 -199 316 -222 q 401 -140 398 -176 q 366 -95 404 -114 q 405 -30 369 -90 q 61 105 161 -23 q 3 290 3 179 q 271 751 3 524 q 715 1019 472 922 q 1087 1104 928 1104 q 1216 1074 1176 1104 q 1261 986 1261 1041 q 1303 972 1304 986 m 1223 959 q 1111 916 1150 947 q 1068 854 1068 884 q 1093 835 1068 835 q 1164 864 1123 835 q 1223 959 1211 897 "},"ъ":{"x_min":25.96875,"x_max":718.0625,"ha":658,"o":"m 373 109 q 340 175 343 141 q 352 241 337 209 q 394 299 366 273 q 454 342 422 326 q 517 361 486 358 q 570 351 548 365 q 598 315 595 335 q 587 266 601 294 q 543 202 573 238 q 470 120 512 166 q 487 119 463 116 q 547 138 511 123 q 626 181 584 153 q 695 252 668 209 q 702 258 700 258 q 708 259 705 259 q 716 251 713 259 q 716 241 719 244 q 704 221 713 234 q 680 192 694 208 q 649 161 666 177 q 612 134 631 145 q 531 98 576 115 q 443 94 487 81 q 384 46 411 65 q 331 16 356 27 q 281 0 306 5 q 226 -12 255 -7 q 98 44 115 -29 q 156 202 81 115 q 192 240 173 222 q 233 277 211 258 q 274 310 248 290 q 324 353 300 331 q 365 397 348 376 q 380 430 381 417 q 368 452 377 444 q 346 467 358 460 q 322 478 334 473 q 301 495 309 484 q 254 439 281 472 q 191 362 227 406 q 66 230 108 263 q 40 217 51 217 q 26 227 27 217 q 38 249 23 238 q 86 297 52 260 q 173 395 120 333 q 273 530 268 503 q 268 576 262 555 q 315 622 280 622 q 348 574 354 622 q 325 530 344 555 q 341 513 327 523 q 384 490 355 503 q 416 424 420 465 q 388 360 413 399 q 330 276 362 320 q 268 188 298 231 q 225 113 237 145 q 209 69 213 87 q 213 35 205 51 q 229 28 218 28 q 265 33 245 27 q 304 51 284 40 q 343 78 325 63 q 373 109 361 92 m 408 136 q 425 147 411 134 q 457 180 440 161 q 493 223 475 200 q 522 268 511 247 q 534 304 533 288 q 519 325 536 320 q 465 315 498 330 q 405 263 431 300 q 378 188 377 227 q 408 136 379 150 "},"C":{"x_min":-40.28125,"x_max":1361.609375,"ha":1032,"o":"m 1170 909 q 1117 886 1131 902 q 1102 868 1102 870 q 1111 859 1102 861 q 1132 863 1120 858 q 1155 880 1144 869 q 1170 909 1166 891 m 1361 973 q 1343 939 1359 958 q 1297 920 1326 920 q 1286 883 1293 898 q 1270 854 1280 868 q 1247 829 1261 841 q 1215 802 1233 818 q 1095 759 1159 759 q 1020 780 1047 759 q 993 847 993 801 q 1001 896 993 872 q 1029 942 1009 920 q 1083 982 1050 964 q 1166 1011 1116 1000 q 1120 1023 1166 1022 q 1002 1012 1073 1025 q 847 971 931 1000 q 686 894 762 943 q 512 775 581 827 q 395 677 443 722 q 318 594 348 633 q 262 516 288 555 q 222 439 240 483 q 193 351 204 395 q 181 267 183 306 q 188 206 180 229 q 256 112 213 144 q 346 67 300 80 q 434 54 393 54 q 498 54 476 54 q 727 94 631 60 q 890 170 822 129 q 938 200 913 184 q 988 233 963 216 q 1032 266 1012 249 q 1066 298 1052 283 q 1099 325 1081 315 q 1136 335 1116 335 q 1160 330 1148 335 q 1179 312 1172 324 q 1183 263 1194 288 q 1148 215 1172 237 q 1058 133 1101 169 q 975 72 1015 98 q 900 25 938 49 q 805 -20 861 1 q 670 -60 750 -43 q 473 -86 590 -77 q 342 -79 408 -90 q 215 -47 276 -69 q 106 5 155 -26 q 27 76 56 37 q -40 287 -40 161 q 244 782 -40 543 q 701 1058 452 959 q 1090 1146 919 1146 q 1145 1142 1115 1146 q 1205 1127 1176 1139 q 1259 1091 1234 1115 q 1297 1027 1283 1068 q 1351 1006 1338 1022 q 1361 973 1363 990 "},"!":{"x_min":74,"x_max":882.265625,"ha":717,"o":"m 882 1051 q 570 581 725 813 q 260 111 415 348 l 118 111 q 399 581 260 348 q 679 1051 539 813 l 882 1051 m 154 -56 q 74 27 74 -56 q 105 103 74 69 q 183 140 139 140 q 264 57 264 140 q 232 -19 264 14 q 154 -56 198 -56 "},"ç":{"x_min":-4.09375,"x_max":685.953125,"ha":549,"o":"m 679 323 q 677 294 693 313 q 458 101 618 216 q 325 20 376 44 q 171 -8 247 -15 l 137 -63 q 182 -120 184 -79 q 118 -197 177 -172 q 12 -215 72 -215 q -4 -205 -5 -215 q 14 -196 -4 -196 q 93 -174 52 -196 q 137 -115 134 -151 q 101 -69 140 -88 q 141 -4 118 -43 q 25 131 25 19 q 90 311 25 210 q 265 482 156 412 q 440 551 366 551 q 514 482 514 551 q 470 371 514 434 q 455 365 466 365 q 425 377 443 366 q 404 395 407 388 q 412 412 400 405 q 442 442 423 419 q 463 491 463 471 q 428 519 463 519 q 327 474 385 519 q 202 337 261 426 q 133 142 133 231 q 223 31 133 31 q 451 134 315 31 q 650 315 582 234 q 679 323 665 333 "},"È":{"x_min":25,"x_max":1234.71875,"ha":967,"o":"m 1220 964 q 1193 964 1206 964 q 1132 851 1181 901 q 1020 802 1083 802 q 965 851 965 802 q 996 914 965 882 q 1067 963 1027 945 q 1159 984 1108 980 q 1141 1035 1159 1013 q 1019 1076 1109 1076 q 702 984 862 1076 q 570 865 618 935 q 522 727 522 795 q 550 637 522 673 q 750 675 661 672 q 870 620 865 680 q 766 537 877 555 q 708 533 740 533 q 500 584 584 533 q 271 415 375 531 q 160 191 160 292 q 175 128 160 156 q 416 8 234 8 q 729 74 564 8 q 1029 273 929 156 q 1069 295 1051 300 q 1040 241 1090 293 q 911 134 990 190 q 737 40 818 72 q 345 -39 538 -39 q 43 109 108 -39 q 25 192 25 151 q 175 436 25 315 q 469 605 288 527 q 398 751 388 669 q 665 1026 415 902 q 1005 1107 829 1107 q 1179 1045 1141 1107 q 1194 986 1194 1020 q 1234 972 1234 986 q 1220 964 1234 962 m 1156 959 q 1056 925 1095 950 q 1001 858 1001 887 q 1027 835 1001 835 q 1116 880 1073 835 q 1156 959 1147 912 m 833 621 q 759 649 827 649 q 708 646 736 649 q 576 611 650 637 q 745 565 637 563 q 813 582 790 566 q 833 621 837 598 m 1018 1156 q 1011 1148 1018 1148 q 847 1248 890 1219 q 830 1284 829 1261 q 862 1318 831 1318 q 891 1308 877 1318 q 977 1198 940 1238 q 1001 1177 990 1187 q 1018 1156 1019 1162 "},"Й":{"x_min":29,"x_max":1796.8125,"ha":1476,"o":"m 1796 1111 q 1610 831 1800 1099 q 1385 515 1391 524 q 1221 267 1303 390 q 1131 69 1131 124 q 1173 31 1131 31 q 1284 75 1235 31 q 1313 86 1303 93 q 1304 51 1325 76 q 1235 6 1282 26 q 1145 -14 1188 -14 q 1082 9 1103 -14 q 1062 73 1062 33 q 1198 394 1062 170 q 1089 297 1145 341 q 530 -15 713 -15 q 473 -3 498 -15 q 410 100 410 25 q 496 291 410 194 q 719 493 559 363 q 922 688 862 609 q 1022 934 1022 819 q 966 1057 1022 1013 q 815 1101 910 1101 q 458 989 656 1101 q 201 768 309 907 q 93 520 93 630 q 111 448 93 478 q 251 380 149 380 q 423 416 327 380 q 558 488 506 448 q 751 756 702 598 q 774 782 758 781 q 788 776 783 784 q 788 756 793 768 q 741 638 768 682 q 577 464 688 549 q 433 386 519 420 q 251 351 334 351 q 70 438 123 351 q 29 591 29 506 q 90 796 29 694 q 280 992 156 906 q 745 1144 496 1144 q 988 1080 909 1144 q 1055 924 1055 1027 q 964 659 1055 797 q 820 490 913 581 q 658 325 698 371 q 528 86 528 171 q 579 31 528 31 q 834 147 652 31 q 1074 322 974 237 q 1321 587 1235 458 q 1643 1075 1475 824 q 1694 1094 1649 1079 q 1767 1114 1739 1110 q 1796 1111 1793 1118 m 1566 1281 q 1500 1181 1551 1232 q 1362 1118 1436 1119 q 1248 1173 1286 1115 q 1226 1271 1220 1217 q 1247 1303 1229 1303 q 1258 1295 1254 1303 q 1262 1274 1262 1287 q 1293 1206 1261 1238 q 1375 1176 1326 1174 q 1475 1210 1426 1177 q 1534 1281 1519 1242 q 1559 1306 1545 1307 q 1566 1281 1572 1305 "},"X":{"x_min":-90.0625,"x_max":1976.328125,"ha":1432,"o":"m 1952 1049 q 1976 944 1976 1005 q 1936 769 1976 845 q 1903 733 1923 745 q 1855 734 1883 720 q 1824 768 1829 745 q 1827 818 1819 791 q 1833 845 1830 826 q 1837 888 1837 865 q 1831 932 1837 911 q 1809 966 1826 954 q 1788 973 1802 972 q 1756 973 1773 974 q 1724 969 1740 972 q 1698 962 1708 966 q 1458 788 1584 916 q 1410 741 1430 761 q 1373 703 1390 722 q 1340 662 1356 684 q 1305 607 1324 640 l 1442 607 q 1401 546 1422 576 q 1360 486 1380 516 l 1234 486 q 1130 278 1161 363 q 1100 126 1100 194 q 1105 94 1100 110 q 1120 65 1111 78 q 1140 44 1129 52 q 1165 35 1152 35 q 1230 44 1209 35 q 1279 73 1251 53 q 1324 89 1301 88 q 1366 70 1347 91 q 1381 24 1386 46 q 1356 -15 1376 2 q 1330 -39 1348 -25 q 1288 -69 1312 -54 q 1237 -96 1265 -83 q 1181 -115 1209 -110 q 1077 -114 1120 -128 q 1006 -70 1033 -101 q 966 7 979 -39 q 953 106 953 53 q 862 23 909 64 q 750 -56 814 -18 q 605 -128 687 -94 q 409 -186 522 -161 q 284 -203 341 -201 q 182 -196 228 -204 q 100 -177 136 -189 q 43 -153 65 -165 q 0 -122 23 -142 q -43 -76 -23 -103 q -76 -15 -63 -50 q -90 60 -90 19 q -76 157 -90 116 q -42 228 -62 199 q -2 275 -23 257 q 30 302 18 294 q 107 326 66 326 q 178 307 151 326 q 211 248 204 288 q 190 171 215 203 q 116 137 164 137 q 91 141 101 137 q 74 149 80 145 q 64 155 68 153 q 57 150 59 156 q 49 130 53 142 q 43 102 46 117 q 42 73 41 88 q 50 48 43 59 q 111 -7 72 7 q 194 -24 150 -22 q 283 -19 239 -26 q 362 -4 328 -11 q 453 18 398 2 q 571 60 508 34 q 700 123 634 87 q 821 206 765 159 q 886 261 854 234 q 950 321 918 288 q 1014 393 982 353 q 1083 486 1047 433 l 983 486 q 895 408 943 444 q 576 307 763 307 q 479 316 533 307 q 377 352 425 325 q 298 428 330 379 q 266 556 266 477 q 295 723 266 650 q 366 852 325 797 q 452 945 408 906 q 525 1006 495 983 q 604 1059 551 1027 q 729 1121 658 1091 q 884 1172 800 1151 q 1055 1193 968 1193 q 1225 1168 1158 1193 q 1331 1102 1293 1143 q 1383 1009 1370 1061 q 1393 906 1397 958 q 1506 1007 1451 968 q 1606 1070 1561 1047 q 1687 1103 1652 1093 q 1738 1116 1722 1113 q 1881 1113 1830 1134 q 1952 1049 1931 1091 m 1162 607 q 1190 656 1173 623 q 1224 728 1208 688 q 1253 809 1241 768 q 1265 884 1265 851 q 1256 956 1265 922 q 1227 1015 1248 990 q 1170 1056 1206 1041 q 1078 1072 1134 1072 q 935 1048 1006 1072 q 805 993 864 1024 q 700 929 745 962 q 638 878 656 896 q 594 832 618 860 q 546 767 570 803 q 501 687 521 731 q 471 592 481 642 q 471 532 464 560 q 493 482 478 503 q 530 446 509 460 q 573 433 550 433 q 632 433 605 433 q 690 442 660 434 q 755 466 720 449 q 838 516 789 482 q 889 564 864 534 q 932 625 913 594 q 964 682 952 656 q 978 720 975 709 q 996 762 981 745 q 1039 780 1012 780 q 1086 760 1074 780 q 1094 712 1098 741 q 1083 657 1091 684 q 1063 606 1074 631 l 1162 607 "},"ô":{"x_min":-8,"x_max":780.890625,"ha":643,"o":"m 775 298 q 573 142 664 165 q 501 131 535 131 q 418 152 453 131 q 251 26 339 74 q 94 -21 162 -21 q -8 79 -8 -21 q 65 269 -8 161 q 271 474 147 389 q 488 560 395 560 q 591 460 591 560 q 517 270 591 378 q 448 184 486 225 q 508 166 479 166 q 569 177 535 166 q 746 315 650 201 q 765 325 755 325 q 780 311 780 325 q 775 298 780 304 m 493 311 q 545 458 545 398 q 488 522 545 522 q 333 451 425 522 q 174 280 242 380 q 102 100 102 173 q 160 37 102 37 q 385 173 253 37 q 347 241 347 203 q 375 297 347 274 q 450 322 408 322 q 493 311 478 322 m 664 631 q 658 627 661 627 l 618 627 l 611 630 q 557 719 585 672 q 410 620 508 687 q 401 627 405 620 q 398 637 396 634 q 578 760 404 650 q 585 763 580 763 q 590 758 586 763 q 661 638 601 744 q 664 631 664 633 "},"Б":{"x_min":32,"x_max":1843.28125,"ha":1551,"o":"m 826 211 q 731 85 783 140 q 622 -9 680 30 q 590 -29 608 -20 q 551 -45 572 -37 q 458 -72 502 -66 q 373 -70 413 -77 q 286 -31 323 -59 q 229 48 250 -2 q 211 152 208 97 q 240 238 215 206 q 275 268 252 258 q 336 256 319 284 q 341 218 347 237 q 316 191 336 198 q 279 197 291 180 q 271 204 275 200 q 265 205 268 208 q 247 175 252 193 q 240 138 241 156 q 242 103 240 119 q 248 77 244 87 q 254 67 251 72 q 259 55 256 62 q 472 13 327 -44 q 534 45 504 27 q 597 88 565 63 q 651 137 623 109 q 705 196 679 165 q 756 260 731 227 q 800 325 780 293 q 827 371 811 343 q 856 419 844 400 q 959 575 915 508 q 1038 687 1004 641 q 1240 884 1129 806 q 1416 969 1334 952 q 1431 956 1430 970 q 1409 934 1433 941 q 1248 847 1344 919 q 1095 698 1152 776 q 1040 617 1068 661 q 983 519 1013 573 q 1166 627 1075 601 q 1330 627 1258 652 q 1444 527 1402 601 q 1477 338 1486 454 q 1435 213 1468 275 q 1356 102 1402 152 q 1254 15 1309 51 q 1145 -31 1200 -19 q 1043 -37 1098 -41 q 943 -7 987 -33 q 875 70 898 18 q 870 209 851 122 q 882 243 875 230 q 896 260 890 256 q 906 255 902 263 q 904 226 909 247 q 912 84 891 133 q 967 15 933 36 q 1037 -3 1001 -4 q 1090 1 1073 -2 q 1207 55 1154 18 q 1301 154 1261 93 q 1358 267 1337 208 q 1390 390 1379 326 q 1384 516 1401 468 q 1331 588 1366 565 q 1248 613 1297 612 q 1147 596 1200 615 q 1041 540 1094 577 q 947 454 988 504 q 890 344 919 404 q 826 211 861 284 m 1840 891 q 1817 896 1832 879 q 1611 1012 1764 954 q 1225 1071 1457 1071 q 1047 1062 1140 1071 q 853 1039 954 1054 q 338 831 563 990 q 113 519 113 670 q 118 478 113 495 q 361 340 153 340 q 518 362 443 340 q 703 463 611 390 q 765 518 740 494 q 801 562 790 542 q 839 587 819 592 q 836 555 856 585 q 792 500 818 528 q 729 441 765 471 q 522 326 626 352 q 353 304 439 304 q 35 538 72 304 q 32 557 33 548 q 32 576 32 566 q 251 901 32 748 q 832 1105 481 1062 q 978 1120 907 1115 q 1121 1125 1050 1125 q 1622 1046 1411 1125 q 1829 932 1789 983 q 1840 891 1849 905 "},"г":{"x_min":45.328125,"x_max":639.453125,"ha":536,"o":"m 45 256 q 91 319 60 281 q 159 396 123 356 q 232 470 196 435 q 295 521 268 505 q 360 557 332 545 q 412 569 388 569 q 475 554 452 569 q 501 499 498 539 q 482 422 502 459 q 403 334 463 385 q 317 240 348 276 q 272 179 287 204 q 253 134 256 154 q 250 91 250 115 q 253 63 250 79 q 276 49 256 47 q 450 151 327 55 q 494 186 475 170 q 531 217 513 202 q 566 249 550 233 q 602 285 583 265 q 626 299 612 299 q 638 290 637 299 q 630 267 641 278 q 602 236 616 251 q 572 208 588 222 q 536 177 556 194 q 487 140 515 160 q 233 0 305 1 q 160 22 192 0 q 126 86 128 45 q 130 126 126 106 q 145 168 134 147 q 176 213 156 190 q 226 260 195 235 q 363 403 313 335 q 418 516 413 470 q 410 536 419 528 q 382 541 402 544 q 339 520 367 538 q 284 477 312 502 q 162 358 213 414 q 68 233 112 301 l 45 256 "},"х":{"x_min":5.5625,"x_max":763.203125,"ha":714,"o":"m 756 208 q 633 108 788 227 q 379 -10 477 -10 q 297 68 297 -10 q 306 127 297 94 q 77 -7 183 -7 q 5 64 5 -7 q 32 134 5 106 q 91 161 59 161 q 125 131 125 161 q 108 98 125 106 q 72 103 83 86 q 61 106 68 109 q 40 63 40 99 q 73 23 40 23 q 156 68 104 23 q 261 182 209 113 q 350 342 313 250 q 381 474 381 425 q 365 505 381 505 q 323 479 351 505 q 268 425 295 453 q 105 270 194 354 q 91 264 100 264 q 77 278 77 264 q 86 299 77 288 q 244 449 136 345 q 412 549 358 559 q 461 454 461 541 q 451 381 461 420 q 683 555 586 555 q 748 495 748 555 q 712 408 748 447 q 640 380 672 366 q 619 409 619 390 q 648 441 619 441 q 668 431 663 441 q 681 423 673 420 q 706 451 695 430 q 716 490 716 473 q 681 522 716 522 q 411 267 575 522 q 333 76 333 145 q 355 27 333 37 q 381 22 366 22 q 608 128 463 22 q 737 237 665 170 q 729 226 712 206 q 756 231 741 242 q 756 208 769 223 "},"}":{"x_min":-240.28125,"x_max":755.5625,"ha":689,"o":"m 755 1068 q 743 1002 755 1037 q 709 925 731 966 l 516 572 q 497 529 502 547 q 491 498 491 511 q 504 488 491 493 q 535 481 516 484 q 575 475 554 477 q 613 473 595 473 l 566 370 q 489 361 530 370 q 425 333 448 352 q 389 286 418 327 q 321 186 361 245 q 236 56 281 126 q 152 -72 191 -12 q 83 -176 112 -133 q 47 -226 54 -219 q 4 -270 26 -250 q -47 -304 -16 -291 q -123 -318 -77 -316 q -240 -305 -169 -320 l -193 -216 q -134 -205 -154 -219 q -95 -166 -115 -191 q -83 -147 -94 -165 q -54 -100 -72 -129 q -13 -34 -36 -70 q 31 40 8 2 q 155 240 87 127 q 190 295 169 262 q 240 360 212 329 q 300 415 268 391 q 369 443 333 438 q 332 488 340 461 q 329 545 325 516 q 343 597 333 573 q 361 634 354 622 l 565 990 q 595 1072 595 1045 q 565 1085 595 1080 q 480 1086 534 1090 l 520 1191 q 627 1195 583 1201 q 700 1173 672 1190 q 742 1129 729 1156 q 755 1068 755 1102 "},"â":{"x_min":8,"x_max":808,"ha":671,"o":"m 798 293 q 610 125 738 220 q 356 -1 427 -10 q 281 84 281 8 q 287 122 281 102 q 94 -1 176 -5 q 8 104 8 3 q 96 311 8 199 q 308 497 185 424 q 498 563 420 563 q 551 547 531 563 q 566 500 570 532 q 605 537 598 531 q 624 544 612 542 q 646 544 638 546 q 651 535 655 542 q 495 306 605 470 q 388 88 396 154 q 412 47 381 47 q 606 162 464 47 q 776 318 733 263 q 791 325 781 325 q 808 311 808 325 q 798 293 808 302 m 517 441 q 534 490 534 462 q 494 532 534 532 q 384 488 451 532 q 245 366 312 443 q 96 86 96 197 q 127 39 96 39 q 241 113 163 39 q 359 247 306 176 q 517 441 426 336 m 669 627 q 663 623 666 623 l 623 623 l 616 626 q 563 715 589 666 q 416 616 513 683 q 405 623 410 616 q 403 633 401 630 q 584 755 410 645 q 591 758 587 758 q 596 753 592 758 q 667 634 606 739 q 669 627 669 629 "},"ø":{"x_min":-61.75,"x_max":781.0625,"ha":644,"o":"m 775 298 q 574 142 664 165 q 501 131 535 131 q 418 152 453 131 q 251 26 339 74 q 95 -21 163 -21 q 4 24 29 -21 l -61 -29 l -57 23 l -6 63 q 66 269 -14 150 q 271 474 148 389 q 488 560 395 560 q 571 523 544 560 l 667 600 l 664 546 l 590 488 q 591 460 591 476 q 517 270 591 378 q 449 184 486 225 q 508 166 479 166 q 569 177 535 166 q 746 315 650 201 q 765 325 756 325 q 781 311 781 325 q 775 298 781 304 m 536 495 q 488 522 522 522 q 333 451 425 522 q 174 280 242 380 q 113 158 131 215 l 536 495 m 545 452 l 102 101 q 160 37 102 37 q 385 173 253 37 q 347 241 347 203 q 375 297 347 274 q 450 322 408 322 q 493 311 478 322 q 545 452 542 394 "},"‰":{"x_min":39.828125,"x_max":1318,"ha":1333,"o":"m 1299 726 q 1318 616 1318 670 q 1252 429 1318 513 q 1145 336 1206 368 q 1102 331 1103 313 q 1133 366 1100 351 q 1220 443 1173 386 q 1285 600 1285 519 q 1279 647 1285 623 q 1136 808 1254 743 q 875 874 1018 874 q 665 829 761 874 q 398 636 513 758 q 260 458 353 588 q 69 237 137 285 q 44 233 53 224 q 56 267 31 244 q 226 470 128 333 q 392 697 351 649 q 709 941 556 890 q 888 971 797 971 q 1149 903 1033 971 q 1299 726 1265 836 "},"Ä":{"x_min":40.96875,"x_max":1947.1875,"ha":1650,"o":"m 1852 1046 q 1570 591 1718 851 q 1628 554 1607 572 q 1639 522 1649 537 q 1614 519 1628 506 q 1552 559 1593 537 q 1457 380 1496 459 q 1362 89 1362 184 q 1435 9 1362 9 q 1547 63 1502 9 q 1566 75 1559 77 q 1562 48 1579 72 q 1504 2 1545 24 q 1412 -24 1456 -24 q 1357 -12 1382 -24 q 1272 120 1272 30 q 1319 306 1272 192 q 1485 591 1355 392 q 1295 654 1388 631 q 1049 380 1172 518 q 775 126 897 216 q 449 -26 614 8 q 353 -36 404 -36 q 146 18 228 -36 q 41 218 43 84 q 277 541 38 396 q 779 710 495 675 q 984 724 884 724 q 1272 694 1134 724 q 1678 1064 1610 1019 q 1807 1117 1756 1117 q 1863 1076 1863 1117 q 1852 1046 1863 1061 m 1822 1086 q 1807 1089 1817 1089 q 1721 1058 1777 1089 q 1322 683 1629 1005 q 1504 622 1418 659 q 1711 911 1593 755 q 1822 1054 1799 1026 q 1822 1086 1842 1076 m 1242 666 q 985 692 1118 692 q 702 665 849 692 q 287 509 471 622 q 79 241 79 382 q 80 212 79 227 q 295 68 105 68 q 466 94 377 68 q 773 245 624 140 q 1038 471 882 320 l 1242 666 m 1947 1227 q 1905 1190 1944 1190 q 1871 1227 1868 1190 q 1911 1265 1873 1265 q 1947 1227 1949 1265 m 1802 1227 q 1760 1190 1799 1190 q 1726 1227 1723 1190 q 1766 1265 1728 1265 q 1802 1227 1804 1265 "},"Ч":{"x_min":29,"x_max":1796.8125,"ha":1346,"o":"m 1378 677 q 1523 895 1456 795 q 1643 1075 1591 995 q 1693 1094 1652 1080 q 1735 1106 1717 1101 q 1767 1113 1753 1111 q 1796 1111 1793 1118 q 1610 830 1800 1100 q 1444 597 1500 676 q 1385 515 1388 519 q 1303 390 1345 452 q 1221 266 1262 329 q 1131 69 1131 122 q 1173 30 1131 30 q 1284 74 1235 30 q 1313 85 1302 92 q 1313 62 1325 79 q 1275 27 1300 45 q 1214 -2 1249 9 q 1145 -14 1178 -15 q 1082 9 1103 -14 q 1062 73 1062 33 q 1198 394 1062 170 q 1225 431 1207 408 q 1261 480 1242 455 q 1296 528 1280 505 q 1322 563 1313 551 q 1330 576 1331 576 q 1309 555 1328 576 q 1209 447 1250 490 q 1134 380 1168 405 q 1066 343 1099 355 q 992 329 1034 331 q 937 335 962 326 q 844 427 869 358 q 833 516 828 470 q 859 610 837 562 q 890 664 870 634 q 937 731 909 694 q 978 789 962 764 q 1004 837 995 814 q 1017 882 1013 859 q 1022 934 1022 905 q 966 1057 1022 1013 q 815 1101 910 1101 q 458 990 656 1101 q 201 769 309 908 q 93 521 93 629 q 111 448 93 479 q 251 381 149 381 q 423 417 326 381 q 498 451 465 432 q 558 489 531 469 q 751 756 704 601 q 774 783 756 780 q 788 777 783 784 q 788 756 793 769 q 766 691 777 720 q 741 639 755 661 q 674 551 715 594 q 577 465 633 508 q 433 387 518 421 q 251 351 333 351 q 70 439 122 351 q 29 591 29 507 q 90 797 29 694 q 280 992 156 906 q 745 1144 495 1144 q 863 1133 810 1144 q 955 1098 916 1123 q 1021 1032 995 1073 q 1058 931 1046 991 q 1057 871 1058 899 q 1050 811 1056 842 q 1031 741 1044 780 q 996 651 1019 702 q 955 422 930 501 q 1020 375 973 370 q 1103 408 1055 377 q 1216 501 1150 438 q 1305 590 1264 547 q 1378 677 1346 633 "},"—":{"x_min":154,"x_max":1306.78125,"ha":1350,"o":"m 1306 396 l 1277 350 l 154 350 l 181 396 l 1306 396 "},"N":{"x_min":-21,"x_max":2885.390625,"ha":2000,"o":"m 1516 565 q 1436 595 1498 576 q 1293 633 1375 615 q 1124 662 1212 651 q 965 672 1036 674 q 666 640 814 672 q 230 451 380 579 q 114 244 114 348 q 214 103 114 149 q 426 63 298 63 q 516 67 469 63 q 614 78 562 71 q 1114 264 843 115 q 1241 343 1175 297 q 1364 434 1307 390 q 1462 515 1420 479 q 1516 565 1504 551 m 2884 1038 q 2841 944 2891 949 q 2799 952 2816 941 q 2769 999 2783 963 q 2756 1008 2766 1003 q 2733 1017 2747 1013 q 2706 1023 2720 1021 q 2683 1026 2692 1026 q 2606 1008 2651 1026 q 2504 954 2560 991 q 2383 859 2448 917 q 2248 719 2319 801 q 2083 522 2151 606 q 1967 373 2016 438 q 1880 254 1917 308 q 1804 148 1842 200 q 1728 61 1766 100 q 1652 -1 1690 23 q 1580 -39 1615 -27 q 1513 -45 1545 -51 q 1445 -25 1476 -45 q 1397 33 1415 -5 q 1374 126 1379 72 q 1384 247 1369 180 q 1162 77 1267 145 q 963 -33 1056 9 q 791 -98 870 -76 q 650 -129 712 -120 q 544 -139 588 -138 q 474 -140 499 -140 q 180 -80 301 -140 q -4 123 38 -12 q -21 228 -21 175 q 155 550 -21 407 q 631 758 330 691 q 966 796 795 796 q 1174 782 1074 796 q 1357 749 1274 768 q 1499 709 1440 730 q 1587 673 1559 689 q 1699 882 1645 787 q 1801 1044 1752 976 q 1899 1154 1849 1116 q 1980 1177 1948 1191 q 2006 1152 1999 1166 q 2013 1119 2013 1137 q 2001 1069 2013 1104 q 1970 992 1990 1034 q 1924 903 1951 950 q 1867 816 1898 857 q 1777 704 1813 746 q 1719 641 1741 662 q 1690 612 1698 619 q 1681 605 1681 605 q 1742 546 1726 577 q 1755 500 1758 515 q 1736 468 1749 475 q 1705 464 1723 461 q 1667 477 1687 466 q 1630 498 1648 487 q 1586 397 1604 441 q 1559 314 1569 352 q 1546 242 1549 276 q 1542 173 1542 208 q 1550 116 1542 130 q 1567 101 1558 101 q 1619 134 1585 101 q 1712 246 1654 168 q 1798 364 1748 294 q 1906 511 1848 434 q 2024 666 1963 589 q 2144 808 2085 743 q 2316 996 2233 922 q 2473 1113 2399 1070 q 2608 1170 2547 1155 q 2717 1182 2670 1186 q 2773 1170 2744 1182 q 2826 1138 2802 1158 q 2865 1092 2849 1117 q 2884 1038 2881 1066 "},"2":{"x_min":-112.96875,"x_max":1165.28125,"ha":1132,"o":"m 1150 709 q 861 398 1083 499 q 795 377 841 390 q 673 342 748 363 q 494 288 598 320 q 256 206 390 255 q 405 174 340 192 q 518 138 470 155 q 595 108 565 120 q 637 97 625 97 q 714 120 686 97 q 745 160 743 144 q 765 220 752 205 q 802 236 777 236 q 846 219 834 236 q 855 174 858 202 q 768 0 845 56 q 547 -57 690 -57 q 448 -43 505 -57 q 318 -7 391 -30 q 259 14 284 5 q 209 29 233 23 q 161 38 186 36 q 106 41 137 41 q 70 34 87 41 q 40 17 54 27 q 15 -3 26 6 q 0 -20 5 -13 q -31 -49 -12 -36 q -56 -63 -50 -63 q -101 -46 -87 -63 q -112 -1 -115 -29 q -51 140 -105 73 q 101 270 2 207 q 406 405 244 360 q 652 480 547 442 q 827 565 756 519 q 937 670 898 612 q 984 807 976 728 q 981 874 988 845 q 954 920 973 903 q 830 958 908 958 q 587 880 702 958 q 456 680 468 795 q 460 659 456 671 q 472 635 463 646 q 492 613 480 623 q 520 602 504 603 q 583 600 556 598 q 629 610 609 602 q 665 632 650 619 q 698 660 681 645 q 787 821 758 719 q 843 862 800 862 q 897 802 904 862 q 783 578 887 678 q 541 476 676 477 q 459 487 494 474 q 393 530 425 499 q 337 688 327 594 q 525 977 350 859 q 851 1082 679 1082 q 1070 1006 979 1082 q 1165 805 1165 927 q 1150 709 1165 759 "},"ü":{"x_min":-23,"x_max":781.171875,"ha":643,"o":"m 771 293 q 583 125 711 220 q 329 -1 400 -10 q 254 87 256 8 q 154 23 208 48 q 52 -1 90 -6 q -23 89 -23 8 q -20 114 -23 101 q 110 326 -7 182 q 296 542 278 532 q 322 549 307 549 q 340 539 340 550 q 289 451 340 526 q 191 307 207 333 q 114 184 127 207 q 83 91 87 132 q 107 45 77 45 q 132 52 119 45 q 406 314 243 100 q 574 542 485 425 q 600 549 585 549 q 618 539 618 550 q 567 451 618 526 q 468 307 485 334 q 361 88 370 154 q 385 47 354 47 q 579 162 438 47 q 749 318 706 263 q 764 325 754 325 q 781 311 781 325 q 771 293 781 302 m 606 671 q 565 634 603 634 q 530 671 527 634 q 570 710 532 710 q 606 671 608 710 m 462 671 q 421 634 459 634 q 386 671 383 634 q 426 710 388 710 q 462 671 464 710 "},"М":{"x_min":33,"x_max":2650.4375,"ha":2306,"o":"m 2650 1066 q 2510 814 2650 1002 q 2219 483 2378 638 l 2183 446 q 2006 -4 2006 113 q 2039 -41 2006 -41 q 2110 -1 2071 -41 q 2154 35 2149 38 q 2151 15 2162 33 q 2100 -39 2132 -14 q 2024 -69 2061 -69 q 1999 -65 2011 -69 q 1957 15 1957 -51 q 2050 317 1957 114 q 1542 -3 1703 -3 q 1486 8 1511 -3 q 1431 116 1431 33 q 1543 478 1431 237 q 766 -51 1164 59 q 485 -92 626 -92 q 210 -37 323 -92 q 48 141 85 23 q 33 233 33 187 q 194 521 33 392 q 651 721 359 656 q 976 758 811 758 q 1354 709 1171 758 q 1607 612 1503 670 l 1636 666 q 1842 1023 1750 891 q 1969 1142 1935 1156 q 1979 1121 1979 1137 q 1892 931 1979 1071 q 1776 767 1851 866 q 1640 591 1640 592 q 1722 517 1722 539 q 1719 512 1722 514 q 1665 531 1705 498 q 1619 562 1647 545 q 1474 123 1474 253 q 1550 33 1474 33 q 2086 392 1705 33 q 2211 624 2139 498 q 2449 960 2325 821 q 2625 1094 2568 1094 q 2650 1066 2650 1094 m 2595 1043 q 2233 537 2523 1043 q 2466 815 2329 633 q 2604 1034 2604 998 q 2595 1043 2604 1043 m 1588 580 q 1345 674 1501 635 q 974 719 1166 719 q 669 687 816 719 q 216 488 372 621 q 86 249 86 375 q 208 70 86 127 q 438 26 301 26 q 631 42 527 26 q 1142 232 869 81 q 1541 528 1394 371 q 1588 580 1565 553 "},"ь":{"x_min":12.5,"x_max":640.125,"ha":565,"o":"m 402 131 q 472 147 431 133 q 554 190 513 161 q 615 270 595 220 q 620 277 618 277 l 627 277 q 638 270 634 277 q 638 259 641 262 q 617 217 633 247 q 565 159 601 187 q 524 136 551 148 q 465 115 497 125 q 398 102 433 106 q 356 102 376 101 q 313 72 336 86 q 241 34 277 50 q 172 9 205 18 q 115 1 140 1 q 60 4 81 -4 q 27 31 38 13 q 13 75 15 50 q 15 130 11 101 q 50 209 22 161 q 138 331 79 258 q 186 388 159 356 q 248 458 213 420 q 331 538 312 525 q 350 544 337 541 q 372 544 363 545 q 376 536 380 541 q 314 448 352 504 q 219 313 276 393 q 186 260 200 283 q 161 218 172 237 q 142 185 156 211 q 117 131 127 159 q 107 79 106 102 q 133 55 108 56 q 172 60 151 54 q 213 77 193 66 q 251 103 233 88 q 283 134 269 118 q 241 201 247 166 q 249 268 236 236 q 290 326 262 300 q 350 368 318 352 q 415 384 383 383 q 470 368 448 386 q 493 327 488 352 q 486 270 497 302 q 450 200 476 237 q 391 131 427 166 l 402 131 m 318 161 q 334 172 320 159 q 365 205 348 186 q 400 248 383 225 q 428 293 418 272 q 438 329 438 313 q 419 350 437 345 q 362 340 397 356 q 304 288 327 325 q 280 213 276 252 q 318 161 284 175 "},"":{"x_min":-417.125,"x_max":1297,"ha":894,"o":"m 1297 1101 q 977 630 1297 988 q 606 290 759 386 q 557 118 557 179 q 618 45 557 45 q 826 157 683 45 q 991 308 916 227 q 1019 325 1005 325 q 1031 312 1031 325 q 820 114 1031 272 q 549 -15 651 -15 q 509 -8 527 -15 q 454 83 454 12 q 481 208 454 133 q 380 112 421 143 q 273 40 291 51 q 133 -4 191 -6 q 13 45 55 0 q -258 -463 -79 -126 q -398 -507 -312 -484 q -417 -497 -417 -507 q -404 -479 -418 -487 q -347 -416 -376 -459 q 120 357 -328 -387 q 742 1153 598 1153 q 794 1093 794 1153 q 502 584 794 954 q 89 193 278 304 l 62 140 q 116 45 66 61 q 160 39 138 39 q 369 143 237 39 q 544 341 455 211 q 748 661 627 475 q 1249 1143 1092 1143 q 1297 1101 1297 1143 m 1224 1085 q 1016 927 1167 1097 q 789 625 888 782 q 634 348 709 497 q 957 657 791 472 q 1241 1061 1241 973 q 1224 1085 1241 1080 m 715 1085 q 411 750 643 1085 q 163 331 299 587 l 133 275 q 472 607 306 395 q 640 850 560 718 q 738 1059 738 1005 q 715 1085 738 1085 "},"Ó":{"x_min":18,"x_max":1118.21875,"ha":950,"o":"m 959 1119 q 1051 1024 1017 1099 q 1086 844 1086 950 q 892 316 1086 569 q 599 42 761 144 q 297 -60 437 -60 q 122 -4 195 -60 q 18 241 18 73 q 188 702 18 472 q 641 1084 413 1008 q 672 1084 663 1091 q 649 1062 686 1074 q 491 965 590 1043 q 248 702 347 854 q 125 307 125 512 q 244 42 125 107 q 369 12 300 12 q 851 323 606 12 q 1050 844 1050 576 q 1021 1006 1050 940 q 944 1088 993 1072 q 888 1098 918 1098 q 601 876 749 1098 q 522 655 522 757 q 553 576 522 594 q 595 567 573 567 q 767 691 687 567 q 801 718 790 725 q 801 677 819 709 q 709 579 773 626 q 572 525 637 525 q 507 543 536 525 q 446 677 446 579 q 495 854 446 768 q 676 1051 564 972 q 891 1131 788 1131 q 959 1119 927 1131 m 1118 1307 q 1094 1273 1116 1284 q 965 1213 1051 1254 q 916 1187 948 1202 q 913 1186 915 1186 q 911 1186 912 1186 q 904 1194 904 1186 q 909 1200 904 1195 q 1059 1330 966 1252 q 1088 1339 1072 1339 q 1118 1307 1120 1339 "},"˜":{"x_min":94,"x_max":420.375,"ha":515,"o":"m 420 1195 q 390 1147 417 1168 q 331 1128 363 1126 q 247 1151 300 1128 q 163 1175 194 1175 q 122 1156 144 1175 q 99 1137 100 1137 q 94 1144 94 1137 q 126 1197 96 1172 q 191 1222 156 1222 q 281 1193 221 1222 q 357 1165 341 1165 q 395 1184 381 1165 q 410 1202 409 1202 q 420 1195 420 1202 "},"ˇ":{"x_min":94,"x_max":356.515625,"ha":408,"o":"m 355 1244 q 264 1181 349 1234 q 171 1129 178 1129 q 129 1194 164 1133 q 94 1259 94 1255 q 99 1263 96 1263 l 139 1263 l 146 1261 q 199 1172 164 1231 q 346 1271 249 1204 q 355 1259 350 1271 q 355 1244 357 1248 "},"Ÿ":{"x_min":15,"x_max":1457,"ha":1461,"o":"m 1457 574 q 1355 250 1457 449 q 1030 -181 1234 10 q 687 -434 876 -326 q 360 -551 482 -551 q 255 -506 287 -551 q 244 -467 244 -490 q 323 -342 244 -412 q 534 -217 402 -272 q 887 -145 705 -145 q 1006 -152 951 -145 q 1306 234 1181 8 q 1418 548 1418 439 q 1387 603 1418 603 q 1252 498 1352 603 q 1069 309 1090 329 q 791 96 927 182 q 515 -15 618 -15 q 458 -3 483 -15 q 396 100 396 25 q 481 291 396 194 q 705 492 544 362 q 907 689 849 607 q 1002 932 1002 818 q 951 1058 1002 1011 q 802 1106 900 1106 q 443 990 642 1106 q 191 769 300 908 q 80 518 80 626 q 96 449 80 478 q 237 381 134 381 q 407 417 313 381 q 544 489 491 448 q 737 756 688 598 q 760 783 744 781 q 774 777 769 784 q 774 756 778 769 q 727 639 753 683 q 563 465 673 550 q 419 388 505 421 q 237 352 320 352 q 56 439 109 352 q 15 590 15 507 q 76 796 15 693 q 266 993 142 906 q 734 1149 484 1149 q 974 1080 901 1149 q 1040 917 1040 1022 q 951 660 1040 785 q 804 492 897 585 q 644 325 687 375 q 514 86 514 171 q 564 31 514 31 q 813 155 634 31 q 1048 344 957 255 q 1332 619 1163 457 q 1395 649 1363 649 q 1457 574 1457 649 m 977 -179 q 884 -174 931 -174 q 588 -228 723 -174 q 401 -340 473 -275 q 329 -457 329 -405 q 387 -507 329 -507 q 634 -425 476 -507 q 977 -179 813 -330 m 1382 1131 q 1341 1094 1379 1094 q 1307 1131 1304 1094 q 1347 1169 1309 1169 q 1382 1131 1384 1169 m 1237 1131 q 1196 1094 1234 1094 q 1162 1131 1159 1094 q 1202 1169 1164 1169 q 1237 1131 1239 1169 "},"Ў":{"x_min":15,"x_max":1510.046875,"ha":1461,"o":"m 1457 574 q 1355 250 1457 449 q 1030 -181 1234 10 q 687 -434 876 -325 q 361 -551 483 -551 q 255 -506 287 -551 q 244 -467 244 -490 q 323 -342 244 -412 q 534 -217 402 -272 q 887 -145 705 -145 q 1006 -153 951 -145 q 1306 235 1181 8 q 1418 548 1418 439 q 1387 603 1418 603 q 1252 498 1352 603 q 1069 310 1090 329 q 791 96 927 182 q 515 -15 618 -15 q 458 -3 483 -15 q 396 100 396 25 q 482 291 396 194 q 705 492 544 362 q 908 689 850 607 q 1003 932 1003 818 q 952 1058 1003 1011 q 802 1106 901 1106 q 444 990 642 1106 q 191 769 301 908 q 80 517 80 626 q 96 448 80 477 q 236 380 134 380 q 407 416 313 380 q 543 488 491 448 q 736 756 688 598 q 760 782 743 781 q 773 776 768 784 q 774 756 778 768 q 727 638 753 682 q 563 464 673 549 q 418 386 505 420 q 236 351 320 351 q 56 438 109 351 q 15 590 15 506 q 76 795 15 693 q 266 993 142 905 q 735 1149 484 1149 q 975 1080 901 1149 q 1041 917 1041 1022 q 952 660 1041 785 q 804 492 897 585 q 644 325 687 375 q 514 86 514 171 q 564 31 514 31 q 813 156 634 31 q 1048 344 957 256 q 1332 619 1163 457 q 1395 649 1363 649 q 1457 574 1457 649 m 977 -180 q 884 -174 931 -174 q 588 -228 723 -174 q 401 -340 473 -275 q 329 -457 329 -405 q 387 -507 329 -507 q 634 -425 476 -507 q 977 -180 813 -331 m 1508 1120 q 1441 1020 1493 1071 q 1304 957 1377 958 q 1190 1012 1227 954 q 1168 1111 1162 1056 q 1188 1143 1170 1143 q 1200 1134 1195 1143 q 1204 1113 1204 1126 q 1235 1045 1202 1077 q 1316 1015 1268 1013 q 1416 1049 1368 1016 q 1476 1120 1461 1081 q 1501 1145 1487 1146 q 1508 1120 1513 1144 "},"в":{"x_min":61,"x_max":777.84375,"ha":613,"o":"m 700 234 q 659 191 691 216 q 573 126 627 166 q 423 62 489 62 q 373 69 399 62 q 191 -15 275 -15 q 103 15 142 -15 q 61 129 61 48 q 132 398 61 233 q 297 700 197 551 q 550 1014 423 887 q 744 1142 677 1142 q 777 1111 777 1142 q 680 907 777 1057 q 486 642 597 776 q 155 300 295 411 q 132 178 132 229 q 208 88 132 88 q 291 112 244 88 q 244 218 244 157 q 331 421 244 312 q 506 530 419 530 q 548 521 528 530 q 588 440 588 500 q 534 264 588 365 q 403 97 480 162 q 427 96 414 96 q 550 148 482 96 q 669 248 671 240 q 685 258 677 258 q 699 249 694 258 q 700 234 705 240 m 708 1068 q 577 972 669 1068 q 348 673 472 862 q 181 369 240 511 q 455 662 308 483 q 722 1055 722 990 q 708 1068 722 1068 m 503 501 q 417 461 466 501 q 328 358 367 422 q 283 222 283 283 q 323 133 283 169 q 401 200 363 161 q 491 327 445 245 q 541 463 541 416 q 503 501 541 501 "},"С":{"x_min":3,"x_max":1303.5,"ha":1032,"o":"m 1303 972 q 1279 963 1302 960 q 1259 963 1270 963 q 1186 835 1246 884 q 1092 801 1143 801 q 1031 847 1031 801 q 1127 959 1031 916 q 1225 984 1171 978 q 1095 1072 1224 1072 q 860 1022 993 1072 q 549 855 703 965 q 229 543 338 705 q 134 273 134 400 q 161 155 134 207 q 486 17 236 17 q 618 28 556 17 q 940 148 797 62 q 1095 273 1038 208 q 1134 297 1117 297 q 1140 294 1139 297 q 1117 248 1150 280 q 950 111 1027 160 q 628 -10 814 26 q 429 -30 525 -30 q 61 106 167 -30 q 3 290 3 179 q 271 751 3 525 q 715 1019 472 922 q 1088 1104 928 1104 q 1217 1074 1177 1104 q 1261 985 1261 1041 q 1303 972 1304 985 m 1223 959 q 1111 916 1150 947 q 1068 854 1068 884 q 1093 834 1068 834 q 1163 863 1123 834 q 1223 959 1211 897 "}}}
